# vtk DataFile Version 2.0
TET
ASCII

DATASET UNSTRUCTURED_GRID
POINTS 401 float
0 -0.5 0
50 0 0
-50 0 0
0 0 -1
0 0.5 0
50 1 0
-50 1 0
0 1 -1
0 1.5 0
50 2 0
-50 2 0
0 2 -1
0 2.5 0
50 3 0
-50 3 0
0 3 -1
0 3.5 0
50 4 0
-50 4 0
0 4 -1
0 4.5 0
50 5 0
-50 5 0
0 5 -1
0 5.5 0
50 6 0
-50 6 0
0 6 -1
0 6.5 0
50 7 0
-50 7 0
0 7 -1
0 7.5 0
50 8 0
-50 8 0
0 8 -1
0 8.5 0
50 9 0
-50 9 0
0 9 -1
0 9.5 0
50 10 0
-50 10 0
0 10 -1
0 10.5 0
50 11 0
-50 11 0
0 11 -1
0 11.5 0
50 12 0
-50 12 0
0 12 -1
0 12.5 0
50 13 0
-50 13 0
0 13 -1
0 13.5 0
50 14 0
-50 14 0
0 14 -1
0 14.5 0
50 15 0
-50 15 0
0 15 -1
0 15.5 0
50 16 0
-50 16 0
0 16 -1
0 16.5 0
50 17 0
-50 17 0
0 17 -1
0 17.5 0
50 18 0
-50 18 0
0 18 -1
0 18.5 0
50 19 0
-50 19 0
0 19 -1
0 19.5 0
50 20 0
-50 20 0
0 20 -1
0 20.5 0
50 21 0
-50 21 0
0 21 -1
0 21.5 0
50 22 0
-50 22 0
0 22 -1
0 22.5 0
50 23 0
-50 23 0
0 23 -1
0 23.5 0
50 24 0
-50 24 0
0 24 -1
0 24.5 0
50 25 0
-50 25 0
0 25 -1
0 25.5 0
50 26 0
-50 26 0
0 26 -1
0 26.5 0
50 27 0
-50 27 0
0 27 -1
0 27.5 0
50 28 0
-50 28 0
0 28 -1
0 28.5 0
50 29 0
-50 29 0
0 29 -1
0 29.5 0
50 30 0
-50 30 0
0 30 -1
0 30.5 0
50 31 0
-50 31 0
0 31 -1
0 31.5 0
50 32 0
-50 32 0
0 32 -1
0 32.5 0
50 33 0
-50 33 0
0 33 -1
0 33.5 0
50 34 0
-50 34 0
0 34 -1
0 34.5 0
50 35 0
-50 35 0
0 35 -1
0 35.5 0
50 36 0
-50 36 0
0 36 -1
0 36.5 0
50 37 0
-50 37 0
0 37 -1
0 37.5 0
50 38 0
-50 38 0
0 38 -1
0 38.5 0
50 39 0
-50 39 0
0 39 -1
0 39.5 0
50 40 0
-50 40 0
0 40 -1
0 40.5 0
50 41 0
-50 41 0
0 41 -1
0 41.5 0
50 42 0
-50 42 0
0 42 -1
0 42.5 0
50 43 0
-50 43 0
0 43 -1
0 43.5 0
50 44 0
-50 44 0
0 44 -1
0 44.5 0
50 45 0
-50 45 0
0 45 -1
0 45.5 0
50 46 0
-50 46 0
0 46 -1
0 46.5 0
50 47 0
-50 47 0
0 47 -1
0 47.5 0
50 48 0
-50 48 0
0 48 -1
0 48.5 0
50 49 0
-50 49 0
0 49 -1
0 49.5 0
50 50 0
-50 50 0
0 50 -1
0 50.5 0
50 51 0
-50 51 0
0 51 -1
0 51.5 0
50 52 0
-50 52 0
0 52 -1
0 52.5 0
50 53 0
-50 53 0
0 53 -1
0 53.5 0
50 54 0
-50 54 0
0 54 -1
0 54.5 0
50 55 0
-50 55 0
0 55 -1
0 55.5 0
50 56 0
-50 56 0
0 56 -1
0 56.5 0
50 57 0
-50 57 0
0 57 -1
0 57.5 0
50 58 0
-50 58 0
0 58 -1
0 58.5 0
50 59 0
-50 59 0
0 59 -1
0 59.5 0
50 60 0
-50 60 0
0 60 -1
0 60.5 0
50 61 0
-50 61 0
0 61 -1
0 61.5 0
50 62 0
-50 62 0
0 62 -1
0 62.5 0
50 63 0
-50 63 0
0 63 -1
0 63.5 0
50 64 0
-50 64 0
0 64 -1
0 64.5 0
50 65 0
-50 65 0
0 65 -1
0 65.5 0
50 66 0
-50 66 0
0 66 -1
0 66.5 0
50 67 0
-50 67 0
0 67 -1
0 67.5 0
50 68 0
-50 68 0
0 68 -1
0 68.5 0
50 69 0
-50 69 0
0 69 -1
0 69.5 0
50 70 0
-50 70 0
0 70 -1
0 70.5 0
50 71 0
-50 71 0
0 71 -1
0 71.5 0
50 72 0
-50 72 0
0 72 -1
0 72.5 0
50 73 0
-50 73 0
0 73 -1
0 73.5 0
50 74 0
-50 74 0
0 74 -1
0 74.5 0
50 75 0
-50 75 0
0 75 -1
0 75.5 0
50 76 0
-50 76 0
0 76 -1
0 76.5 0
50 77 0
-50 77 0
0 77 -1
0 77.5 0
50 78 0
-50 78 0
0 78 -1
0 78.5 0
50 79 0
-50 79 0
0 79 -1
0 79.5 0
50 80 0
-50 80 0
0 80 -1
0 80.5 0
50 81 0
-50 81 0
0 81 -1
0 81.5 0
50 82 0
-50 82 0
0 82 -1
0 82.5 0
50 83 0
-50 83 0
0 83 -1
0 83.5 0
50 84 0
-50 84 0
0 84 -1
0 84.5 0
50 85 0
-50 85 0
0 85 -1
0 85.5 0
50 86 0
-50 86 0
0 86 -1
0 86.5 0
50 87 0
-50 87 0
0 87 -1
0 87.5 0
50 88 0
-50 88 0
0 88 -1
0 88.5 0
50 89 0
-50 89 0
0 89 -1
0 89.5 0
50 90 0
-50 90 0
0 90 -1
0 90.5 0
50 91 0
-50 91 0
0 91 -1
0 91.5 0
50 92 0
-50 92 0
0 92 -1
0 92.5 0
50 93 0
-50 93 0
0 93 -1
0 93.5 0
50 94 0
-50 94 0
0 94 -1
0 94.5 0
50 95 0
-50 95 0
0 95 -1
0 95.5 0
50 96 0
-50 96 0
0 96 -1
0 96.5 0
50 97 0
-50 97 0
0 97 -1
0 97.5 0
50 98 0
-50 98 0
0 98 -1
0 98.5 0
50 99 0
-50 99 0
0 99 -1
0 99.5 0
CELLS 596 2980
4 0 1 2 3 
4 4 1 2 3 
4 4 5 6 7 
4 8 5 6 7 
4 8 9 10 11 
4 12 9 10 11 
4 12 13 14 15 
4 16 13 14 15 
4 16 17 18 19 
4 20 17 18 19 
4 20 21 22 23 
4 24 21 22 23 
4 24 25 26 27 
4 28 25 26 27 
4 28 29 30 31 
4 32 29 30 31 
4 32 33 34 35 
4 36 33 34 35 
4 36 37 38 39 
4 40 37 38 39 
4 40 41 42 43 
4 44 41 42 43 
4 44 45 46 47 
4 48 45 46 47 
4 48 49 50 51 
4 52 49 50 51 
4 52 53 54 55 
4 56 53 54 55 
4 56 57 58 59 
4 60 57 58 59 
4 60 61 62 63 
4 64 61 62 63 
4 64 65 66 67 
4 68 65 66 67 
4 68 69 70 71 
4 72 69 70 71 
4 72 73 74 75 
4 76 73 74 75 
4 76 77 78 79 
4 80 77 78 79 
4 80 81 82 83 
4 84 81 82 83 
4 84 85 86 87 
4 88 85 86 87 
4 88 89 90 91 
4 92 89 90 91 
4 92 93 94 95 
4 96 93 94 95 
4 96 97 98 99 
4 100 97 98 99 
4 100 101 102 103 
4 104 101 102 103 
4 104 105 106 107 
4 108 105 106 107 
4 108 109 110 111 
4 112 109 110 111 
4 112 113 114 115 
4 116 113 114 115 
4 116 117 118 119 
4 120 117 118 119 
4 120 121 122 123 
4 124 121 122 123 
4 124 125 126 127 
4 128 125 126 127 
4 128 129 130 131 
4 132 129 130 131 
4 132 133 134 135 
4 136 133 134 135 
4 136 137 138 139 
4 140 137 138 139 
4 140 141 142 143 
4 144 141 142 143 
4 144 145 146 147 
4 148 145 146 147 
4 148 149 150 151 
4 152 149 150 151 
4 152 153 154 155 
4 156 153 154 155 
4 156 157 158 159 
4 160 157 158 159 
4 160 161 162 163 
4 164 161 162 163 
4 164 165 166 167 
4 168 165 166 167 
4 168 169 170 171 
4 172 169 170 171 
4 172 173 174 175 
4 176 173 174 175 
4 176 177 178 179 
4 180 177 178 179 
4 180 181 182 183 
4 184 181 182 183 
4 184 185 186 187 
4 188 185 186 187 
4 188 189 190 191 
4 192 189 190 191 
4 192 193 194 195 
4 196 193 194 195 
4 196 197 198 199 
4 200 197 198 199 
4 200 201 202 203 
4 204 201 202 203 
4 204 205 206 207 
4 208 205 206 207 
4 208 209 210 211 
4 212 209 210 211 
4 212 213 214 215 
4 216 213 214 215 
4 216 217 218 219 
4 220 217 218 219 
4 220 221 222 223 
4 224 221 222 223 
4 224 225 226 227 
4 228 225 226 227 
4 228 229 230 231 
4 232 229 230 231 
4 232 233 234 235 
4 236 233 234 235 
4 236 237 238 239 
4 240 237 238 239 
4 240 241 242 243 
4 244 241 242 243 
4 244 245 246 247 
4 248 245 246 247 
4 248 249 250 251 
4 252 249 250 251 
4 252 253 254 255 
4 256 253 254 255 
4 256 257 258 259 
4 260 257 258 259 
4 260 261 262 263 
4 264 261 262 263 
4 264 265 266 267 
4 268 265 266 267 
4 268 269 270 271 
4 272 269 270 271 
4 272 273 274 275 
4 276 273 274 275 
4 276 277 278 279 
4 280 277 278 279 
4 280 281 282 283 
4 284 281 282 283 
4 284 285 286 287 
4 288 285 286 287 
4 288 289 290 291 
4 292 289 290 291 
4 292 293 294 295 
4 296 293 294 295 
4 296 297 298 299 
4 300 297 298 299 
4 300 301 302 303 
4 304 301 302 303 
4 304 305 306 307 
4 308 305 306 307 
4 308 309 310 311 
4 312 309 310 311 
4 312 313 314 315 
4 316 313 314 315 
4 316 317 318 319 
4 320 317 318 319 
4 320 321 322 323 
4 324 321 322 323 
4 324 325 326 327 
4 328 325 326 327 
4 328 329 330 331 
4 332 329 330 331 
4 332 333 334 335 
4 336 333 334 335 
4 336 337 338 339 
4 340 337 338 339 
4 340 341 342 343 
4 344 341 342 343 
4 344 345 346 347 
4 348 345 346 347 
4 348 349 350 351 
4 352 349 350 351 
4 352 353 354 355 
4 356 353 354 355 
4 356 357 358 359 
4 360 357 358 359 
4 360 361 362 363 
4 364 361 362 363 
4 364 365 366 367 
4 368 365 366 367 
4 368 369 370 371 
4 372 369 370 371 
4 372 373 374 375 
4 376 373 374 375 
4 376 377 378 379 
4 380 377 378 379 
4 380 381 382 383 
4 384 381 382 383 
4 384 385 386 387 
4 388 385 386 387 
4 388 389 390 391 
4 392 389 390 391 
4 392 393 394 395 
4 396 393 394 395 
4 396 397 398 399 
4 400 397 398 399 
4 1 4 3 5 
4 3 4 5 7 
4 2 4 3 6 
4 3 4 6 7 
4 5 8 7 9 
4 7 8 9 11 
4 6 8 7 10 
4 7 8 10 11 
4 9 12 11 13 
4 11 12 13 15 
4 10 12 11 14 
4 11 12 14 15 
4 13 16 15 17 
4 15 16 17 19 
4 14 16 15 18 
4 15 16 18 19 
4 17 20 19 21 
4 19 20 21 23 
4 18 20 19 22 
4 19 20 22 23 
4 21 24 23 25 
4 23 24 25 27 
4 22 24 23 26 
4 23 24 26 27 
4 25 28 27 29 
4 27 28 29 31 
4 26 28 27 30 
4 27 28 30 31 
4 29 32 31 33 
4 31 32 33 35 
4 30 32 31 34 
4 31 32 34 35 
4 33 36 35 37 
4 35 36 37 39 
4 34 36 35 38 
4 35 36 38 39 
4 37 40 39 41 
4 39 40 41 43 
4 38 40 39 42 
4 39 40 42 43 
4 41 44 43 45 
4 43 44 45 47 
4 42 44 43 46 
4 43 44 46 47 
4 45 48 47 49 
4 47 48 49 51 
4 46 48 47 50 
4 47 48 50 51 
4 49 52 51 53 
4 51 52 53 55 
4 50 52 51 54 
4 51 52 54 55 
4 53 56 55 57 
4 55 56 57 59 
4 54 56 55 58 
4 55 56 58 59 
4 57 60 59 61 
4 59 60 61 63 
4 58 60 59 62 
4 59 60 62 63 
4 61 64 63 65 
4 63 64 65 67 
4 62 64 63 66 
4 63 64 66 67 
4 65 68 67 69 
4 67 68 69 71 
4 66 68 67 70 
4 67 68 70 71 
4 69 72 71 73 
4 71 72 73 75 
4 70 72 71 74 
4 71 72 74 75 
4 73 76 75 77 
4 75 76 77 79 
4 74 76 75 78 
4 75 76 78 79 
4 77 80 79 81 
4 79 80 81 83 
4 78 80 79 82 
4 79 80 82 83 
4 81 84 83 85 
4 83 84 85 87 
4 82 84 83 86 
4 83 84 86 87 
4 85 88 87 89 
4 87 88 89 91 
4 86 88 87 90 
4 87 88 90 91 
4 89 92 91 93 
4 91 92 93 95 
4 90 92 91 94 
4 91 92 94 95 
4 93 96 95 97 
4 95 96 97 99 
4 94 96 95 98 
4 95 96 98 99 
4 97 100 99 101 
4 99 100 101 103 
4 98 100 99 102 
4 99 100 102 103 
4 101 104 103 105 
4 103 104 105 107 
4 102 104 103 106 
4 103 104 106 107 
4 105 108 107 109 
4 107 108 109 111 
4 106 108 107 110 
4 107 108 110 111 
4 109 112 111 113 
4 111 112 113 115 
4 110 112 111 114 
4 111 112 114 115 
4 113 116 115 117 
4 115 116 117 119 
4 114 116 115 118 
4 115 116 118 119 
4 117 120 119 121 
4 119 120 121 123 
4 118 120 119 122 
4 119 120 122 123 
4 121 124 123 125 
4 123 124 125 127 
4 122 124 123 126 
4 123 124 126 127 
4 125 128 127 129 
4 127 128 129 131 
4 126 128 127 130 
4 127 128 130 131 
4 129 132 131 133 
4 131 132 133 135 
4 130 132 131 134 
4 131 132 134 135 
4 133 136 135 137 
4 135 136 137 139 
4 134 136 135 138 
4 135 136 138 139 
4 137 140 139 141 
4 139 140 141 143 
4 138 140 139 142 
4 139 140 142 143 
4 141 144 143 145 
4 143 144 145 147 
4 142 144 143 146 
4 143 144 146 147 
4 145 148 147 149 
4 147 148 149 151 
4 146 148 147 150 
4 147 148 150 151 
4 149 152 151 153 
4 151 152 153 155 
4 150 152 151 154 
4 151 152 154 155 
4 153 156 155 157 
4 155 156 157 159 
4 154 156 155 158 
4 155 156 158 159 
4 157 160 159 161 
4 159 160 161 163 
4 158 160 159 162 
4 159 160 162 163 
4 161 164 163 165 
4 163 164 165 167 
4 162 164 163 166 
4 163 164 166 167 
4 165 168 167 169 
4 167 168 169 171 
4 166 168 167 170 
4 167 168 170 171 
4 169 172 171 173 
4 171 172 173 175 
4 170 172 171 174 
4 171 172 174 175 
4 173 176 175 177 
4 175 176 177 179 
4 174 176 175 178 
4 175 176 178 179 
4 177 180 179 181 
4 179 180 181 183 
4 178 180 179 182 
4 179 180 182 183 
4 181 184 183 185 
4 183 184 185 187 
4 182 184 183 186 
4 183 184 186 187 
4 185 188 187 189 
4 187 188 189 191 
4 186 188 187 190 
4 187 188 190 191 
4 189 192 191 193 
4 191 192 193 195 
4 190 192 191 194 
4 191 192 194 195 
4 193 196 195 197 
4 195 196 197 199 
4 194 196 195 198 
4 195 196 198 199 
4 197 200 199 201 
4 199 200 201 203 
4 198 200 199 202 
4 199 200 202 203 
4 201 204 203 205 
4 203 204 205 207 
4 202 204 203 206 
4 203 204 206 207 
4 205 208 207 209 
4 207 208 209 211 
4 206 208 207 210 
4 207 208 210 211 
4 209 212 211 213 
4 211 212 213 215 
4 210 212 211 214 
4 211 212 214 215 
4 213 216 215 217 
4 215 216 217 219 
4 214 216 215 218 
4 215 216 218 219 
4 217 220 219 221 
4 219 220 221 223 
4 218 220 219 222 
4 219 220 222 223 
4 221 224 223 225 
4 223 224 225 227 
4 222 224 223 226 
4 223 224 226 227 
4 225 228 227 229 
4 227 228 229 231 
4 226 228 227 230 
4 227 228 230 231 
4 229 232 231 233 
4 231 232 233 235 
4 230 232 231 234 
4 231 232 234 235 
4 233 236 235 237 
4 235 236 237 239 
4 234 236 235 238 
4 235 236 238 239 
4 237 240 239 241 
4 239 240 241 243 
4 238 240 239 242 
4 239 240 242 243 
4 241 244 243 245 
4 243 244 245 247 
4 242 244 243 246 
4 243 244 246 247 
4 245 248 247 249 
4 247 248 249 251 
4 246 248 247 250 
4 247 248 250 251 
4 249 252 251 253 
4 251 252 253 255 
4 250 252 251 254 
4 251 252 254 255 
4 253 256 255 257 
4 255 256 257 259 
4 254 256 255 258 
4 255 256 258 259 
4 257 260 259 261 
4 259 260 261 263 
4 258 260 259 262 
4 259 260 262 263 
4 261 264 263 265 
4 263 264 265 267 
4 262 264 263 266 
4 263 264 266 267 
4 265 268 267 269 
4 267 268 269 271 
4 266 268 267 270 
4 267 268 270 271 
4 269 272 271 273 
4 271 272 273 275 
4 270 272 271 274 
4 271 272 274 275 
4 273 276 275 277 
4 275 276 277 279 
4 274 276 275 278 
4 275 276 278 279 
4 277 280 279 281 
4 279 280 281 283 
4 278 280 279 282 
4 279 280 282 283 
4 281 284 283 285 
4 283 284 285 287 
4 282 284 283 286 
4 283 284 286 287 
4 285 288 287 289 
4 287 288 289 291 
4 286 288 287 290 
4 287 288 290 291 
4 289 292 291 293 
4 291 292 293 295 
4 290 292 291 294 
4 291 292 294 295 
4 293 296 295 297 
4 295 296 297 299 
4 294 296 295 298 
4 295 296 298 299 
4 297 300 299 301 
4 299 300 301 303 
4 298 300 299 302 
4 299 300 302 303 
4 301 304 303 305 
4 303 304 305 307 
4 302 304 303 306 
4 303 304 306 307 
4 305 308 307 309 
4 307 308 309 311 
4 306 308 307 310 
4 307 308 310 311 
4 309 312 311 313 
4 311 312 313 315 
4 310 312 311 314 
4 311 312 314 315 
4 313 316 315 317 
4 315 316 317 319 
4 314 316 315 318 
4 315 316 318 319 
4 317 320 319 321 
4 319 320 321 323 
4 318 320 319 322 
4 319 320 322 323 
4 321 324 323 325 
4 323 324 325 327 
4 322 324 323 326 
4 323 324 326 327 
4 325 328 327 329 
4 327 328 329 331 
4 326 328 327 330 
4 327 328 330 331 
4 329 332 331 333 
4 331 332 333 335 
4 330 332 331 334 
4 331 332 334 335 
4 333 336 335 337 
4 335 336 337 339 
4 334 336 335 338 
4 335 336 338 339 
4 337 340 339 341 
4 339 340 341 343 
4 338 340 339 342 
4 339 340 342 343 
4 341 344 343 345 
4 343 344 345 347 
4 342 344 343 346 
4 343 344 346 347 
4 345 348 347 349 
4 347 348 349 351 
4 346 348 347 350 
4 347 348 350 351 
4 349 352 351 353 
4 351 352 353 355 
4 350 352 351 354 
4 351 352 354 355 
4 353 356 355 357 
4 355 356 357 359 
4 354 356 355 358 
4 355 356 358 359 
4 357 360 359 361 
4 359 360 361 363 
4 358 360 359 362 
4 359 360 362 363 
4 361 364 363 365 
4 363 364 365 367 
4 362 364 363 366 
4 363 364 366 367 
4 365 368 367 369 
4 367 368 369 371 
4 366 368 367 370 
4 367 368 370 371 
4 369 372 371 373 
4 371 372 373 375 
4 370 372 371 374 
4 371 372 374 375 
4 373 376 375 377 
4 375 376 377 379 
4 374 376 375 378 
4 375 376 378 379 
4 377 380 379 381 
4 379 380 381 383 
4 378 380 379 382 
4 379 380 382 383 
4 381 384 383 385 
4 383 384 385 387 
4 382 384 383 386 
4 383 384 386 387 
4 385 388 387 389 
4 387 388 389 391 
4 386 388 387 390 
4 387 388 390 391 
4 389 392 391 393 
4 391 392 393 395 
4 390 392 391 394 
4 391 392 394 395 
4 393 396 395 397 
4 395 396 397 399 
4 394 396 395 398 
4 395 396 398 399 
CELL_TYPES 596
10
10
10
10
10
10
10
10
10
10
10
10
10
10
10
10
10
10
10
10
10
10
10
10
10
10
10
10
10
10
10
10
10
10
10
10
10
10
10
10
10
10
10
10
10
10
10
10
10
10
10
10
10
10
10
10
10
10
10
10
10
10
10
10
10
10
10
10
10
10
10
10
10
10
10
10
10
10
10
10
10
10
10
10
10
10
10
10
10
10
10
10
10
10
10
10
10
10
10
10
10
10
10
10
10
10
10
10
10
10
10
10
10
10
10
10
10
10
10
10
10
10
10
10
10
10
10
10
10
10
10
10
10
10
10
10
10
10
10
10
10
10
10
10
10
10
10
10
10
10
10
10
10
10
10
10
10
10
10
10
10
10
10
10
10
10
10
10
10
10
10
10
10
10
10
10
10
10
10
10
10
10
10
10
10
10
10
10
10
10
10
10
10
10
10
10
10
10
10
10
10
10
10
10
10
10
10
10
10
10
10
10
10
10
10
10
10
10
10
10
10
10
10
10
10
10
10
10
10
10
10
10
10
10
10
10
10
10
10
10
10
10
10
10
10
10
10
10
10
10
10
10
10
10
10
10
10
10
10
10
10
10
10
10
10
10
10
10
10
10
10
10
10
10
10
10
10
10
10
10
10
10
10
10
10
10
10
10
10
10
10
10
10
10
10
10
10
10
10
10
10
10
10
10
10
10
10
10
10
10
10
10
10
10
10
10
10
10
10
10
10
10
10
10
10
10
10
10
10
10
10
10
10
10
10
10
10
10
10
10
10
10
10
10
10
10
10
10
10
10
10
10
10
10
10
10
10
10
10
10
10
10
10
10
10
10
10
10
10
10
10
10
10
10
10
10
10
10
10
10
10
10
10
10
10
10
10
10
10
10
10
10
10
10
10
10
10
10
10
10
10
10
10
10
10
10
10
10
10
10
10
10
10
10
10
10
10
10
10
10
10
10
10
10
10
10
10
10
10
10
10
10
10
10
10
10
10
10
10
10
10
10
10
10
10
10
10
10
10
10
10
10
10
10
10
10
10
10
10
10
10
10
10
10
10
10
10
10
10
10
10
10
10
10
10
10
10
10
10
10
10
10
10
10
10
10
10
10
10
10
10
10
10
10
10
10
10
10
10
10
10
10
10
10
10
10
10
10
10
10
10
10
10
10
10
10
10
10
10
10
10
10
10
10
10
10
10
10
10
10
10
10
10
10
10
10
10
10
10
10
10
10
10
10
10
10
10
10
10
10
10
10
10
10
10
10
10
10
10
10
10
10
10
10
10
10
10
10
10
10
10
10
10
10
10
10
10
10
10
10
10
10
10
10
10
10
10
10
10
10
10
10
10
10
10
10
CELL_DATA 596
TENSORS6 Cauchy_stress float
5e+08 5e+08 5e+08 4.79248e-14 345.371 -9.36189e-13 
5e+08 5e+08 5e+08 4.79248e-14 86.499 -9.36189e-13 
5e+08 5e+08 5.00001e+08 0 149.779 -9.3017e-13 
5e+08 5e+08 5.00001e+08 0 -77.6013 -9.3017e-13 
5e+08 5e+08 5.00001e+08 0 133.23 -9.36617e-13 
5e+08 5e+08 5.00001e+08 0 -130.901 -9.36617e-13 
5e+08 5e+08 5.00001e+08 0 102.167 -8.84072e-13 
5e+08 5.00001e+08 5.00001e+08 0 -413.639 -8.84072e-13 
5e+08 5e+08 5.00001e+08 0 321.544 -8.93539e-13 
5e+08 5e+08 5.00001e+08 0 1.6498 -8.93539e-13 
5e+08 5e+08 5.00001e+08 0 142.798 -9.41741e-13 
5e+08 5e+08 5.00001e+08 0 -99.8853 -9.41741e-13 
5e+08 5e+08 5.00001e+08 0 131.388 -9.32578e-13 
5e+08 5e+08 5.00001e+08 0 -136.656 -9.32578e-13 
5e+08 5e+08 5.00001e+08 0 101.074 -8.92783e-13 
5e+08 5.00001e+08 5.00001e+08 0 -415.052 -8.92783e-13 
5e+08 5e+08 5.00001e+08 0 321.15 -9.23062e-13 
5e+08 5e+08 5.00001e+08 0 0.993573 -9.23062e-13 
5e+08 5e+08 5.00001e+08 0 142.522 -9.3958e-13 
5e+08 5e+08 5.00001e+08 0 -100.174 -9.3958e-13 
5e+08 5e+08 5.00001e+08 0 131.213 -9.31732e-13 
5e+08 5e+08 5.00001e+08 0 -136.798 -9.31732e-13 
5e+08 5e+08 5.00001e+08 0 100.996 -9.131e-13 
5e+08 5.00001e+08 5.00001e+08 0 -415.043 -9.131e-13 
5e+08 5e+08 5.00001e+08 0 321.085 -9.25553e-13 
5e+08 5e+08 5.00001e+08 0 0.934954 -9.25553e-13 
5e+08 5e+08 5.00001e+08 0 142.5 -9.60214e-13 
5e+08 5e+08 5.00001e+08 0 -100.196 -9.60214e-13 
5e+08 5e+08 5.00001e+08 0 131.199 -9.77698e-13 
5e+08 5e+08 5.00001e+08 0 -136.804 -9.77698e-13 
5e+08 5e+08 5.00001e+08 0 100.994 -9.223e-13 
5e+08 5.00001e+08 5.00001e+08 0 -414.999 -9.223e-13 
5e+08 5e+08 5.00001e+08 0 321.052 -9.4714e-13 
5e+08 5e+08 5.00001e+08 0 0.913575 -9.4714e-13 
5e+08 5e+08 5.00001e+08 0 142.495 -9.97604e-13 
5e+08 5e+08 5.00001e+08 0 -100.201 -9.97604e-13 
5e+08 5e+08 5.00001e+08 0 131.196 -1.01735e-12 
5e+08 5e+08 5.00001e+08 0 -136.803 -1.01735e-12 
5e+08 5e+08 5.00001e+08 0 100.995 -9.29239e-13 
5e+08 5.00001e+08 5.00001e+08 0 -414.962 -9.29239e-13 
5e+08 5e+08 5.00001e+08 0 321.027 -9.61442e-13 
5e+08 5e+08 5.00001e+08 0 0.898056 -9.61442e-13 
5e+08 5e+08 5.00001e+08 0 142.492 -1.00044e-12 
5e+08 5e+08 5.00001e+08 0 -100.204 -1.00044e-12 
5e+08 5e+08 5.00001e+08 0 131.194 -9.84079e-13 
5e+08 5e+08 5.00001e+08 0 -136.802 -9.84079e-13 
5e+08 5e+08 5.00001e+08 0 100.997 -9.45118e-13 
5e+08 5.00001e+08 5.00001e+08 0 -414.932 -9.45118e-13 
5e+08 5e+08 5.00001e+08 0 321.008 -9.59296e-13 
5e+08 5e+08 5.00001e+08 0 0.885695 -9.59296e-13 
5e+08 5e+08 5.00001e+08 0 142.49 -9.80674e-13 
5e+08 5e+08 5.00001e+08 0 -100.206 -9.80674e-13 
5e+08 5e+08 5.00001e+08 0 131.192 -9.89274e-13 
5e+08 5e+08 5.00001e+08 0 -136.801 -9.89274e-13 
5e+08 5e+08 5.00001e+08 0 100.998 -9.46144e-13 
5e+08 5.00001e+08 5.00001e+08 0 -414.908 -9.46144e-13 
5e+08 5e+08 5.00001e+08 0 320.992 -9.90173e-13 
5e+08 5e+08 5.00001e+08 0 0.875702 -9.90173e-13 
5e+08 5e+08 5.00001e+08 0 142.488 -1.05714e-12 
5e+08 5e+08 5.00001e+08 0 -100.208 -1.05714e-12 
5e+08 5e+08 5.00001e+08 0 131.191 -1.03959e-12 
5e+08 5e+08 5.00001e+08 0 -136.8 -1.03959e-12 
5e+08 5e+08 5.00001e+08 0 100.999 -9.67353e-13 
5e+08 5.00001e+08 5.00001e+08 0 -414.888 -9.67353e-13 
5e+08 5e+08 5.00001e+08 0 320.979 -1.00704e-12 
5e+08 5e+08 5.00001e+08 0 0.867519 -1.00704e-12 
5e+08 5e+08 5.00001e+08 0 142.486 -1.06544e-12 
5e+08 5e+08 5.00001e+08 0 -100.21 -1.06544e-12 
5e+08 5e+08 5.00001e+08 0 131.19 -1.04167e-12 
5e+08 5e+08 5.00001e+08 0 -136.8 -1.04167e-12 
5e+08 5e+08 5.00001e+08 0 101 -9.77741e-13 
5e+08 5.00001e+08 5.00001e+08 0 -414.872 -9.77741e-13 
5e+08 5e+08 5.00001e+08 0 320.968 -1.01109e-12 
5e+08 5e+08 5.00001e+08 0 0.860699 -1.01109e-12 
5e+08 5e+08 5.00001e+08 0 142.485 -1.08177e-12 
5e+08 5e+08 5.00001e+08 0 -100.211 -1.08177e-12 
5e+08 5e+08 5.00001e+08 0 131.19 -1.05387e-12 
5e+08 5e+08 5.00001e+08 0 -136.799 -1.05387e-12 
5e+08 5e+08 5.00001e+08 0 101.001 -9.95606e-13 
5e+08 5.00001e+08 5.00001e+08 0 -414.859 -9.95606e-13 
5e+08 5e+08 5.00001e+08 0 320.959 -1.02478e-12 
5e+08 5e+08 5.00001e+08 0 0.854867 -1.02478e-12 
5e+08 5e+08 5.00001e+08 0 142.484 -1.09472e-12 
5e+08 5e+08 5.00001e+08 0 -100.212 -1.09472e-12 
5e+08 5e+08 5.00001e+08 0 131.189 -1.06743e-12 
5e+08 5e+08 5.00001e+08 0 -136.799 -1.06743e-12 
5e+08 5e+08 5.00001e+08 0 101.002 -9.82657e-13 
5e+08 5.00001e+08 5.00001e+08 0 -414.847 -9.82657e-13 
5e+08 5e+08 5.00001e+08 0 320.951 -1.02104e-12 
5e+08 5e+08 5.00001e+08 0 0.849702 -1.02104e-12 
5e+08 5e+08 5.00001e+08 0 142.483 -1.09584e-12 
5e+08 5e+08 5.00001e+08 0 -100.213 -1.09584e-12 
5e+08 5e+08 5.00001e+08 0 131.189 -1.0688e-12 
5e+08 5e+08 5.00001e+08 0 -136.799 -1.0688e-12 
5e+08 5e+08 5.00001e+08 0 101.003 -1.00644e-12 
5e+08 5.00001e+08 5.00001e+08 0 -414.836 -1.00644e-12 
5e+08 5e+08 5.00001e+08 0 320.944 -1.0294e-12 
5e+08 5e+08 5.00001e+08 0 0.844921 -1.0294e-12 
5e+08 5e+08 5.00001e+08 0 142.483 -1.0997e-12 
5e+08 5e+08 5.00001e+08 0 -100.214 -1.0997e-12 
5e+08 5e+08 5.00001e+08 0 131.189 -1.06848e-12 
5e+08 5e+08 5.00001e+08 0 -136.798 -1.06848e-12 
5e+08 5e+08 5.00001e+08 0 101.004 -9.99402e-13 
5e+08 5.00001e+08 5.00001e+08 0 -414.826 -9.99402e-13 
5e+08 5e+08 5.00001e+08 0 320.937 -1.03224e-12 
5e+08 5e+08 5.00001e+08 0 0.840261 -1.03224e-12 
5e+08 5e+08 5.00001e+08 0 142.482 -1.10393e-12 
5e+08 5e+08 5.00001e+08 0 -100.216 -1.10393e-12 
5e+08 5e+08 5.00001e+08 0 131.189 -1.07456e-12 
5e+08 5e+08 5.00001e+08 0 -136.798 -1.07456e-12 
5e+08 5e+08 5.00001e+08 0 101.005 -9.95298e-13 
5e+08 5.00001e+08 5.00001e+08 0 -414.816 -9.95298e-13 
5e+08 5e+08 5.00001e+08 0 320.931 -1.02868e-12 
5e+08 5e+08 5.00001e+08 0 0.835468 -1.02868e-12 
5e+08 5e+08 5.00001e+08 0 142.482 -1.09943e-12 
5e+08 5e+08 5.00001e+08 0 -100.217 -1.09943e-12 
5e+08 5e+08 5.00001e+08 0 131.189 -1.06532e-12 
5e+08 5e+08 5.00001e+08 0 -136.798 -1.06532e-12 
5e+08 5e+08 5.00001e+08 0 101.006 -1.00474e-12 
5e+08 5.00001e+08 5.00001e+08 0 -414.805 -1.00474e-12 
5e+08 5e+08 5.00001e+08 0 320.923 -1.02184e-12 
5e+08 5e+08 5.00001e+08 0 0.830277 -1.02184e-12 
5e+08 5e+08 5.00001e+08 0 142.482 -1.09722e-12 
5e+08 5e+08 5.00001e+08 0 -100.218 -1.09722e-12 
5e+08 5e+08 5.00001e+08 0 131.189 -1.06573e-12 
5e+08 5e+08 5.00001e+08 0 -136.798 -1.06573e-12 
5e+08 5e+08 5.00001e+08 0 101.008 -1.00729e-12 
5e+08 5.00001e+08 5.00001e+08 0 -414.794 -1.00729e-12 
5e+08 5e+08 5.00001e+08 0 320.915 -1.01578e-12 
5e+08 5e+08 5.00001e+08 0 0.824404 -1.01578e-12 
5e+08 5e+08 5.00001e+08 0 142.482 -1.07525e-12 
5e+08 5e+08 5.00001e+08 0 -100.22 -1.07525e-12 
5e+08 5e+08 5.00001e+08 0 131.19 -1.05057e-12 
5e+08 5e+08 5.00001e+08 0 -136.798 -1.05057e-12 
5e+08 5e+08 5.00001e+08 0 101.01 -9.87918e-13 
5e+08 5.00001e+08 5.00001e+08 0 -414.78 -9.87918e-13 
5e+08 5e+08 5.00001e+08 0 320.906 -1.00562e-12 
5e+08 5e+08 5.00001e+08 0 0.817527 -1.00562e-12 
5e+08 5e+08 5.00001e+08 0 142.482 -1.07839e-12 
5e+08 5e+08 5.00001e+08 0 -100.221 -1.07839e-12 
5e+08 5e+08 5.00001e+08 0 131.19 -1.03914e-12 
5e+08 5e+08 5.00001e+08 0 -136.798 -1.03914e-12 
5e+08 5e+08 5.00001e+08 0 101.012 -9.72155e-13 
5e+08 5.00001e+08 5.00001e+08 0 -414.764 -9.72155e-13 
5e+08 5e+08 5.00001e+08 0 320.895 -9.94491e-13 
5e+08 5e+08 5.00001e+08 0 0.809266 -9.94491e-13 
5e+08 5e+08 5.00001e+08 0 142.482 -1.02782e-12 
5e+08 5e+08 5.00001e+08 0 -100.224 -1.02782e-12 
5e+08 5e+08 5.00001e+08 0 131.191 -1.01452e-12 
5e+08 5e+08 5.00001e+08 0 -136.798 -1.01452e-12 
5e+08 5e+08 5.00001e+08 0 101.015 -9.6071e-13 
5e+08 5.00001e+08 5.00001e+08 0 -414.745 -9.6071e-13 
5e+08 5e+08 5.00001e+08 0 320.882 -9.92157e-13 
5e+08 5e+08 5.00001e+08 0 0.799149 -9.92157e-13 
5e+08 5e+08 5.00001e+08 0 142.482 -1.02543e-12 
5e+08 5e+08 5.00001e+08 0 -100.227 -1.02543e-12 
5e+08 5e+08 5.00001e+08 0 131.193 -1.01908e-12 
5e+08 5e+08 5.00001e+08 0 -136.798 -1.01908e-12 
5e+08 5e+08 5.00001e+08 0 101.019 -9.4232e-13 
5e+08 5.00001e+08 5.00001e+08 0 -414.721 -9.4232e-13 
5e+08 5e+08 5.00001e+08 0 320.866 -9.61157e-13 
5e+08 5e+08 5.00001e+08 0 0.786308 -9.61157e-13 
5e+08 5e+08 5.00001e+08 0 142.482 -9.94701e-13 
5e+08 5e+08 5.00001e+08 0 -100.231 -9.94701e-13 
5e+08 5e+08 5.00001e+08 0 131.193 -9.94084e-13 
5e+08 5e+08 5.00001e+08 0 -136.799 -9.94084e-13 
5e+08 5e+08 5.00001e+08 0 101.022 -9.0903e-13 
5e+08 5.00001e+08 5.00001e+08 0 -414.694 -9.0903e-13 
5e+08 5e+08 5.00001e+08 0 320.844 -9.43303e-13 
5e+08 5e+08 5.00001e+08 0 0.764905 -9.43303e-13 
5e+08 5e+08 5.00001e+08 0 142.475 -9.81681e-13 
5e+08 5e+08 5.00001e+08 0 -100.247 -9.81681e-13 
5e+08 5e+08 5.00001e+08 0 131.181 -9.70843e-13 
5e+08 5e+08 5.00001e+08 0 -136.822 -9.70843e-13 
5e+08 5e+08 5.00001e+08 0 101.006 -9.11968e-13 
5e+08 5.00001e+08 5.00001e+08 0 -414.705 -9.11968e-13 
5e+08 5e+08 5.00001e+08 0 320.788 -9.28129e-13 
5e+08 5e+08 5.00001e+08 0 0.649874 -9.28129e-13 
5e+08 5e+08 5.00001e+08 0 142.349 -9.86204e-13 
5e+08 5e+08 5.00001e+08 0 -100.454 -9.86204e-13 
5e+08 5e+08 5.00001e+08 0 130.949 -9.66903e-13 
5e+08 5e+08 5.00001e+08 0 -137.188 -9.66903e-13 
5e+08 5e+08 5.00001e+08 0 100.658 -8.99596e-13 
5e+08 5.00001e+08 5.00001e+08 0 -415.442 -8.99596e-13 
5e+08 5e+08 5.00001e+08 0 320.249 -9.17811e-13 
5e+08 5e+08 5.00001e+08 0 -0.939451 -9.17811e-13 
5e+08 5e+08 5.00001e+08 0 140.283 -9.56604e-13 
5e+08 5e+08 5.00001e+08 0 -103.759 -9.56604e-13 
5e+08 5e+08 5.00001e+08 0 127.11 -9.45332e-13 
5e+08 5e+08 5.00001e+08 0 -143.232 -9.45332e-13 
5e+08 5e+08 5.00001e+08 0 94.8712 -9.00332e-13 
5e+08 5.00001e+08 5.00001e+08 0 -428.405 -9.00332e-13 
5e+08 5e+08 5.00001e+08 0 312.181 -9.13571e-13 
5e+08 5e+08 5.00001e+08 0 -26.9094 -9.13571e-13 
5e+08 5e+08 5.00001e+08 0 108.468 -9.68042e-13 
5e+08 5e+08 5.00001e+08 0 -156.587 -9.68042e-13 
5e+08 5e+08 5.00001e+08 0 76.83 -9.82758e-13 
5e+08 5e+08 5.00001e+08 0 -221.171 -9.82758e-13 
5e+08 5e+08 5.00001e+08 0 72.6344 -9.74824e-13 
5e+08 5e+08 5.00001e+08 0 112.5 -9.74824e-13 
5e+08 5e+08 5e+08 -1.28594 108.979 0.755327 
5e+08 5e+08 5e+08 0.183195 50.2031 0.904162 
5e+08 5e+08 5e+08 1.28594 108.979 -0.755327 
5e+08 5e+08 5e+08 -0.183195 50.2031 -0.904162 
5e+08 5e+08 5e+08 0.698226 25.4478 0.67381 
5e+08 5e+08 5e+08 0.0473327 15.6625 1.15201 
5e+08 5e+08 5e+08 -0.698226 25.4478 -0.67381 
5e+08 5e+08 5e+08 -0.0473327 15.6625 -1.15201 
5e+08 5e+08 5e+08 3.81144 -13.789 -0.82029 
5e+08 5e+08 5e+08 -0.0115662 -25.7975 1.28543 
5e+08 5e+08 5e+08 -3.81144 -13.789 0.82029 
5e+08 5e+08 5e+08 0.0115662 -25.7975 -1.28543 
5e+08 5e+08 5e+08 5.66981 -35.4089 1.08939 
5e+08 5e+08 5e+08 -0.21277 10.6963 3.21486 
5e+08 5e+08 5e+08 -5.66981 -35.4089 -1.08939 
5e+08 5e+08 5e+08 0.21277 10.6963 -3.21486 
5e+08 5e+08 5e+08 -2.83876 64.2069 1.97593 
5e+08 5e+08 5e+08 0.160341 31.0784 1.03703 
5e+08 5e+08 5e+08 2.83876 64.2069 -1.97593 
5e+08 5e+08 5e+08 -0.160341 31.0784 -1.03703 
5e+08 5e+08 5e+08 -0.128961 13.6944 1.20506 
5e+08 5e+08 5e+08 0.041143 10.8154 1.18516 
5e+08 5e+08 5e+08 0.128961 13.6944 -1.20506 
5e+08 5e+08 5e+08 -0.041143 10.8154 -1.18516 
5e+08 5e+08 5e+08 3.27432 -17.4343 -0.530656 
5e+08 5e+08 5e+08 -0.00713507 -27.8225 1.29254 
5e+08 5e+08 5e+08 -3.27432 -17.4343 0.530656 
5e+08 5e+08 5e+08 0.00713507 -27.8225 -1.29254 
5e+08 5e+08 5e+08 5.28021 -36.1787 1.28189 
5e+08 5e+08 5e+08 -0.215451 10.0451 3.21877 
5e+08 5e+08 5e+08 -5.28021 -36.1787 -1.28189 
5e+08 5e+08 5e+08 0.215451 10.0451 -3.21877 
5e+08 5e+08 5e+08 -3.1813 63.6902 2.14813 
5e+08 5e+08 5e+08 0.161357 30.7098 1.03745 
5e+08 5e+08 5e+08 3.1813 63.6902 -2.14813 
5e+08 5e+08 5e+08 -0.161357 30.7098 -1.03745 
5e+08 5e+08 5e+08 -0.439938 13.4223 1.36028 
5e+08 5e+08 5e+08 0.0419399 10.591 1.18525 
5e+08 5e+08 5e+08 0.439938 13.4223 -1.36028 
5e+08 5e+08 5e+08 -0.0419399 10.591 -1.18525 
5e+08 5e+08 5e+08 2.98803 -17.5744 -0.38773 
5e+08 5e+08 5e+08 -0.00652743 -27.9338 1.29256 
5e+08 5e+08 5e+08 -2.98803 -17.5744 0.38773 
5e+08 5e+08 5e+08 0.00652743 -27.9338 -1.29256 
5e+08 5e+08 5e+08 5.01566 -36.2026 1.41319 
5e+08 5e+08 5e+08 -0.215531 10.0031 3.21858 
5e+08 5e+08 5e+08 -5.01566 -36.2026 -1.41319 
5e+08 5e+08 5e+08 0.215531 10.0031 -3.21858 
5e+08 5e+08 5e+08 -3.42785 63.6476 2.27156 
5e+08 5e+08 5e+08 0.161403 30.6785 1.03752 
5e+08 5e+08 5e+08 3.42785 63.6476 -2.27156 
5e+08 5e+08 5e+08 -0.161403 30.6785 -1.03752 
5e+08 5e+08 5e+08 -0.672013 13.4021 1.47631 
5e+08 5e+08 5e+08 0.0419913 10.5718 1.18528 
5e+08 5e+08 5e+08 0.672013 13.4021 -1.47631 
5e+08 5e+08 5e+08 -0.0419913 10.5718 -1.18528 
5e+08 5e+08 5e+08 2.76928 -17.5816 -0.278354 
5e+08 5e+08 5e+08 -0.00647652 -27.9399 1.29257 
5e+08 5e+08 5e+08 -2.76928 -17.5816 0.278354 
5e+08 5e+08 5e+08 0.00647652 -27.9399 -1.29257 
5e+08 5e+08 5e+08 4.80966 -36.1975 1.51572 
5e+08 5e+08 5e+08 -0.215521 9.99724 3.21831 
5e+08 5e+08 5e+08 -4.80966 -36.1975 -1.51572 
5e+08 5e+08 5e+08 0.215521 9.99724 -3.21831 
5e+08 5e+08 5e+08 -3.62058 63.6353 2.36803 
5e+08 5e+08 5e+08 0.161384 30.6696 1.03757 
5e+08 5e+08 5e+08 3.62058 63.6353 -2.36803 
5e+08 5e+08 5e+08 -0.161384 30.6696 -1.03757 
5e+08 5e+08 5e+08 -0.853831 13.3979 1.56722 
5e+08 5e+08 5e+08 0.0419949 10.5663 1.1853 
5e+08 5e+08 5e+08 0.853831 13.3979 -1.56722 
5e+08 5e+08 5e+08 -0.0419949 10.5663 -1.1853 
5e+08 5e+08 5e+08 2.59769 -17.5809 -0.192549 
5e+08 5e+08 5e+08 -0.00646283 -27.9396 1.29258 
5e+08 5e+08 5e+08 -2.59769 -17.5809 0.192549 
5e+08 5e+08 5e+08 0.00646283 -27.9396 -1.29258 
5e+08 5e+08 5e+08 4.64796 -36.1919 1.59622 
5e+08 5e+08 5e+08 -0.215508 9.99425 3.21808 
5e+08 5e+08 5e+08 -4.64796 -36.1919 -1.59622 
5e+08 5e+08 5e+08 0.215508 9.99425 -3.21808 
5e+08 5e+08 5e+08 -3.77176 63.6268 2.4437 
5e+08 5e+08 5e+08 0.161366 30.6635 1.0376 
5e+08 5e+08 5e+08 3.77176 63.6268 -2.4437 
5e+08 5e+08 5e+08 -0.161366 30.6635 -1.0376 
5e+08 5e+08 5e+08 -0.996335 13.3954 1.63848 
5e+08 5e+08 5e+08 0.0419954 10.5626 1.18532 
5e+08 5e+08 5e+08 0.996335 13.3954 -1.63848 
5e+08 5e+08 5e+08 -0.0419954 10.5626 -1.18532 
5e+08 5e+08 5e+08 2.46333 -17.5799 -0.125363 
5e+08 5e+08 5e+08 -0.00645367 -27.939 1.29258 
5e+08 5e+08 5e+08 -2.46333 -17.5799 0.125363 
5e+08 5e+08 5e+08 0.00645367 -27.939 -1.29258 
5e+08 5e+08 5e+08 4.5215 -36.1874 1.65916 
5e+08 5e+08 5e+08 -0.215497 9.99198 3.2179 
5e+08 5e+08 5e+08 -4.5215 -36.1874 -1.65916 
5e+08 5e+08 5e+08 0.215497 9.99198 -3.2179 
5e+08 5e+08 5e+08 -3.88979 63.6202 2.50278 
5e+08 5e+08 5e+08 0.161351 30.6587 1.03763 
5e+08 5e+08 5e+08 3.88979 63.6202 -2.50278 
5e+08 5e+08 5e+08 -0.161351 30.6587 -1.03763 
5e+08 5e+08 5e+08 -1.10741 13.3934 1.69403 
5e+08 5e+08 5e+08 0.0419956 10.5597 1.18533 
5e+08 5e+08 5e+08 1.10741 13.3934 -1.69403 
5e+08 5e+08 5e+08 -0.0419956 10.5597 -1.18533 
5e+08 5e+08 5e+08 2.35881 -17.5791 -0.0730952 
5e+08 5e+08 5e+08 -0.0064466 -27.9384 1.29259 
5e+08 5e+08 5e+08 -2.35881 -17.5791 0.0730952 
5e+08 5e+08 5e+08 0.0064466 -27.9384 -1.29259 
5e+08 5e+08 5e+08 4.42334 -36.1838 1.70802 
5e+08 5e+08 5e+08 -0.215488 9.99019 3.21776 
5e+08 5e+08 5e+08 -4.42334 -36.1838 -1.70802 
5e+08 5e+08 5e+08 0.215488 9.99019 -3.21776 
5e+08 5e+08 5e+08 -3.98116 63.6148 2.54852 
5e+08 5e+08 5e+08 0.161339 30.655 1.03766 
5e+08 5e+08 5e+08 3.98116 63.6148 -2.54852 
5e+08 5e+08 5e+08 -0.161339 30.655 -1.03766 
5e+08 5e+08 5e+08 -1.19314 13.3918 1.7369 
5e+08 5e+08 5e+08 0.0419956 10.5574 1.18534 
5e+08 5e+08 5e+08 1.19314 13.3918 -1.7369 
5e+08 5e+08 5e+08 -0.0419956 10.5574 -1.18534 
5e+08 5e+08 5e+08 2.27839 -17.5784 -0.0328745 
5e+08 5e+08 5e+08 -0.0064411 -27.9378 1.29259 
5e+08 5e+08 5e+08 -2.27839 -17.5784 0.0328745 
5e+08 5e+08 5e+08 0.0064411 -27.9378 -1.29259 
5e+08 5e+08 5e+08 4.34807 -36.1809 1.74547 
5e+08 5e+08 5e+08 -0.21548 9.98879 3.21764 
5e+08 5e+08 5e+08 -4.34807 -36.1809 -1.74547 
5e+08 5e+08 5e+08 0.21548 9.98879 -3.21764 
5e+08 5e+08 5e+08 -4.05088 63.6104 2.58343 
5e+08 5e+08 5e+08 0.161329 30.6519 1.03768 
5e+08 5e+08 5e+08 4.05088 63.6104 -2.58343 
5e+08 5e+08 5e+08 -0.161329 30.6519 -1.03768 
5e+08 5e+08 5e+08 -1.25826 13.3905 1.76946 
5e+08 5e+08 5e+08 0.0419955 10.5556 1.18535 
5e+08 5e+08 5e+08 1.25826 13.3905 -1.76946 
5e+08 5e+08 5e+08 -0.0419955 10.5556 -1.18535 
5e+08 5e+08 5e+08 2.21764 -17.5778 -0.00249343 
5e+08 5e+08 5e+08 -0.00643687 -27.9373 1.29259 
5e+08 5e+08 5e+08 -2.21764 -17.5778 0.00249343 
5e+08 5e+08 5e+08 0.00643687 -27.9373 -1.29259 
5e+08 5e+08 5e+08 4.29158 -36.1785 1.77356 
5e+08 5e+08 5e+08 -0.215473 9.98768 3.21754 
5e+08 5e+08 5e+08 -4.29158 -36.1785 -1.77356 
5e+08 5e+08 5e+08 0.215473 9.98768 -3.21754 
5e+08 5e+08 5e+08 -4.10277 63.6068 2.60941 
5e+08 5e+08 5e+08 0.161321 30.6495 1.03769 
5e+08 5e+08 5e+08 4.10277 63.6068 -2.60941 
5e+08 5e+08 5e+08 -0.161321 30.6495 -1.03769 
5e+08 5e+08 5e+08 -1.30631 13.3895 1.7935 
5e+08 5e+08 5e+08 0.0419952 10.5542 1.18536 
5e+08 5e+08 5e+08 1.30631 13.3895 -1.7935 
5e+08 5e+08 5e+08 -0.0419952 10.5542 -1.18536 
5e+08 5e+08 5e+08 2.17323 -17.5773 0.0197156 
5e+08 5e+08 5e+08 -0.00643367 -27.9367 1.2926 
5e+08 5e+08 5e+08 -2.17323 -17.5773 -0.0197156 
5e+08 5e+08 5e+08 0.00643367 -27.9367 -1.2926 
5e+08 5e+08 5e+08 4.25076 -36.1765 1.79385 
5e+08 5e+08 5e+08 -0.215467 9.98681 3.21745 
5e+08 5e+08 5e+08 -4.25076 -36.1765 -1.79385 
5e+08 5e+08 5e+08 0.215467 9.98681 -3.21745 
5e+08 5e+08 5e+08 -4.13969 63.6037 2.6279 
5e+08 5e+08 5e+08 0.161314 30.6476 1.03771 
5e+08 5e+08 5e+08 4.13969 63.6037 -2.6279 
5e+08 5e+08 5e+08 -0.161314 30.6476 -1.03771 
5e+08 5e+08 5e+08 -1.33995 13.3887 1.81032 
5e+08 5e+08 5e+08 0.0419948 10.5532 1.18536 
5e+08 5e+08 5e+08 1.33995 13.3887 -1.81032 
5e+08 5e+08 5e+08 -0.0419948 10.5532 -1.18536 
5e+08 5e+08 5e+08 2.14273 -17.5768 0.0349713 
5e+08 5e+08 5e+08 -0.00643133 -27.9361 1.2926 
5e+08 5e+08 5e+08 -2.14273 -17.5768 -0.0349713 
5e+08 5e+08 5e+08 0.00643133 -27.9361 -1.2926 
5e+08 5e+08 5e+08 4.22337 -36.1749 1.80743 
5e+08 5e+08 5e+08 -0.21546 9.98614 3.21738 
5e+08 5e+08 5e+08 -4.22337 -36.1749 -1.80743 
5e+08 5e+08 5e+08 0.21546 9.98614 -3.21738 
5e+08 5e+08 5e+08 -4.16366 63.6011 2.63992 
5e+08 5e+08 5e+08 0.161308 30.646 1.03772 
5e+08 5e+08 5e+08 4.16366 63.6011 -2.63992 
5e+08 5e+08 5e+08 -0.161308 30.646 -1.03772 
5e+08 5e+08 5e+08 -1.36103 13.388 1.82086 
5e+08 5e+08 5e+08 0.0419941 10.5524 1.18537 
5e+08 5e+08 5e+08 1.36103 13.388 -1.82086 
5e+08 5e+08 5e+08 -0.0419941 10.5524 -1.18537 
5e+08 5e+08 5e+08 2.12446 -17.5762 0.0441113 
5e+08 5e+08 5e+08 -0.00642972 -27.9354 1.2926 
5e+08 5e+08 5e+08 -2.12446 -17.5762 -0.0441113 
5e+08 5e+08 5e+08 0.00642972 -27.9354 -1.2926 
5e+08 5e+08 5e+08 4.2079 -36.1735 1.81507 
5e+08 5e+08 5e+08 -0.215453 9.98562 3.21731 
5e+08 5e+08 5e+08 -4.2079 -36.1735 -1.81507 
5e+08 5e+08 5e+08 0.215453 9.98562 -3.21731 
5e+08 5e+08 5e+08 -4.176 63.5987 2.64611 
5e+08 5e+08 5e+08 0.161303 30.6447 1.03773 
5e+08 5e+08 5e+08 4.176 63.5987 -2.64611 
5e+08 5e+08 5e+08 -0.161303 30.6447 -1.03773 
5e+08 5e+08 5e+08 -1.37069 13.3874 1.8257 
5e+08 5e+08 5e+08 0.0419932 10.5519 1.18537 
5e+08 5e+08 5e+08 1.37069 13.3874 -1.8257 
5e+08 5e+08 5e+08 -0.0419932 10.5519 -1.18537 
5e+08 5e+08 5e+08 2.11742 -17.5757 0.0476371 
5e+08 5e+08 5e+08 -0.00642875 -27.9345 1.2926 
5e+08 5e+08 5e+08 -2.11742 -17.5757 -0.0476371 
5e+08 5e+08 5e+08 0.00642875 -27.9345 -1.2926 
5e+08 5e+08 5e+08 4.20352 -36.1722 1.81717 
5e+08 5e+08 5e+08 -0.215445 9.98522 3.21724 
5e+08 5e+08 5e+08 -4.20352 -36.1722 -1.81717 
5e+08 5e+08 5e+08 0.215445 9.98522 -3.21724 
5e+08 5e+08 5e+08 -4.17738 63.5964 2.64683 
5e+08 5e+08 5e+08 0.161297 30.6436 1.03774 
5e+08 5e+08 5e+08 4.17738 63.5964 -2.64683 
5e+08 5e+08 5e+08 -0.161297 30.6436 -1.03774 
5e+08 5e+08 5e+08 -1.36947 13.387 1.82509 
5e+08 5e+08 5e+08 0.041992 10.5515 1.18538 
5e+08 5e+08 5e+08 1.36947 13.387 -1.82509 
5e+08 5e+08 5e+08 -0.041992 10.5515 -1.18538 
5e+08 5e+08 5e+08 2.12123 -17.575 0.0457424 
5e+08 5e+08 5e+08 -0.00642836 -27.9334 1.2926 
5e+08 5e+08 5e+08 -2.12123 -17.575 -0.0457424 
5e+08 5e+08 5e+08 0.00642836 -27.9334 -1.2926 
5e+08 5e+08 5e+08 4.20997 -36.171 1.81385 
5e+08 5e+08 5e+08 -0.215436 9.98493 3.21717 
5e+08 5e+08 5e+08 -4.20997 -36.171 -1.81385 
5e+08 5e+08 5e+08 0.215436 9.98493 -3.21717 
5e+08 5e+08 5e+08 -4.16788 63.5942 2.64211 
5e+08 5e+08 5e+08 0.161292 30.6427 1.03775 
5e+08 5e+08 5e+08 4.16788 63.5942 -2.64211 
5e+08 5e+08 5e+08 -0.161292 30.6427 -1.03775 
5e+08 5e+08 5e+08 -1.3573 13.3865 1.81902 
5e+08 5e+08 5e+08 0.0419905 10.5514 1.18538 
5e+08 5e+08 5e+08 1.3573 13.3865 -1.81902 
5e+08 5e+08 5e+08 -0.0419905 10.5514 -1.18538 
5e+08 5e+08 5e+08 2.13608 -17.5743 0.0383231 
5e+08 5e+08 5e+08 -0.00642855 -27.9321 1.2926 
5e+08 5e+08 5e+08 -2.13608 -17.5743 -0.0383231 
5e+08 5e+08 5e+08 0.00642855 -27.9321 -1.2926 
5e+08 5e+08 5e+08 4.22761 -36.1698 1.80493 
5e+08 5e+08 5e+08 -0.215426 9.98473 3.2171 
5e+08 5e+08 5e+08 -4.22761 -36.1698 -1.80493 
5e+08 5e+08 5e+08 0.215426 9.98473 -3.2171 
5e+08 5e+08 5e+08 -4.14699 63.5918 2.63169 
5e+08 5e+08 5e+08 0.161286 30.6418 1.03776 
5e+08 5e+08 5e+08 4.14699 63.5918 -2.63169 
5e+08 5e+08 5e+08 -0.161286 30.6418 -1.03776 
5e+08 5e+08 5e+08 -1.33351 13.3861 1.80713 
5e+08 5e+08 5e+08 0.0419885 10.5514 1.18538 
5e+08 5e+08 5e+08 1.33351 13.3861 -1.80713 
5e+08 5e+08 5e+08 -0.0419885 10.5514 -1.18538 
5e+08 5e+08 5e+08 2.16281 -17.5735 0.0249717 
5e+08 5e+08 5e+08 -0.00642931 -27.9305 1.2926 
5e+08 5e+08 5e+08 -2.16281 -17.5735 -0.0249717 
5e+08 5e+08 5e+08 0.00642931 -27.9305 -1.2926 
5e+08 5e+08 5e+08 4.2574 -36.1685 1.78993 
5e+08 5e+08 5e+08 -0.215413 9.9846 3.21701 
5e+08 5e+08 5e+08 -4.2574 -36.1685 -1.78993 
5e+08 5e+08 5e+08 0.215413 9.9846 -3.21701 
5e+08 5e+08 5e+08 -4.11354 63.5891 2.615 
5e+08 5e+08 5e+08 0.16128 30.641 1.03777 
5e+08 5e+08 5e+08 4.11354 63.5891 -2.615 
5e+08 5e+08 5e+08 -0.16128 30.641 -1.03777 
5e+08 5e+08 5e+08 -1.2968 13.3858 1.78879 
5e+08 5e+08 5e+08 0.0419859 10.5515 1.18539 
5e+08 5e+08 5e+08 1.2968 13.3858 -1.78879 
5e+08 5e+08 5e+08 -0.0419859 10.5515 -1.18539 
5e+08 5e+08 5e+08 2.20286 -17.5724 0.00495594 
5e+08 5e+08 5e+08 -0.00643069 -27.9285 1.2926 
5e+08 5e+08 5e+08 -2.20286 -17.5724 -0.00495594 
5e+08 5e+08 5e+08 0.00643069 -27.9285 -1.2926 
5e+08 5e+08 5e+08 4.301 -36.1671 1.76801 
5e+08 5e+08 5e+08 -0.215397 9.98455 3.21692 
5e+08 5e+08 5e+08 -4.301 -36.1671 -1.76801 
5e+08 5e+08 5e+08 0.215397 9.98455 -3.21692 
5e+08 5e+08 5e+08 -4.06571 63.5861 2.59113 
5e+08 5e+08 5e+08 0.161272 30.6402 1.03778 
5e+08 5e+08 5e+08 4.06571 63.5861 -2.59113 
5e+08 5e+08 5e+08 -0.161272 30.6402 -1.03778 
5e+08 5e+08 5e+08 -1.24515 13.3854 1.76298 
5e+08 5e+08 5e+08 0.0419828 10.5519 1.18539 
5e+08 5e+08 5e+08 1.24515 13.3854 -1.76298 
5e+08 5e+08 5e+08 -0.0419828 10.5519 -1.18539 
5e+08 5e+08 5e+08 2.25846 -17.5711 -0.0228233 
5e+08 5e+08 5e+08 -0.00643276 -27.9259 1.2926 
5e+08 5e+08 5e+08 -2.25846 -17.5711 0.0228233 
5e+08 5e+08 5e+08 0.00643276 -27.9259 -1.2926 
5e+08 5e+08 5e+08 4.36078 -36.1654 1.73797 
5e+08 5e+08 5e+08 -0.215378 9.98456 3.2168 
5e+08 5e+08 5e+08 -4.36078 -36.1654 -1.73797 
5e+08 5e+08 5e+08 0.215378 9.98456 -3.2168 
5e+08 5e+08 5e+08 -4.00088 63.5825 2.55876 
5e+08 5e+08 5e+08 0.161263 30.6393 1.03779 
5e+08 5e+08 5e+08 4.00088 63.5825 -2.55876 
5e+08 5e+08 5e+08 -0.161263 30.6393 -1.03779 
5e+08 5e+08 5e+08 -1.17574 13.3849 1.72828 
5e+08 5e+08 5e+08 0.0419787 10.5524 1.1854 
5e+08 5e+08 5e+08 1.17574 13.3849 -1.72828 
5e+08 5e+08 5e+08 -0.0419787 10.5524 -1.1854 
5e+08 5e+08 5e+08 2.33263 -17.5695 -0.0598901 
5e+08 5e+08 5e+08 -0.00643569 -27.9227 1.2926 
5e+08 5e+08 5e+08 -2.33263 -17.5695 0.0598901 
5e+08 5e+08 5e+08 0.00643569 -27.9227 -1.2926 
5e+08 5e+08 5e+08 4.44003 -36.1635 1.69817 
5e+08 5e+08 5e+08 -0.215354 9.98464 3.21665 
5e+08 5e+08 5e+08 -4.44003 -36.1635 -1.69817 
5e+08 5e+08 5e+08 0.215354 9.98464 -3.21665 
5e+08 5e+08 5e+08 -3.91548 63.578 2.51612 
5e+08 5e+08 5e+08 0.161252 30.6384 1.03781 
5e+08 5e+08 5e+08 3.91548 63.578 -2.51612 
5e+08 5e+08 5e+08 -0.161252 30.6384 -1.03781 
5e+08 5e+08 5e+08 -1.08474 13.3844 1.6828 
5e+08 5e+08 5e+08 0.041973 10.5531 1.18541 
5e+08 5e+08 5e+08 1.08474 13.3844 -1.6828 
5e+08 5e+08 5e+08 -0.041973 10.5531 -1.18541 
5e+08 5e+08 5e+08 2.42945 -17.5676 -0.108276 
5e+08 5e+08 5e+08 -0.00644038 -27.9188 1.2926 
5e+08 5e+08 5e+08 -2.42945 -17.5676 0.108276 
5e+08 5e+08 5e+08 0.00644038 -27.9188 -1.2926 
5e+08 5e+08 5e+08 4.54308 -36.1611 1.64643 
5e+08 5e+08 5e+08 -0.215328 9.98464 3.21648 
5e+08 5e+08 5e+08 -4.54308 -36.1611 -1.64643 
5e+08 5e+08 5e+08 0.215328 9.98464 -3.21648 
5e+08 5e+08 5e+08 -3.80486 63.5725 2.46088 
5e+08 5e+08 5e+08 0.161234 30.6368 1.03783 
5e+08 5e+08 5e+08 3.80486 63.5725 -2.46088 
5e+08 5e+08 5e+08 -0.161234 30.6368 -1.03783 
5e+08 5e+08 5e+08 -0.967222 13.3834 1.62407 
5e+08 5e+08 5e+08 0.0419589 10.5532 1.18542 
5e+08 5e+08 5e+08 0.967222 13.3834 -1.62407 
5e+08 5e+08 5e+08 -0.0419589 10.5532 -1.18542 
5e+08 5e+08 5e+08 2.55415 -17.5657 -0.170588 
5e+08 5e+08 5e+08 -0.00645931 -27.9155 1.2926 
5e+08 5e+08 5e+08 -2.55415 -17.5657 0.170588 
5e+08 5e+08 5e+08 0.00645931 -27.9155 -1.2926 
5e+08 5e+08 5e+08 4.67546 -36.1573 1.57997 
5e+08 5e+08 5e+08 -0.215356 9.98229 3.21629 
5e+08 5e+08 5e+08 -4.67546 -36.1573 -1.57997 
5e+08 5e+08 5e+08 0.215356 9.98229 -3.21629 
5e+08 5e+08 5e+08 -3.66344 63.5627 2.39028 
5e+08 5e+08 5e+08 0.161142 30.628 1.0379 
5e+08 5e+08 5e+08 3.66344 63.5627 -2.39028 
5e+08 5e+08 5e+08 -0.161142 30.628 -1.0379 
5e+08 5e+08 5e+08 -0.817658 13.3756 1.54935 
5e+08 5e+08 5e+08 0.0418261 10.5396 1.1855 
5e+08 5e+08 5e+08 0.817658 13.3756 -1.54935 
5e+08 5e+08 5e+08 -0.0418261 10.5396 -1.1855 
5e+08 5e+08 5e+08 2.71202 -17.5733 -0.249433 
5e+08 5e+08 5e+08 -0.00669336 -27.9375 1.29278 
5e+08 5e+08 5e+08 -2.71202 -17.5733 0.249433 
5e+08 5e+08 5e+08 0.00669336 -27.9375 -1.29278 
5e+08 5e+08 5e+08 4.84209 -36.1385 1.49633 
5e+08 5e+08 5e+08 -0.2164 9.94046 3.21667 
5e+08 5e+08 5e+08 -4.84209 -36.1385 -1.49633 
5e+08 5e+08 5e+08 0.2164 9.94046 -3.21667 
5e+08 5e+08 5e+08 -3.49159 63.5046 2.30471 
5e+08 5e+08 5e+08 0.159896 30.5027 1.03852 
5e+08 5e+08 5e+08 3.49159 63.5046 -2.30471 
5e+08 5e+08 5e+08 -0.159896 30.5027 -1.03852 
5e+08 5e+08 5e+08 -0.642867 13.2587 1.46237 
5e+08 5e+08 5e+08 0.0397783 10.2952 1.18665 
5e+08 5e+08 5e+08 0.642867 13.2587 -1.46237 
5e+08 5e+08 5e+08 -0.0397783 10.2952 -1.18665 
5e+08 5e+08 5e+08 2.88669 -17.7441 -0.335855 
5e+08 5e+08 5e+08 -0.0104233 -28.3944 1.29573 
5e+08 5e+08 5e+08 -2.88669 -17.7441 0.335855 
5e+08 5e+08 5e+08 0.0104233 -28.3944 -1.29573 
5e+08 5e+08 5e+08 5.01384 -35.8864 1.41017 
5e+08 5e+08 5e+08 -0.234203 9.25098 3.22708 
5e+08 5e+08 5e+08 -5.01384 -35.8864 -1.41017 
5e+08 5e+08 5e+08 0.234203 9.25098 -3.22708 
5e+08 5e+08 5e+08 -3.41289 62.6816 2.26936 
5e+08 5e+08 5e+08 0.139808 28.4752 1.04818 
5e+08 5e+08 5e+08 3.41289 62.6816 -2.26936 
5e+08 5e+08 5e+08 -0.139808 28.4752 -1.04818 
5e+08 5e+08 5e+08 -0.678914 11.3632 1.48671 
5e+08 5e+08 5e+08 0.00625126 6.26075 1.20537 
5e+08 5e+08 5e+08 0.678914 11.3632 -1.48671 
5e+08 5e+08 5e+08 -0.00625126 6.26075 -1.20537 
5e+08 5e+08 5e+08 2.67875 -20.5643 -0.217013 
5e+08 5e+08 5e+08 -0.0723174 -36.0383 1.34525 
5e+08 5e+08 5e+08 -2.67875 -20.5643 0.217013 
5e+08 5e+08 5e+08 0.0723174 -36.0383 -1.34525 
5e+08 5e+08 5e+08 4.57953 -31.5894 1.63321 
5e+08 5e+08 5e+08 -0.530456 -2.20139 3.40905 
5e+08 5e+08 5e+08 -4.57953 -31.5894 -1.63321 
5e+08 5e+08 5e+08 0.530456 -2.20139 -3.40905 
5e+08 5e+08 5e+08 -5.55913 51.1243 3.42361 
5e+08 5e+08 5e+08 -0.206897 -4.96993 1.23783 
5e+08 5e+08 5e+08 5.55913 51.1243 -3.42361 
5e+08 5e+08 5e+08 0.206897 -4.96993 -1.23783 
5e+08 5e+08 5e+08 -4.72579 -9.75972 3.68826 
5e+08 5e+08 5.00001e+08 -0.602375 -58.6272 1.65576 
5e+08 5e+08 5e+08 4.72579 -9.75972 -3.68826 
5e+08 5e+08 5.00001e+08 0.602375 -58.6272 -1.65576 
5e+08 5e+08 5e+08 -3.46061 -15.2699 3.36237 
5e+08 5e+08 5.00001e+08 -1.17997 -141.816 2.73449 
5e+08 5e+08 5e+08 3.46061 -15.2699 -3.36237 
5e+08 5e+08 5.00001e+08 1.17997 -141.816 -2.73449 
TENSORS6 error float
-27.5548 -40.8462 -28.0751 1.71469e-14 137.627 -1.42136e-13 
45.8516 78.694 35.8734 2.82769e-14 -58.0125 -2.89435e-13 
176.197 183.585 256.945 8.05744e-16 93.0255 -5.35696e-13 
141.496 143.84 209.938 8.85542e-16 -116.988 -5.31866e-13 
166.831 173.107 244.036 1.0371e-15 125.944 -5.30112e-13 
168.397 180.63 240.526 6.17188e-15 -127.948 -5.32943e-13 
234.7 202.031 384.757 1.18715e-14 158.2 1.476e-12 
386.646 379.255 587.572 6.04287e-15 -356.205 4.10395e-12 
296.48 313.149 427.892 -6.43669e-15 274.448 7.25537e-12 
170.224 164.286 261.114 -7.93549e-15 -65.3018 4.63091e-12 
176.322 182.804 258.049 -8.02074e-15 108.835 -5.34895e-13 
154.753 156.954 229.941 -4.19047e-15 -123.245 -5.44554e-13 
166.709 173.032 243.81 5.25062e-15 130.17 -5.49973e-13 
172.041 184.851 245.399 7.8874e-15 -129.266 -5.3858e-13 
235.143 202.729 385.168 8.75678e-15 159.054 -4.49808e-13 
390.081 384.313 591.089 2.92811e-15 -356.236 -4.06121e-13 
295.356 311.216 427.017 -8.12524e-15 274.675 -3.78749e-13 
170.806 164.968 261.877 -7.76441e-15 -65.4177 -4.24768e-13 
176.381 182.896 258.105 -4.46655e-15 108.915 -5.29311e-13 
155.02 157.35 230.204 -1.10812e-15 -123.229 -5.27868e-13 
166.761 173.105 243.867 6.00047e-15 130.19 -5.19777e-13 
172.204 185.091 245.555 6.69436e-15 -129.242 -5.21526e-13 
235.176 202.793 385.189 6.05644e-15 159.053 -4.72075e-13 
390.26 384.609 591.231 3.44742e-15 -356.172 -4.2328e-13 
295.261 311.064 426.929 -3.20105e-15 274.652 -3.69434e-13 
170.845 165.013 261.921 -5.13006e-15 -65.4325 -4.11123e-13 
176.386 182.903 258.111 -8.11787e-15 108.922 -5.21046e-13 
155.043 157.377 230.225 -7.03541e-15 -123.227 -5.17909e-13 
166.767 173.112 243.874 -8.12652e-16 130.19 -5.40445e-13 
172.218 185.106 245.568 4.71071e-15 -129.238 -5.56807e-13 
235.172 202.797 385.175 1.08338e-14 159.048 -5.03168e-13 
390.25 384.609 591.199 4.61652e-15 -356.132 -4.48767e-13 
295.234 311.029 426.897 -8.73759e-15 274.629 -4.0075e-13 
170.85 165.016 261.923 -1.04099e-14 -65.4409 -4.54651e-13 
176.387 182.904 258.113 -1.08625e-14 108.925 -6.05688e-13 
155.049 157.381 230.23 -7.05999e-15 -123.225 -6.07825e-13 
166.769 173.115 243.878 4.91648e-15 130.19 -6.25379e-13 
172.222 185.106 245.571 1.10227e-14 -129.236 -6.18385e-13 
235.167 202.796 385.161 1.70563e-14 159.044 -4.92743e-13 
390.232 384.594 591.165 9.1737e-15 -356.102 -4.39424e-13 
295.216 311.006 426.874 -6.91974e-15 274.611 -3.90517e-13 
170.853 165.016 261.923 -7.93976e-15 -65.4475 -4.36758e-13 
176.388 182.904 258.114 -7.35583e-15 108.927 -5.68439e-13 
155.054 157.383 230.233 -3.85862e-15 -123.224 -5.75989e-13 
166.771 173.117 243.881 5.09611e-15 130.189 -5.77324e-13 
172.224 185.106 245.573 7.88554e-15 -129.234 -5.75326e-13 
235.162 202.796 385.151 9.87425e-15 159.04 -5.00291e-13 
390.218 384.581 591.136 5.26683e-15 -356.078 -4.51302e-13 
295.202 310.989 426.856 -4.4344e-15 274.596 -3.926e-13 
170.855 165.017 261.923 -5.31911e-15 -65.4527 -4.28572e-13 
176.388 182.904 258.115 -4.88296e-15 108.929 -5.17048e-13 
155.057 157.385 230.236 -1.99638e-15 -123.223 -5.16549e-13 
166.773 173.118 243.884 5.40119e-15 130.189 -5.23768e-13 
172.226 185.106 245.574 7.77429e-15 -129.233 -5.24739e-13 
235.159 202.795 385.142 7.94594e-15 159.037 -4.59474e-13 
390.205 384.57 591.113 2.06175e-15 -356.058 -4.16009e-13 
295.19 310.975 426.842 -1.19862e-14 274.584 -4.02458e-13 
170.856 165.017 261.923 -1.54574e-14 -65.457 -4.49531e-13 
176.388 182.904 258.116 -1.57409e-14 108.93 -6.11568e-13 
155.06 157.386 230.238 -7.08116e-15 -123.223 -6.25557e-13 
166.774 173.119 243.885 1.16356e-14 130.189 -6.33068e-13 
172.228 185.106 245.575 1.40989e-14 -129.232 -6.22215e-13 
235.155 202.795 385.135 1.36542e-14 159.035 -4.99888e-13 
390.195 384.561 591.094 6.60427e-15 -356.042 -4.47319e-13 
295.181 310.963 426.83 -9.89698e-15 274.574 -4.1222e-13 
170.857 165.017 261.923 -1.35902e-14 -65.4606 -4.63013e-13 
176.389 182.904 258.116 -1.4606e-14 108.931 -6.23751e-13 
155.062 157.387 230.24 -6.33487e-15 -123.223 -6.3613e-13 
166.775 173.12 243.887 1.15777e-14 130.188 -6.34368e-13 
172.229 185.106 245.576 1.3937e-14 -129.231 -6.23405e-13 
235.153 202.794 385.129 1.3326e-14 159.033 -5.06727e-13 
390.187 384.553 591.078 6.44266e-15 -356.029 -4.53492e-13 
295.173 310.954 426.82 -9.92172e-15 274.566 -4.12611e-13 
170.858 165.017 261.923 -1.37106e-14 -65.4636 -4.63293e-13 
176.389 182.904 258.117 -1.4869e-14 108.932 -6.33059e-13 
155.063 157.388 230.241 -6.54229e-15 -123.222 -6.44828e-13 
166.775 173.12 243.888 1.1449e-14 130.188 -6.39849e-13 
172.23 185.105 245.577 1.38984e-14 -129.23 -6.28969e-13 
235.15 202.794 385.123 1.34963e-14 159.031 -5.16027e-13 
390.179 384.546 591.064 6.50192e-15 -356.018 -4.61932e-13 
295.167 310.946 426.812 -9.94812e-15 274.56 -4.17305e-13 
170.858 165.018 261.923 -1.37281e-14 -65.4662 -4.68875e-13 
176.389 182.904 258.117 -1.49393e-14 108.933 -6.39255e-13 
155.065 157.389 230.242 -6.6126e-15 -123.222 -6.51134e-13 
166.776 173.121 243.889 1.14591e-14 130.188 -6.48609e-13 
172.231 185.105 245.578 1.39571e-14 -129.23 -6.39811e-13 
235.148 202.793 385.119 1.35795e-14 159.03 -5.0957e-13 
390.171 384.539 591.052 6.5296e-15 -356.009 -4.56473e-13 
295.161 310.94 426.805 -1.00386e-14 274.554 -4.17778e-13 
170.859 165.018 261.923 -1.38784e-14 -65.4686 -4.68515e-13 
176.389 182.904 258.117 -1.50728e-14 108.934 -6.42e-13 
155.066 157.39 230.244 -6.69064e-15 -123.222 -6.53324e-13 
166.776 173.121 243.89 1.15296e-14 130.188 -6.48624e-13 
172.231 185.105 245.578 1.40345e-14 -129.23 -6.378e-13 
235.146 202.792 385.114 1.35856e-14 159.029 -5.21931e-13 
390.164 384.532 591.04 6.53567e-15 -356 -4.6803e-13 
295.157 310.934 426.798 -1.00799e-14 274.548 -4.18959e-13 
170.859 165.018 261.922 -1.39136e-14 -65.4709 -4.71528e-13 
176.389 182.904 258.117 -1.50394e-14 108.935 -6.43752e-13 
155.066 157.39 230.245 -6.65723e-15 -123.222 -6.55853e-13 
166.777 173.121 243.89 1.15179e-14 130.188 -6.49443e-13 
172.231 185.105 245.579 1.40368e-14 -129.23 -6.39451e-13 
235.144 202.791 385.11 1.3645e-14 159.028 -5.1865e-13 
390.157 384.525 591.029 6.59511e-15 -355.992 -4.6436e-13 
295.152 310.929 426.792 -1.00757e-14 274.543 -4.21204e-13 
170.859 165.018 261.922 -1.39129e-14 -65.4732 -4.72774e-13 
176.389 182.904 258.117 -1.50923e-14 108.936 -6.45136e-13 
155.067 157.391 230.246 -6.71008e-15 -123.223 -6.5696e-13 
166.777 173.121 243.891 1.15129e-14 130.188 -6.5224e-13 
172.231 185.104 245.579 1.40247e-14 -129.23 -6.4283e-13 
235.142 202.79 385.105 1.35824e-14 159.027 1.42047e-12 
390.149 384.517 591.017 6.53248e-15 -355.984 4.05528e-12 
295.148 310.925 426.786 -1.01177e-14 274.538 7.19504e-12 
170.859 165.019 261.922 -1.39306e-14 -65.4756 4.56204e-12 
176.388 182.903 258.117 -1.50871e-14 108.936 -6.4364e-13 
155.067 157.391 230.247 -6.70491e-15 -123.223 -6.55797e-13 
166.777 173.121 243.891 1.15001e-14 130.188 -6.46614e-13 
172.231 185.103 245.579 1.39772e-14 -129.23 -6.36011e-13 
235.139 202.789 385.1 1.36351e-14 159.026 -5.21787e-13 
390.139 384.507 591.003 6.58515e-15 -355.976 -4.6833e-13 
295.143 310.92 426.78 -1.00575e-14 274.533 -4.1491e-13 
170.859 165.019 261.922 -1.38991e-14 -65.4783 -4.67091e-13 
176.388 182.902 258.117 -1.51001e-14 108.937 -6.41814e-13 
155.068 157.392 230.248 -6.71794e-15 -123.224 -6.53527e-13 
166.777 173.121 243.891 1.14221e-14 130.188 -6.45671e-13 
172.23 185.103 245.58 1.39131e-14 -129.23 -6.34597e-13 
235.136 202.787 385.094 1.35022e-14 159.025 -5.22159e-13 
390.128 384.497 590.988 6.50775e-15 -355.966 -4.69479e-13 
295.139 310.915 426.773 -1.00395e-14 274.527 -4.12298e-13 
170.858 165.019 261.922 -1.38433e-14 -65.4815 -4.66144e-13 
176.388 182.902 258.116 -1.50604e-14 108.939 -6.29909e-13 
155.068 157.392 230.249 -6.67824e-15 -123.224 -6.42122e-13 
166.777 173.12 243.892 1.14396e-14 130.188 -6.39217e-13 
172.229 185.102 245.58 1.38196e-14 -129.231 -6.27976e-13 
235.132 202.784 385.087 1.32434e-14 159.024 -5.12515e-13 
390.115 384.483 590.969 6.30451e-15 -355.956 -4.59974e-13 
295.133 310.909 426.765 -9.94831e-15 274.52 -4.07802e-13 
170.858 165.02 261.921 -1.37435e-14 -65.4853 -4.58817e-13 
176.387 182.901 258.116 -1.48412e-14 108.94 -6.29672e-13 
155.068 157.393 230.25 -6.40346e-15 -123.226 -6.41995e-13 
166.776 173.119 243.892 1.17636e-14 130.189 -6.28842e-13 
172.228 185.101 245.581 1.40326e-14 -129.232 -6.17962e-13 
235.128 202.782 385.079 1.3492e-14 159.023 -4.98904e-13 
390.099 384.467 590.947 6.83065e-15 -355.943 -4.47889e-13 
295.127 310.903 426.756 -7.54001e-15 274.512 -3.99556e-13 
170.857 165.021 261.921 -9.4031e-15 -65.4898 -4.48017e-13 
176.386 182.899 258.115 -9.64438e-15 108.942 -5.79728e-13 
155.068 157.394 230.252 -5.03695e-15 -123.227 -5.89276e-13 
166.776 173.118 243.892 6.20136e-15 130.189 -5.88419e-13 
172.227 185.099 245.581 9.37937e-15 -129.233 -5.76207e-13 
235.122 202.778 385.068 1.0332e-14 159.021 -4.73528e-13 
390.079 384.447 590.92 3.22662e-15 -355.928 -4.29313e-13 
295.119 310.896 426.744 -1.09334e-14 274.502 -4.09499e-13 
170.856 165.022 261.921 -1.13515e-14 -65.4954 -4.66675e-13 
176.385 182.898 258.115 -9.84625e-15 108.944 -6.08523e-13 
155.068 157.395 230.254 -6.73762e-15 -123.229 -6.07524e-13 
166.775 173.117 243.892 3.86454e-15 130.19 -5.9898e-13 
172.225 185.097 245.582 9.8875e-15 -129.235 -5.96649e-13 
235.115 202.773 385.056 1.60703e-14 159.019 -4.9032e-13 
390.054 384.422 590.887 8.74287e-15 -355.91 -4.41776e-13 
295.109 310.886 426.73 -6.94816e-15 274.489 -3.92755e-13 
170.854 165.023 261.92 -8.7037e-15 -65.5026 -4.39162e-13 
176.383 182.895 258.114 -9.74889e-15 108.946 -5.61578e-13 
155.068 157.396 230.257 -6.61251e-15 -123.231 -5.63854e-13 
166.774 173.115 243.892 3.54568e-15 130.19 -5.67e-13 
172.223 185.095 245.583 8.95801e-15 -129.237 -5.64474e-13 
235.106 202.767 385.041 1.42664e-14 159.017 -4.55239e-13 
390.032 384.403 590.855 7.27203e-15 -355.888 -4.1169e-13 
295.09 310.86 426.708 -7.67563e-15 274.475 -3.81678e-13 
170.852 165.021 261.92 -9.40342e-15 -65.5134 -4.24588e-13 
176.377 182.883 258.11 -9.35387e-15 108.949 -5.47023e-13 
155.067 157.396 230.261 -4.69094e-15 -123.237 -5.51464e-13 
166.766 173.097 243.89 6.27265e-15 130.191 -5.5055e-13 
172.224 185.096 245.592 8.81229e-15 -129.245 -5.47581e-13 
235.093 202.742 385.034 9.67386e-15 159.012 -4.60599e-13 
390.139 384.573 590.959 4.17825e-15 -355.887 -4.18772e-13 
294.951 310.616 426.605 -8.16909e-15 274.468 1.5566e-12 
170.832 164.968 261.931 -1.02161e-14 -65.5584 4.0949e-12 
176.297 182.721 258.073 -1.0742e-14 108.953 7.05113e-12 
155.061 157.358 230.289 -6.13454e-15 -123.291 4.46028e-12 
166.647 172.832 243.856 6.06075e-15 130.194 -5.71557e-13 
172.291 185.144 245.717 1.03073e-14 -129.343 -5.61676e-13 
235.054 202.442 385.235 1.36037e-14 158.982 -4.51143e-13 
392.49 387.952 593.465 6.99791e-15 -356.299 -4.07262e-13 
292.889 306.818 425.246 -7.15865e-15 274.646 -3.68705e-13 
170.554 164.082 262.123 -8.78235e-15 -66.1314 -4.16611e-13 
175.022 180.114 257.491 -9.0591e-15 108.954 -5.45452e-13 
154.97 156.724 230.694 -5.11781e-15 -124.128 -5.47173e-13 
164.706 168.521 243.312 4.82043e-15 130.225 -5.42043e-13 
173.49 186.033 247.817 7.7764e-15 -130.943 -5.41058e-13 
234.623 197.549 389.05 9.0139e-15 158.563 -4.66592e-13 
431.857 444.065 635.759 2.90767e-15 -363.787 -4.20573e-13 
259.689 244.657 404.37 -1.02056e-14 277.917 -3.80699e-13 
167.394 150.929 267.288 -1.17183e-14 -76.0761 -4.34988e-13 
155.638 136.512 252.591 -1.32658e-14 108.485 1.34264e-12 
159.884 153.187 246.362 -1.13784e-14 -140.304 3.91758e-12 
142.881 100.406 256.822 -5.49644e-15 126.645 6.97953e-12 
221.591 234.351 319.528 -2.66537e-15 -161.099 4.38982e-12 
163.916 71.8717 337.98 3.13582e-15 94.5641 -7.06327e-13 
18.8953 -85.2935 132.558 2.35867e-15 87.0251 -5.29746e-13 
-59.2777 -41.7722 -106.429 -1.15855 -3.30182 0.575718 
-51.3385 -82.8985 -45.3976 0.203421 -24.9698 0.787497 
-59.2777 -41.7722 -106.429 1.15855 -3.30182 -0.575718 
-51.3385 -82.8985 -45.3976 -0.203421 -24.9698 -0.787497 
-74.4989 -71.1653 -115.063 0.490602 -2.5815 0.506868 
-69.3217 -72.1186 -101.147 -0.180517 1.89614 1.10173 
-74.4989 -71.1653 -115.063 -0.490602 -2.5815 -0.506868 
-69.3217 -72.1186 -101.147 0.180517 1.89614 -1.10173 
-76.8105 -81.7159 -110.288 3.1101 9.9705 -0.948293 
-22.5478 -50.6352 -5.78669 -0.48505 12.3349 1.2077 
-76.8105 -81.7159 -110.288 -3.1101 9.9705 0.948293 
-22.5478 -50.6352 -5.78669 0.48505 12.3349 -1.2077 
-295.239 -289.333 -448.781 5.06541 -15.4329 0.697659 
-255.269 -189.411 -449.012 -0.343684 -5.37469 2.90085 
-295.239 -289.333 -448.781 -5.06541 -15.4329 -0.697659 
-255.269 -189.411 -449.012 0.343684 -5.37469 -2.90085 
-19.3662 -24.9769 -23.4626 -2.8293 7.79512 1.45102 
-57.8419 -93.4034 -51.101 0.30071 -12.0143 0.826126 
-19.3662 -24.9769 -23.4626 2.8293 7.79512 -1.45102 
-57.8419 -93.4034 -51.101 -0.30071 -12.0143 -0.826126 
-75.3976 -71.6402 -116.832 -0.147917 -2.161 0.901177 
-74.5189 -75.2311 -111.005 -0.118182 4.87183 1.09218 
-75.3976 -71.6402 -116.832 0.147917 -2.161 -0.901177 
-74.5189 -75.2311 -111.005 0.118182 4.87183 -1.09218 
-76.4835 -81.0142 -110.171 2.68763 9.81717 -0.725823 
-25.4892 -54.1418 -9.62013 -0.434505 12.7035 1.19035 
-76.4835 -81.0142 -110.171 -2.68763 9.81717 0.725823 
-25.4892 -54.1418 -9.62013 0.434505 12.7035 -1.19035 
-295.061 -288.895 -448.774 4.75867 -15.1186 0.847264 
-256.378 -191.021 -450.165 -0.309624 -5.2602 2.88633 
-295.061 -288.895 -448.774 -4.75867 -15.1186 -0.847264 
-256.378 -191.021 -450.165 0.309624 -5.2602 -2.88633 
-19.14 -24.6883 -23.1859 -3.10248 7.75535 1.5884 
-58.2389 -93.954 -51.5354 0.334351 -11.9836 0.810155 
-19.14 -24.6883 -23.1859 3.10248 7.75535 -1.5884 
-58.2389 -93.954 -51.5354 -0.334351 -11.9836 -0.810155 
-75.2675 -71.4427 -116.705 -0.396445 -2.16687 1.0251 
-74.7937 -75.6408 -111.276 -0.0875618 4.86716 1.07736 
-75.2675 -71.4427 -116.705 0.396445 -2.16687 -1.0251 
-74.7937 -75.6408 -111.276 0.0875618 4.86716 -1.07736 
-76.392 -80.8743 -110.083 2.45867 9.81171 -0.611521 
-25.6871 -54.4258 -9.82457 -0.406386 12.6923 1.17666 
-76.392 -80.8743 -110.083 -2.45867 9.81171 0.611521 
-25.6871 -54.4258 -9.82457 0.406386 12.6923 -1.17666 
-294.993 -288.805 -448.694 4.54719 -15.0926 0.95212 
-256.416 -191.113 -450.163 -0.284144 -5.25841 2.87341 
-294.993 -288.805 -448.694 -4.54719 -15.0926 -0.95212 
-256.416 -191.113 -450.163 0.284144 -5.25841 -2.87341 
-19.1365 -24.6786 -23.187 -3.29954 7.75188 1.68712 
-58.2702 -93.9875 -51.5747 0.358326 -11.9816 0.798249 
-19.1365 -24.6786 -23.187 3.29954 7.75188 -1.68712 
-58.2702 -93.9875 -51.5747 -0.358326 -11.9816 -0.798249 
-75.2613 -71.4325 -116.7 -0.582053 -2.16633 1.11788 
-74.8154 -75.6701 -111.296 -0.0649714 4.86452 1.06612 
-75.2613 -71.4325 -116.7 0.582053 -2.16633 -1.11788 
-74.8154 -75.6701 -111.296 0.0649714 4.86452 -1.06612 
-76.3876 -80.8658 -110.08 2.28369 9.81037 -0.524012 
-25.712 -54.4517 -9.85629 -0.3851 12.6879 1.16608 
-76.3876 -80.8658 -110.08 -2.28369 9.81037 0.524012 
-25.712 -54.4517 -9.85629 0.3851 12.6879 -1.16608 
-294.961 -288.772 -448.646 4.38236 -15.087 1.03412 
-256.395 -191.104 -450.116 -0.264199 -5.25886 2.86321 
-294.961 -288.772 -448.646 -4.38236 -15.087 -1.03412 
-256.395 -191.104 -450.116 0.264199 -5.25886 -2.86321 
-19.1468 -24.688 -23.2035 -3.45361 7.75096 1.76428 
-58.2771 -93.988 -51.5874 0.377036 -11.981 0.788926 
-19.1468 -24.688 -23.2035 3.45361 7.75096 -1.76428 
-58.2771 -93.988 -51.5874 -0.377036 -11.981 -0.788926 
-75.2627 -71.4342 -116.702 -0.727472 -2.16557 1.19058 
-74.8205 -75.6748 -111.3 -0.0472976 4.86254 1.0573 
-75.2627 -71.4342 -116.702 0.727472 -2.16557 -1.19058 
-74.8205 -75.6748 -111.3 0.0472976 4.86254 -1.0573 
-76.3885 -80.8655 -110.083 2.14644 9.80949 -0.45536 
-25.7237 -54.4599 -9.87352 -0.368422 12.6847 1.15777 
-76.3885 -80.8655 -110.083 -2.14644 9.80949 0.45536 
-25.7237 -54.4599 -9.87352 0.368422 12.6847 -1.15777 
-294.936 -288.748 -448.609 4.25297 -15.0836 1.0985 
-256.375 -191.092 -450.075 -0.248542 -5.25931 2.85518 
-294.936 -288.748 -448.609 -4.25297 -15.0836 -1.0985 
-256.375 -191.092 -450.075 0.248542 -5.25931 -2.85518 
-19.1558 -24.6966 -23.2176 -3.57446 7.75033 1.82481 
-58.2814 -93.9867 -51.5964 0.391703 -11.9806 0.781615 
-19.1558 -24.6966 -23.2176 3.57446 7.75033 -1.82481 
-58.2814 -93.9867 -51.5964 -0.391703 -11.9806 -0.781615 
-75.2643 -71.4361 -116.704 -0.841448 -2.16496 1.24757 
-74.8238 -75.6774 -111.303 -0.0334543 4.86099 1.05039 
-75.2643 -71.4361 -116.704 0.841448 -2.16496 -1.24757 
-74.8238 -75.6774 -111.303 0.0334543 4.86099 -1.05039 
-76.3894 -80.8657 -110.085 2.03897 9.8088 -0.401605 
-25.7324 -54.4658 -9.88678 -0.355373 12.6821 1.15127 
-76.3894 -80.8657 -110.085 -2.03897 9.8088 0.401605 
-25.7324 -54.4658 -9.88678 0.355373 12.6821 -1.15127 
-294.917 -288.729 -448.579 4.15177 -15.0809 1.14885 
-256.359 -191.081 -450.043 -0.236308 -5.25966 2.84891 
-294.917 -288.729 -448.579 -4.15177 -15.0809 -1.14885 
-256.359 -191.081 -450.043 0.236308 -5.25966 -2.84891 
-19.1631 -24.7035 -23.229 -3.66881 7.74982 1.87207 
-58.2848 -93.9856 -51.6035 0.403144 -11.9803 0.775912 
-19.1631 -24.7035 -23.229 3.66881 7.74982 -1.87207 
-58.2848 -93.9856 -51.6035 -0.403144 -11.9803 -0.775912 
-75.2655 -71.4376 -116.706 -0.930284 -2.16447 1.29199 
-74.8263 -75.6794 -111.304 -0.0226745 4.85976 1.04502 
-75.2655 -71.4376 -116.706 0.930284 -2.16447 -1.29199 
-74.8263 -75.6794 -111.304 0.0226745 4.85976 -1.04502 
-76.3902 -80.8658 -110.087 1.95536 9.80822 -0.359784 
-25.7394 -54.4703 -9.89739 -0.345232 12.6802 1.14621 
-76.3902 -80.8658 -110.087 -1.95536 9.80822 0.359784 
-25.7394 -54.4703 -9.89739 0.345232 12.6802 -1.14621 
-294.901 -288.713 -448.555 4.07322 -15.0787 1.18793 
-256.346 -191.073 -450.017 -0.226823 -5.25992 2.84404 
-294.901 -288.713 -448.555 -4.07322 -15.0787 -1.18793 
-256.346 -191.073 -450.017 0.226823 -5.25992 -2.84404 
-19.1689 -24.709 -23.2382 -3.74185 7.7494 1.90865 
-58.2875 -93.9847 -51.6092 0.411987 -11.98 0.771504 
-19.1689 -24.709 -23.2382 3.74185 7.7494 -1.90865 
-58.2875 -93.9847 -51.6092 -0.411987 -11.98 -0.771504 
-75.2666 -71.4389 -116.707 -0.998858 -2.16408 1.32628 
-74.8283 -75.681 -111.306 -0.0143662 4.8588 1.04087 
-75.2666 -71.4389 -116.707 0.998858 -2.16408 -1.32628 
-74.8283 -75.681 -111.306 0.0143662 4.8588 -1.04087 
-76.3908 -80.866 -110.089 1.89102 9.80775 -0.327602 
-25.745 -54.474 -9.90598 -0.337442 12.6786 1.14233 
-76.3908 -80.866 -110.089 -1.89102 9.80775 0.327602 
-25.745 -54.474 -9.90598 0.337442 12.6786 -1.14233 
-294.888 -288.701 -448.535 4.01299 -15.077 1.21788 
-256.336 -191.066 -449.995 -0.219566 -5.26009 2.84031 
-294.888 -288.701 -448.535 -4.01299 -15.077 -1.21788 
-256.336 -191.066 -449.995 0.219566 -5.26009 -2.84031 
-19.1737 -24.7135 -23.2456 -3.79757 7.74905 1.93657 
-58.2897 -93.984 -51.6139 0.418719 -11.9797 0.76815 
-19.1737 -24.7135 -23.2456 3.79757 7.74905 -1.93657 
-58.2897 -93.984 -51.6139 -0.418719 -11.9797 -0.76815 
-75.2674 -71.4399 -116.708 -1.05093 -2.16378 1.35232 
-74.8298 -75.6823 -111.307 -0.00807327 4.85804 1.03773 
-75.2674 -71.4399 -116.708 1.05093 -2.16378 -1.35232 
-74.8298 -75.6823 -111.307 0.00807327 4.85804 -1.03773 
-76.3914 -80.8662 -110.09 1.84243 9.80734 -0.303292 
-25.7495 -54.4768 -9.91301 -0.331576 12.6773 1.13941 
-76.3914 -80.8662 -110.09 -1.84243 9.80734 0.303292 
-25.7495 -54.4768 -9.91301 0.331576 12.6773 -1.13941 
-294.877 -288.69 -448.518 3.96778 -15.0757 1.24035 
-256.327 -191.061 -449.977 -0.21414 -5.26019 2.83751 
-294.877 -288.69 -448.518 -3.96778 -15.0757 -1.24035 
-256.327 -191.061 -449.977 0.21414 -5.26019 -2.83751 
-19.1776 -24.7172 -23.2518 -3.83905 7.74874 1.95735 
-58.2915 -93.9834 -51.6178 0.423709 -11.9794 0.765664 
-19.1776 -24.7172 -23.2518 3.83905 7.74874 -1.95735 
-58.2915 -93.9834 -51.6178 -0.423709 -11.9794 -0.765664 
-75.2681 -71.4408 -116.709 -1.08937 -2.16355 1.37154 
-74.831 -75.6832 -111.308 -0.00345033 4.85746 1.03543 
-75.2681 -71.4408 -116.709 1.08937 -2.16355 -1.37154 
-74.831 -75.6832 -111.308 0.00345033 4.85746 -1.03543 
-76.3918 -80.8663 -110.091 1.80691 9.80698 -0.285521 
-25.7531 -54.4791 -9.91887 -0.327311 12.6763 1.13729 
-76.3918 -80.8663 -110.091 -1.80691 9.80698 0.285521 
-25.7531 -54.4791 -9.91887 0.327311 12.6763 -1.13729 
-294.868 -288.681 -448.504 3.9351 -15.0746 1.25658 
-256.319 -191.056 -449.962 -0.210247 -5.26023 2.83549 
-294.868 -288.681 -448.504 -3.9351 -15.0746 -1.25658 
-256.319 -191.056 -449.962 0.210247 -5.26023 -2.83549 
-19.1809 -24.7203 -23.257 -3.86855 7.74847 1.97214 
-58.2929 -93.9829 -51.6211 0.427231 -11.9791 0.763911 
-19.1809 -24.7203 -23.257 3.86855 7.74847 -1.97214 
-58.2929 -93.9829 -51.6211 -0.427231 -11.9791 -0.763911 
-75.2687 -71.4416 -116.71 -1.11628 -2.16337 1.38499 
-74.8319 -75.684 -111.309 -0.000243659 4.85702 1.03383 
-75.2687 -71.4416 -116.71 1.11628 -2.16337 -1.38499 
-74.8319 -75.684 -111.309 0.000243659 4.85702 -1.03383 
-76.3923 -80.8665 -110.092 1.78251 9.80664 -0.273312 
-25.7561 -54.481 -9.92389 -0.324415 12.6755 1.13585 
-76.3923 -80.8665 -110.092 -1.78251 9.80664 0.273312 
-25.7561 -54.481 -9.92389 0.324415 12.6755 -1.13585 
-294.86 -288.673 -448.492 3.91317 -15.0738 1.26745 
-256.313 -191.052 -449.949 -0.207673 -5.2602 2.83414 
-294.86 -288.673 -448.492 -3.91317 -15.0738 -1.26745 
-256.313 -191.052 -449.949 0.207673 -5.2602 -2.83414 
-19.1838 -24.723 -23.2615 -3.8877 7.7482 1.98175 
-58.2941 -93.9825 -51.624 0.429477 -11.9788 0.762794 
-19.1838 -24.723 -23.2615 3.8877 7.7482 -1.98175 
-58.2941 -93.9825 -51.624 -0.429477 -11.9788 -0.762794 
-75.2693 -71.4422 -116.711 -1.13313 -2.16323 1.39342 
-74.8326 -75.6845 -111.31 0.00172278 4.85668 1.03285 
-75.2693 -71.4422 -116.711 1.13313 -2.16323 -1.39342 
-74.8326 -75.6845 -111.31 -0.00172278 4.85668 -1.03285 
-76.3927 -80.8667 -110.093 1.76789 9.80632 -0.265995 
-25.7587 -54.4825 -9.92833 -0.322726 12.6749 1.13501 
-76.3927 -80.8667 -110.093 -1.76789 9.80632 0.265995 
-25.7587 -54.4825 -9.92833 0.322726 12.6749 -1.13501 
-294.852 -288.666 -448.48 3.90078 -15.0731 1.27355 
-256.306 -191.048 -449.937 -0.206276 -5.26011 2.83339 
-294.852 -288.666 -448.48 -3.90078 -15.0731 -1.27355 
-256.306 -191.048 -449.937 0.206276 -5.26011 -2.83339 
-19.1864 -24.7254 -23.2657 -3.89755 7.74794 1.98671 
-58.2952 -93.9821 -51.6266 0.430572 -11.9785 0.762252 
-19.1864 -24.7254 -23.2657 3.89755 7.74794 -1.98671 
-58.2952 -93.9821 -51.6266 -0.430572 -11.9785 -0.762252 
-75.2698 -71.4428 -116.712 -1.14086 -2.16314 1.39729 
-74.833 -75.685 -111.31 0.0025569 4.85645 1.03244 
-75.2698 -71.4428 -116.712 1.14086 -2.16314 -1.39729 
-74.833 -75.685 -111.31 -0.0025569 4.85645 -1.03244 
-76.3931 -80.8669 -110.094 1.76226 9.80598 -0.263168 
-25.7609 -54.4837 -9.93245 -0.322154 12.6744 1.13473 
-76.3931 -80.8669 -110.094 -1.76226 9.80598 0.263168 
-25.7609 -54.4837 -9.93245 0.322154 12.6744 -1.13473 
-294.845 -288.659 -448.469 3.89726 -15.0725 1.27523 
-256.3 -191.044 -449.926 -0.20598 -5.25994 2.83318 
-294.845 -288.659 -448.469 -3.89726 -15.0725 -1.27523 
-256.3 -191.044 -449.926 0.20598 -5.25994 -2.83318 
-19.1889 -24.7277 -23.2696 -3.89864 7.74766 1.98728 
-58.2961 -93.9818 -51.6291 0.430575 -11.978 0.762256 
-19.1889 -24.7277 -23.2696 3.89864 7.74766 -1.98728 
-58.2961 -93.9818 -51.6291 -0.430575 -11.978 -0.762256 
-75.2703 -71.4435 -116.712 -1.13988 -2.16307 1.3968 
-74.8333 -75.6852 -111.31 0.00230451 4.85629 1.03257 
-75.2703 -71.4435 -116.712 1.13988 -2.16307 -1.3968 
-74.8333 -75.6852 -111.31 -0.00230451 4.85629 -1.03257 
-76.3936 -80.8672 -110.094 1.7653 9.80562 -0.264678 
-25.7629 -54.4847 -9.93647 -0.322667 12.674 1.13499 
-76.3936 -80.8672 -110.094 -1.7653 9.80562 0.264678 
-25.7629 -54.4847 -9.93647 0.322667 12.674 -1.13499 
-294.837 -288.652 -448.458 3.90239 -15.072 1.27258 
-256.294 -191.04 -449.914 -0.206769 -5.2597 2.83352 
-294.837 -288.652 -448.458 -3.90239 -15.072 -1.27258 
-256.294 -191.04 -449.914 0.206769 -5.2597 -2.83352 
-19.1914 -24.7299 -23.2735 -3.89102 7.74735 1.98351 
-58.2969 -93.9814 -51.6317 0.429486 -11.9775 0.762804 
-19.1914 -24.7299 -23.2735 3.89102 7.74735 -1.98351 
-58.2969 -93.9814 -51.6317 -0.429486 -11.9775 -0.762804 
-75.2708 -71.4441 -116.713 -1.13014 -2.16302 1.39194 
-74.8335 -75.6854 -111.311 0.000951723 4.85621 1.03324 
-75.2708 -71.4441 -116.713 1.13014 -2.16302 -1.39194 
-74.8335 -75.6854 -111.311 -0.000951723 4.85621 -1.03324 
-76.3941 -80.8676 -110.095 1.77718 9.8052 -0.270606 
-25.7648 -54.4856 -9.9406 -0.324292 12.6737 1.13581 
-76.3941 -80.8676 -110.095 -1.77718 9.8052 0.270606 
-25.7648 -54.4856 -9.9406 0.324292 12.6737 -1.13581 
-294.829 -288.644 -448.446 3.91648 -15.0716 1.26545 
-256.287 -191.036 -449.901 -0.208686 -5.25936 2.83441 
-294.829 -288.644 -448.446 -3.91648 -15.0716 -1.26545 
-256.287 -191.036 -449.901 0.208686 -5.25936 -2.83441 
-19.194 -24.7323 -23.2777 -3.87429 7.747 1.97518 
-58.2978 -93.9811 -51.6345 0.427247 -11.9769 0.763929 
-19.194 -24.7323 -23.2777 3.87429 7.747 -1.97518 
-58.2978 -93.9811 -51.6345 -0.427247 -11.9769 -0.763929 
-75.2714 -71.4448 -116.714 -1.11111 -2.16301 1.38243 
-74.8334 -75.6855 -111.311 -0.0015757 4.85619 1.03451 
-75.2714 -71.4448 -116.714 1.11111 -2.16301 -1.38243 
-74.8334 -75.6855 -111.311 0.0015757 4.85619 -1.03451 
-76.3947 -80.868 -110.096 1.79855 9.80472 -0.281278 
-25.7667 -54.4863 -9.94508 -0.327118 12.6734 1.13723 
-76.3947 -80.868 -110.096 -1.79855 9.80472 0.281278 
-25.7667 -54.4863 -9.94508 0.327118 12.6734 -1.13723 
-294.82 -288.635 -448.432 3.94029 -15.0713 1.25345 
-256.28 -191.032 -449.888 -0.211836 -5.25891 2.83592 
-294.82 -288.635 -448.432 -3.94029 -15.0713 -1.25345 
-256.28 -191.032 -449.888 0.211836 -5.25891 -2.83592 
-19.1969 -24.7348 -23.2824 -3.84751 7.74658 1.96183 
-58.2986 -93.9808 -51.6376 0.423733 -11.9761 0.765691 
-19.1969 -24.7348 -23.2824 3.84751 7.74658 -1.96183 
-58.2986 -93.9808 -51.6376 -0.423733 -11.9761 -0.765691 
-75.272 -71.4456 -116.714 -1.08175 -2.16301 1.36775 
-74.8333 -75.6855 -111.311 -0.00541648 4.85624 1.03643 
-75.272 -71.4456 -116.714 1.08175 -2.16301 -1.36775 
-74.8333 -75.6855 -111.311 0.00541648 4.85624 -1.03643 
-76.3955 -80.8685 -110.098 1.83059 9.80414 -0.297279 
-25.7687 -54.487 -9.95016 -0.331302 12.6732 1.13932 
-76.3955 -80.8685 -110.098 -1.83059 9.80414 0.297279 
-25.7687 -54.487 -9.95016 0.331302 12.6732 -1.13932 
-294.81 -288.625 -448.416 3.97513 -15.071 1.23593 
-256.271 -191.027 -449.871 -0.216392 -5.25832 2.83811 
-294.81 -288.625 -448.416 -3.97513 -15.071 -1.23593 
-256.271 -191.027 -449.871 0.216392 -5.25832 -2.83811 
-19.2003 -24.7378 -23.2877 -3.80923 7.74607 1.94273 
-58.2995 -93.9804 -51.6412 0.418752 -11.9752 0.768186 
-19.2003 -24.7378 -23.2877 3.80923 7.74607 -1.94273 
-58.2995 -93.9804 -51.6412 -0.418752 -11.9752 -0.768186 
-75.2728 -71.4465 -116.715 -1.04044 -2.16305 1.3471 
-74.8329 -75.6854 -111.312 -0.0107814 4.85637 1.03912 
-75.2728 -71.4465 -116.715 1.04044 -2.16305 -1.3471 
-74.8329 -75.6854 -111.312 0.0107814 4.85637 -1.03912 
-76.3964 -80.8692 -110.099 1.87505 9.80343 -0.319488 
-25.7709 -54.4876 -9.9561 -0.337073 12.673 1.14221 
-76.3964 -80.8692 -110.099 -1.87505 9.80343 0.319488 
-25.7709 -54.4876 -9.9561 0.337073 12.673 -1.14221 
-294.797 -288.612 -448.396 4.02291 -15.0707 1.21191 
-256.26 -191.02 -449.852 -0.222604 -5.25757 2.84112 
-294.797 -288.612 -448.396 -4.02291 -15.0707 -1.21191 
-256.26 -191.02 -449.852 0.222604 -5.25757 -2.84112 
-19.2043 -24.7412 -23.2941 -3.75734 7.74544 1.91684 
-58.3006 -93.9799 -51.6455 0.412031 -11.974 0.771553 
-19.2043 -24.7412 -23.2941 3.75734 7.74544 -1.91684 
-58.3006 -93.9799 -51.6455 -0.412031 -11.974 -0.771553 
-75.2737 -71.4476 -116.716 -0.984911 -2.1631 1.31935 
-74.8324 -75.6852 -111.312 -0.017965 4.85657 1.04271 
-75.2737 -71.4476 -116.716 0.984911 -2.1631 -1.31935 
-74.8324 -75.6852 -111.312 0.017965 4.85657 -1.04271 
-76.3975 -80.8701 -110.101 1.93437 9.80256 -0.349124 
-25.7734 -54.4883 -9.96323 -0.344747 12.6728 1.14605 
-76.3975 -80.8701 -110.101 -1.93437 9.80256 0.349124 
-25.7734 -54.4883 -9.96323 0.344747 12.6728 -1.14605 
-294.782 -288.597 -448.373 4.08626 -15.0704 1.18008 
-256.247 -191.012 -449.829 -0.230814 -5.25661 2.84511 
-294.782 -288.597 -448.373 -4.08626 -15.0704 -1.18008 
-256.247 -191.012 -449.829 0.230814 -5.25661 -2.84511 
-19.2092 -24.7455 -23.3019 -3.68899 7.74467 1.88273 
-58.3017 -93.9793 -51.6507 0.4032 -11.9725 0.775975 
-19.2092 -24.7455 -23.3019 3.68899 7.74467 -1.88273 
-58.3017 -93.9793 -51.6507 -0.4032 -11.9725 -0.775975 
-75.2749 -71.4491 -116.718 -0.912124 -2.16317 1.28297 
-74.8316 -75.6848 -111.312 -0.0273614 4.85685 1.04741 
-75.2749 -71.4491 -116.718 0.912124 -2.16317 -1.28297 
-74.8316 -75.6848 -111.312 0.0273614 4.85685 -1.04741 
-76.399 -80.8713 -110.103 2.01181 9.80149 -0.387811 
-25.7763 -54.4887 -9.97178 -0.354745 12.6726 1.15106 
-76.399 -80.8713 -110.103 -2.01181 9.80149 0.387811 
-25.7763 -54.4887 -9.97178 0.354745 12.6726 -1.15106 
-294.763 -288.579 -448.344 4.16863 -15.0699 1.1387 
-256.23 -191.002 -449.799 -0.241473 -5.25539 2.85029 
-294.763 -288.579 -448.344 -4.16863 -15.0699 -1.1387 
-256.23 -191.002 -449.799 0.241473 -5.25539 -2.85029 
-19.2157 -24.7515 -23.3121 -3.60046 7.74381 1.83855 
-58.3022 -93.9772 -51.6562 0.391776 -11.9706 0.781695 
-19.2157 -24.7515 -23.3121 3.60046 7.74381 -1.83855 
-58.3022 -93.9772 -51.6562 -0.391776 -11.9706 -0.781695 
-75.2774 -71.4522 -116.72 -0.818124 -2.16307 1.23599 
-74.8291 -75.682 -111.311 -0.0394853 4.85715 1.05348 
-75.2774 -71.4522 -116.72 0.818124 -2.16307 -1.23599 
-74.8291 -75.682 -111.311 0.0394853 4.85715 -1.05348 
-76.4029 -80.8755 -110.109 2.11155 9.80056 -0.437633 
-25.777 -54.4851 -9.97971 -0.367617 12.672 1.1575 
-76.4029 -80.8755 -110.109 -2.11155 9.80056 0.437633 
-25.777 -54.4851 -9.97971 0.367617 12.672 -1.1575 
-294.747 -288.566 -448.317 4.27447 -15.067 1.08554 
-256.202 -190.976 -449.756 -0.25519 -5.25404 2.85697 
-294.747 -288.566 -448.317 -4.27447 -15.067 -1.08554 
-256.202 -190.976 -449.756 0.25519 -5.25404 -2.85697 
-19.2332 -24.7719 -23.3352 -3.48727 7.74457 1.78207 
-58.2881 -93.952 -51.6488 0.37714 -11.9689 0.78902 
-19.2332 -24.7719 -23.3352 3.48727 7.74457 -1.78207 
-58.2881 -93.952 -51.6488 -0.37714 -11.9689 -0.78902 
-75.297 -71.4781 -116.743 -0.69847 -2.15952 1.1762 
-74.8029 -75.6429 -111.287 -0.0549835 4.85607 1.06123 
-75.297 -71.4781 -116.743 0.69847 -2.15952 -1.1762 
-74.8029 -75.6429 -111.287 0.0549835 4.85607 -1.06123 
-76.4416 -80.9245 -110.156 2.23784 9.80595 -0.500688 
-25.7338 -54.4135 -9.94629 -0.384064 12.6633 1.1658 
-76.4416 -80.9245 -110.156 -2.23784 9.80595 0.500688 
-25.7338 -54.4135 -9.94629 0.384064 12.6633 -1.1658 
-294.846 -288.698 -448.433 4.40801 -15.0254 1.01846 
-256.035 -190.738 -449.582 -0.273105 -5.25546 2.86579 
-294.846 -288.698 -448.433 -4.40801 -15.0254 -1.01846 
-256.035 -190.738 -449.582 0.273105 -5.25546 -2.86579 
-19.4073 -25.0093 -23.5326 -3.34957 7.77547 1.71354 
-58.0296 -93.5522 -51.4059 0.358624 -11.977 0.798236 
-19.4073 -25.0093 -23.5326 3.34957 7.77547 -1.71354 
-58.0296 -93.5522 -51.4059 -0.358624 -11.977 -0.798236 
-75.5897 -71.87 -117.083 -0.558319 -2.09909 1.10643 
-74.3931 -75.0138 -110.896 -0.0744019 4.83058 1.07099 
-75.5897 -71.87 -117.083 0.558319 -2.09909 -1.10643 
-74.3931 -75.0138 -110.896 0.0744019 4.83058 -1.07099 
-77.0409 -81.7005 -110.878 2.37801 9.92002 -0.570015 
-24.9586 -53.2286 -9.19664 -0.404929 12.5246 1.17723 
-77.0409 -81.7005 -110.878 -2.37801 9.92002 0.570015 
-24.9586 -53.2286 -9.19664 0.404929 12.5246 -1.17723 
-296.919 -291.298 -451.013 4.551 -14.3514 0.946341 
-253.697 -187.059 -447.42 -0.302541 -5.30835 2.88175 
-296.919 -291.298 -451.013 -4.551 -14.3514 -0.946341 
-253.697 -187.059 -447.42 0.302541 -5.30835 -2.88175 
-22.1187 -28.7775 -26.5435 -3.28362 8.30525 1.68381 
-53.7638 -87.0217 -47.2754 0.337408 -12.1559 0.807967 
-22.1187 -28.7775 -26.5435 3.28362 8.30525 -1.68381 
-53.7638 -87.0217 -47.2754 -0.337408 -12.1559 -0.807967 
-80.3744 -78.2788 -122.637 -0.581619 -1.10019 1.12274 
-67.6847 -64.6915 -104.449 -0.0940532 4.39974 1.08162 
-80.3744 -78.2788 -122.637 0.581619 -1.10019 -1.12274 
-67.6847 -64.6915 -104.449 0.0940532 4.39974 -1.08162 
-86.9782 -94.5813 -122.842 2.21915 11.8571 -0.478839 
-12.032 -33.6073 3.50104 -0.431616 10.2173 1.20718 
-86.9782 -94.5813 -122.842 -2.21915 11.8571 0.478839 
-12.032 -33.6073 3.50104 0.431616 10.2173 -1.20718 
-332.272 -335.477 -495.224 4.29573 -3.18752 1.07184 
-215.283 -126.229 -412.239 -0.454953 -6.54759 2.98576 
-332.272 -335.477 -495.224 -4.29573 -3.18752 -1.07184 
-215.283 -126.229 -412.239 0.454953 -6.54759 -2.98576 
-70.6111 -95.4367 -81.1313 -4.95903 17.674 2.58283 
18.6803 23.7267 23.0987 0.317694 -17.2015 0.820345 
-70.6111 -95.4367 -81.1313 4.95903 17.674 -2.58283 
18.6803 23.7267 23.0987 -0.317694 -17.2015 -0.820345 
-176.722 -204.066 -237.737 -3.76176 17.337 2.83546 
49.455 116.465 7.29205 -0.162937 -14.1239 1.22044 
-176.722 -204.066 -237.737 3.76176 17.337 -2.83546 
49.455 116.465 7.29205 0.162937 -14.1239 -1.22044 
-335.387 -384.69 -453.762 -2.73113 31.6494 2.546 
96.5968 211.808 29.7987 -0.889936 -100.141 2.35344 
-335.387 -384.69 -453.762 2.73113 31.6494 -2.546 
96.5968 211.808 29.7987 0.889936 -100.141 -2.35344 
POINT_DATA 401
VECTORS displacement float
2.13633e-21 1.44845e-07 7.63118e-07
-0.00012735 1.27009e-07 5.90793e-06
0.00012735 1.27009e-07 5.90793e-06
-7.13094e-22 7.46239e-07 2.69908e-06
2.31148e-20 4.41363e-07 7.42853e-06
-0.000127382 4.40871e-07 9.42116e-06
0.000127382 4.40871e-07 9.42116e-06
-1.1e-21 2.32308e-07 4.15268e-06
2.18328e-20 3.74743e-07 8.23046e-06
-0.000127363 2.87423e-07 9.91454e-06
0.000127363 2.87423e-07 9.91454e-06
-8.40078e-22 -7.4864e-08 4.29521e-06
2.14954e-20 2.08921e-07 7.90078e-06
-0.000127254 -1.09527e-07 9.04618e-06
0.000127254 -1.09527e-07 9.04618e-06
-2.31132e-21 -6.79375e-07 2.98684e-06
4.6598e-21 -9.9519e-08 2.97032e-06
-0.000127099 3.08088e-07 7.68369e-06
0.000127099 3.08088e-07 7.68369e-06
-1.82128e-21 7.31594e-07 3.41197e-06
2.07227e-20 4.47896e-07 7.91854e-06
-0.000127176 3.94444e-07 9.80836e-06
0.000127176 3.94444e-07 9.80836e-06
-8.28962e-22 1.75734e-07 4.28793e-06
2.50578e-20 3.01179e-07 8.30061e-06
-0.00012718 2.21292e-07 9.97978e-06
0.00012718 2.21292e-07 9.97978e-06
-1.12523e-21 -9.92413e-08 4.32783e-06
1.98576e-20 1.57405e-07 7.90632e-06
-0.000127086 -1.46489e-07 9.05108e-06
0.000127086 -1.46489e-07 9.05108e-06
-2.30564e-21 -6.8705e-07 2.99825e-06
4.91072e-21 -1.13462e-07 2.97007e-06
-0.000126942 2.92697e-07 7.68408e-06
0.000126942 2.92697e-07 7.68408e-06
-1.53726e-21 7.2853e-07 3.41371e-06
2.16747e-20 4.35987e-07 7.91591e-06
-0.000127029 3.84724e-07 9.80596e-06
0.000127029 3.84724e-07 9.80596e-06
-9.02707e-22 1.74204e-07 4.28897e-06
2.14381e-20 2.94174e-07 8.29826e-06
-0.000127041 2.15787e-07 9.97735e-06
0.000127041 2.15787e-07 9.97735e-06
-1.40036e-21 -1.00003e-07 4.32844e-06
2.12897e-20 1.53699e-07 7.90429e-06
-0.000126955 -1.49037e-07 9.04915e-06
0.000126955 -1.49037e-07 9.04915e-06
-2.13382e-21 -6.872e-07 2.99899e-06
4.72147e-21 -1.14383e-07 2.96947e-06
-0.000126819 2.91589e-07 7.68297e-06
0.000126819 2.91589e-07 7.68297e-06
-1.97044e-21 7.28231e-07 3.41398e-06
2.00438e-20 4.35062e-07 7.91438e-06
-0.000126913 3.83944e-07 9.80445e-06
0.000126913 3.83944e-07 9.80445e-06
-1.15875e-21 1.74066e-07 4.28906e-06
2.04494e-20 2.93573e-07 8.29677e-06
-0.000126932 2.15301e-07 9.97588e-06
0.000126932 2.15301e-07 9.97588e-06
-7.08903e-22 -1.00053e-07 4.32851e-06
2.48839e-20 1.53341e-07 7.90294e-06
-0.000126852 -1.49259e-07 9.04792e-06
0.000126852 -1.49259e-07 9.04792e-06
-2.11446e-21 -6.8712e-07 2.99926e-06
5.74333e-21 -1.14473e-07 2.96901e-06
-0.000126721 2.91405e-07 7.68208e-06
0.000126721 2.91405e-07 7.68208e-06
-1.43216e-21 7.28095e-07 3.41414e-06
2.59652e-20 4.34853e-07 7.91321e-06
-0.00012682 3.83752e-07 9.80328e-06
0.00012682 3.83752e-07 9.80328e-06
-1.91236e-22 1.74017e-07 4.2891e-06
2.86543e-20 2.934e-07 8.29561e-06
-0.000126844 2.15155e-07 9.97474e-06
0.000126844 2.15155e-07 9.97474e-06
-2.20729e-22 -1.0006e-07 4.32853e-06
2.43796e-20 1.53216e-07 7.90189e-06
-0.000126769 -1.49324e-07 9.04696e-06
0.000126769 -1.49324e-07 9.04696e-06
-2.30398e-21 -6.87044e-07 2.99946e-06
4.89185e-21 -1.14505e-07 2.96864e-06
-0.000126643 2.91302e-07 7.68136e-06
0.000126643 2.91302e-07 7.68136e-06
-1.74638e-21 7.27993e-07 3.41427e-06
2.24332e-20 4.34719e-07 7.91228e-06
-0.000126746 3.83626e-07 9.80235e-06
0.000126746 3.83626e-07 9.80235e-06
-8.39756e-22 1.73982e-07 4.28912e-06
2.55934e-20 2.93282e-07 8.29468e-06
-0.000126774 2.15053e-07 9.97384e-06
0.000126774 2.15053e-07 9.97384e-06
-1.11257e-21 -1.00062e-07 4.32855e-06
2.33718e-20 1.53127e-07 7.90105e-06
-0.000126703 -1.49369e-07 9.0462e-06
0.000126703 -1.49369e-07 9.0462e-06
-2.32257e-21 -6.86983e-07 2.99961e-06
6.22611e-21 -1.14528e-07 2.96834e-06
-0.00012658 2.91223e-07 7.68079e-06
0.00012658 2.91223e-07 7.68079e-06
-1.97855e-21 7.27912e-07 3.41438e-06
1.93182e-20 4.34615e-07 7.91153e-06
-0.000126687 3.83528e-07 9.8016e-06
0.000126687 3.83528e-07 9.8016e-06
-1.34025e-21 1.73954e-07 4.28914e-06
1.99913e-20 2.9319e-07 8.29393e-06
-0.000126718 2.14975e-07 9.97311e-06
0.000126718 2.14975e-07 9.97311e-06
-1.66854e-21 -1.00064e-07 4.32857e-06
1.9356e-20 1.53057e-07 7.90037e-06
-0.00012665 -1.49402e-07 9.04558e-06
0.00012665 -1.49402e-07 9.04558e-06
-2.79678e-21 -6.86933e-07 2.99974e-06
4.756e-21 -1.14544e-07 2.9681e-06
-0.000126529 2.91162e-07 7.68033e-06
0.000126529 2.91162e-07 7.68033e-06
-1.94777e-21 7.27847e-07 3.41446e-06
2.36965e-20 4.34534e-07 7.91093e-06
-0.000126639 3.83451e-07 9.801e-06
0.000126639 3.83451e-07 9.801e-06
7.29141e-23 1.73932e-07 4.28916e-06
2.97763e-20 2.93119e-07 8.29333e-06
-0.000126673 2.14914e-07 9.97251e-06
0.000126673 2.14914e-07 9.97251e-06
-8.1566e-22 -1.00065e-07 4.32858e-06
2.36197e-20 1.53004e-07 7.89982e-06
-0.000126606 -1.49427e-07 9.04508e-06
0.000126606 -1.49427e-07 9.04508e-06
-2.53381e-21 -6.86892e-07 2.99984e-06
5.04311e-21 -1.14557e-07 2.96791e-06
-0.000126488 2.91113e-07 7.67995e-06
0.000126488 2.91113e-07 7.67995e-06
-1.88565e-21 7.27794e-07 3.41453e-06
2.48421e-20 4.3447e-07 7.91044e-06
-0.0001266 3.83391e-07 9.8005e-06
0.0001266 3.83391e-07 9.8005e-06
9.27896e-25 1.73915e-07 4.28917e-06
2.99666e-20 2.93063e-07 8.29283e-06
-0.000126635 2.14866e-07 9.97203e-06
0.000126635 2.14866e-07 9.97203e-06
-8.89726e-22 -1.00066e-07 4.32859e-06
2.38333e-20 1.52962e-07 7.89937e-06
-0.000126571 -1.49445e-07 9.04467e-06
0.000126571 -1.49445e-07 9.04467e-06
-2.5738e-21 -6.86857e-07 2.99992e-06
5.09067e-21 -1.14566e-07 2.96775e-06
-0.000126454 2.91076e-07 7.67964e-06
0.000126454 2.91076e-07 7.67964e-06
-1.93116e-21 7.27751e-07 3.41459e-06
2.50447e-20 4.3442e-07 7.91002e-06
-0.000126567 3.83344e-07 9.80009e-06
0.000126567 3.83344e-07 9.80009e-06
-1.82152e-23 1.73901e-07 4.28918e-06
3.0207e-20 2.9302e-07 8.29241e-06
-0.000126604 2.1483e-07 9.97162e-06
0.000126604 2.1483e-07 9.97162e-06
-8.92092e-22 -1.00065e-07 4.3286e-06
2.41343e-20 1.52931e-07 7.89899e-06
-0.000126541 -1.49457e-07 9.04432e-06
0.000126541 -1.49457e-07 9.04432e-06
-2.58975e-21 -6.86828e-07 2.99999e-06
5.14952e-21 -1.14571e-07 2.96761e-06
-0.000126425 2.91047e-07 7.67937e-06
0.000126425 2.91047e-07 7.67937e-06
-1.94498e-21 7.27714e-07 3.41464e-06
2.52552e-20 4.34381e-07 7.90967e-06
-0.000126539 3.83309e-07 9.79974e-06
0.000126539 3.83309e-07 9.79974e-06
-2.6414e-23 1.7389e-07 4.28919e-06
3.0426e-20 2.92988e-07 8.29206e-06
-0.000126577 2.14803e-07 9.97127e-06
0.000126577 2.14803e-07 9.97127e-06
-8.96218e-22 -1.00064e-07 4.32861e-06
2.43321e-20 1.52908e-07 7.89865e-06
-0.000126514 -1.49464e-07 9.04402e-06
0.000126514 -1.49464e-07 9.04402e-06
-2.60821e-21 -6.86802e-07 3.00005e-06
5.19487e-21 -1.14574e-07 2.96749e-06
-0.0001264 2.91025e-07 7.67914e-06
0.0001264 2.91025e-07 7.67914e-06
-1.95693e-21 7.27683e-07 3.41468e-06
2.54107e-20 4.34351e-07 7.90936e-06
-0.000126515 3.83282e-07 9.79943e-06
0.000126515 3.83282e-07 9.79943e-06
-2.13746e-23 1.73881e-07 4.2892e-06
3.05687e-20 2.92964e-07 8.29174e-06
-0.000126553 2.14784e-07 9.97096e-06
0.000126553 2.14784e-07 9.97096e-06
-8.97631e-22 -1.00062e-07 4.32861e-06
2.4423e-20 1.52893e-07 7.89836e-06
-0.000126491 -1.49466e-07 9.04374e-06
0.000126491 -1.49466e-07 9.04374e-06
-2.61714e-21 -6.86777e-07 3.00011e-06
5.21384e-21 -1.14574e-07 2.96738e-06
-0.000126377 2.91009e-07 7.67892e-06
0.000126377 2.91009e-07 7.67892e-06
-1.96109e-21 7.27656e-07 3.41472e-06
2.54833e-20 4.34329e-07 7.90907e-06
-0.000126492 3.83262e-07 9.79914e-06
0.000126492 3.83262e-07 9.79914e-06
-1.91991e-23 1.73874e-07 4.28921e-06
3.06536e-20 2.92948e-07 8.29144e-06
-0.00012653 2.14772e-07 9.97067e-06
0.00012653 2.14772e-07 9.97067e-06
-8.9332e-22 -1.00059e-07 4.32862e-06
2.44867e-20 1.52883e-07 7.89807e-06
-0.000126469 -1.49464e-07 9.04349e-06
0.000126469 -1.49464e-07 9.04349e-06
-2.61581e-21 -6.86753e-07 3.00016e-06
5.22416e-21 -1.14571e-07 2.96728e-06
-0.000126355 2.90998e-07 7.67871e-06
0.000126355 2.90998e-07 7.67871e-06
-1.96116e-21 7.2763e-07 3.41476e-06
2.54955e-20 4.34314e-07 7.90879e-06
-0.00012647 3.83249e-07 9.79886e-06
0.00012647 3.83249e-07 9.79886e-06
-1.98957e-23 1.73867e-07 4.28922e-06
3.06469e-20 2.92938e-07 8.29115e-06
-0.000126508 2.14766e-07 9.97038e-06
0.000126508 2.14766e-07 9.97038e-06
-8.95156e-22 -1.00056e-07 4.32863e-06
2.44393e-20 1.5288e-07 7.89779e-06
-0.000126446 -1.49456e-07 9.04323e-06
0.000126446 -1.49456e-07 9.04323e-06
-2.6116e-21 -6.86728e-07 3.00022e-06
5.21625e-21 -1.14565e-07 2.96717e-06
-0.000126332 2.90991e-07 7.6785e-06
0.000126332 2.90991e-07 7.6785e-06
-1.95473e-21 7.27604e-07 3.4148e-06
2.54695e-20 4.34303e-07 7.90851e-06
-0.000126447 3.83241e-07 9.79857e-06
0.000126447 3.83241e-07 9.79857e-06
-1.35546e-23 1.73862e-07 4.28922e-06
3.05926e-20 2.92935e-07 8.29084e-06
-0.000126485 2.14765e-07 9.97008e-06
0.000126485 2.14765e-07 9.97008e-06
-8.89226e-22 -1.00051e-07 4.32863e-06
2.4379e-20 1.52882e-07 7.8975e-06
-0.000126423 -1.49443e-07 9.04296e-06
0.000126423 -1.49443e-07 9.04296e-06
-2.59869e-21 -6.86701e-07 3.00027e-06
5.18816e-21 -1.14555e-07 2.96706e-06
-0.000126308 2.90988e-07 7.67828e-06
0.000126308 2.90988e-07 7.67828e-06
-1.94783e-21 7.27578e-07 3.41484e-06
2.53166e-20 4.34298e-07 7.9082e-06
-0.000126422 3.83238e-07 9.79825e-06
0.000126422 3.83238e-07 9.79825e-06
-9.15089e-24 1.73858e-07 4.28923e-06
3.0478e-20 2.92937e-07 8.29051e-06
-0.00012646 2.1477e-07 9.96975e-06
0.00012646 2.1477e-07 9.96975e-06
-8.77604e-22 -1.00044e-07 4.32864e-06
2.42414e-20 1.5289e-07 7.89717e-06
-0.000126397 -1.49424e-07 9.04266e-06
0.000126397 -1.49424e-07 9.04266e-06
-2.58033e-21 -6.86671e-07 3.00034e-06
5.1442e-21 -1.14542e-07 2.96693e-06
-0.000126281 2.90989e-07 7.67802e-06
0.000126281 2.90989e-07 7.67802e-06
-1.93211e-21 7.27549e-07 3.41489e-06
2.51084e-20 4.34297e-07 7.90785e-06
-0.000126394 3.83241e-07 9.7979e-06
0.000126394 3.83241e-07 9.7979e-06
-2.38019e-24 1.73854e-07 4.28924e-06
3.01993e-20 2.92946e-07 8.29013e-06
-0.000126431 2.14782e-07 9.96938e-06
0.000126431 2.14782e-07 9.96938e-06
-8.78819e-22 -1.00035e-07 4.32865e-06
2.39826e-20 1.52904e-07 7.8968e-06
-0.000126367 -1.49398e-07 9.04232e-06
0.000126367 -1.49398e-07 9.04232e-06
-2.55354e-21 -6.86634e-07 3.00041e-06
5.07505e-21 -1.14525e-07 2.96678e-06
-0.00012625 2.90994e-07 7.67773e-06
0.00012625 2.90994e-07 7.67773e-06
-1.9124e-21 7.27516e-07 3.41494e-06
2.47359e-20 4.343e-07 7.90744e-06
-0.000126362 3.83248e-07 9.79748e-06
0.000126362 3.83248e-07 9.79748e-06
6.23402e-24 1.7385e-07 4.28925e-06
2.98082e-20 2.92961e-07 8.28968e-06
-0.000126397 2.14799e-07 9.96894e-06
0.000126397 2.14799e-07 9.96894e-06
-9.07674e-22 -1.00025e-07 4.32866e-06
2.31829e-20 1.52925e-07 7.89636e-06
-0.000126331 -1.49364e-07 9.04192e-06
0.000126331 -1.49364e-07 9.04192e-06
-2.58462e-21 -6.86591e-07 3.0005e-06
4.78261e-21 -1.14502e-07 2.9666e-06
-0.000126213 2.91003e-07 7.67738e-06
0.000126213 2.91003e-07 7.67738e-06
-2.0254e-21 7.27478e-07 3.41501e-06
2.26384e-20 4.34309e-07 7.90695e-06
-0.000126323 3.83261e-07 9.79698e-06
0.000126323 3.83261e-07 9.79698e-06
-8.4072e-22 1.73846e-07 4.28927e-06
2.64106e-20 2.92983e-07 8.28914e-06
-0.000126356 2.14825e-07 9.96841e-06
0.000126356 2.14825e-07 9.96841e-06
-1.18671e-21 -1.00011e-07 4.32867e-06
2.0428e-20 1.52954e-07 7.89582e-06
-0.000126288 -1.49319e-07 9.04142e-06
0.000126288 -1.49319e-07 9.04142e-06
-2.60069e-21 -6.86537e-07 3.0006e-06
4.94607e-21 -1.14472e-07 2.96639e-06
-0.000126168 2.91016e-07 7.67695e-06
0.000126168 2.91016e-07 7.67695e-06
-1.64076e-21 7.27431e-07 3.41509e-06
2.59607e-20 4.34321e-07 7.90634e-06
-0.000126275 3.83279e-07 9.79638e-06
0.000126275 3.83279e-07 9.79638e-06
-5.37117e-22 1.73841e-07 4.28928e-06
2.63729e-20 2.93012e-07 8.28849e-06
-0.000126306 2.14857e-07 9.96776e-06
0.000126306 2.14857e-07 9.96776e-06
-4.76595e-22 -9.99934e-08 4.32868e-06
2.32572e-20 1.5299e-07 7.89516e-06
-0.000126235 -1.49266e-07 9.04082e-06
0.000126235 -1.49266e-07 9.04082e-06
-2.44063e-21 -6.86471e-07 3.00073e-06
5.32395e-21 -1.14438e-07 2.96613e-06
-0.000126112 2.91025e-07 7.67642e-06
0.000126112 2.91025e-07 7.67642e-06
-1.92642e-21 7.27373e-07 3.41519e-06
2.23813e-20 4.34326e-07 7.90561e-06
-0.000126217 3.83284e-07 9.79563e-06
0.000126217 3.83284e-07 9.79563e-06
-8.28367e-22 1.73834e-07 4.2893e-06
2.40692e-20 2.93025e-07 8.28767e-06
-0.000126244 2.14863e-07 9.96696e-06
0.000126244 2.14863e-07 9.96696e-06
-7.79474e-22 -9.99747e-08 4.3287e-06
2.08205e-20 1.52992e-07 7.89435e-06
-0.00012617 -1.4926e-07 9.04009e-06
0.00012617 -1.4926e-07 9.04009e-06
-2.55218e-21 -6.86393e-07 3.00089e-06
4.7646e-21 -1.14449e-07 2.96581e-06
-0.000126043 2.90893e-07 7.67582e-06
0.000126043 2.90893e-07 7.67582e-06
-1.97636e-21 7.27289e-07 3.41529e-06
2.12243e-20 4.34117e-07 7.90473e-06
-0.000126143 3.82967e-07 9.79479e-06
0.000126143 3.82967e-07 9.79479e-06
-8.09127e-22 1.73792e-07 4.28929e-06
2.34924e-20 2.92623e-07 8.28674e-06
-0.000126166 2.14281e-07 9.96613e-06
0.000126166 2.14281e-07 9.96613e-06
-1.20522e-21 -1.00003e-07 4.32867e-06
2.05521e-20 1.52271e-07 7.89348e-06
-0.000126088 -1.50279e-07 9.03953e-06
0.000126088 -1.50279e-07 9.03953e-06
-2.4567e-21 -6.86362e-07 3.00097e-06
5.31225e-21 -1.15362e-07 2.96562e-06
-0.000125956 2.88347e-07 7.67596e-06
0.000125956 2.88347e-07 7.67596e-06
-1.8586e-21 7.26977e-07 3.41497e-06
2.18831e-20 4.30298e-07 7.90437e-06
-0.000126052 3.77258e-07 9.79523e-06
0.000126052 3.77258e-07 9.79523e-06
-5.63356e-22 1.73188e-07 4.28883e-06
2.61347e-20 2.85244e-07 8.28684e-06
-0.00012607 2.03891e-07 9.96773e-06
0.00012607 2.03891e-07 9.96773e-06
-8.25861e-22 -1.00896e-07 4.328e-06
2.03871e-20 1.39495e-07 7.8947e-06
-0.000125987 -1.68363e-07 9.04438e-06
0.000125987 -1.68363e-07 9.04438e-06
-2.51194e-21 -6.87426e-07 2.9993e-06
4.2715e-21 -1.3122e-07 2.96866e-06
-0.00012585 2.46223e-07 7.69065e-06
0.00012585 2.46223e-07 7.69065e-06
-1.97545e-21 7.23228e-07 3.40745e-06
2.19587e-20 3.67337e-07 7.916e-06
-0.000125943 2.83218e-07 9.82012e-06
0.000125943 2.83218e-07 9.82012e-06
-8.89251e-22 1.63525e-07 4.28079e-06
2.33041e-20 1.63601e-07 8.30765e-06
-0.000125962 3.28711e-08 1.0013e-05
0.000125962 3.28711e-08 1.0013e-05
-1.12546e-21 -1.15437e-07 4.31654e-06
2.14002e-20 -7.04639e-08 7.93364e-06
-0.000125884 -4.65866e-07 9.1429e-06
0.000125884 -4.65866e-07 9.1429e-06
-2.35899e-21 -7.03754e-07 2.96833e-06
5.04299e-21 -3.90977e-07 3.02628e-06
-0.000125755 -4.42605e-07 7.95725e-06
0.000125755 -4.42605e-07 7.95725e-06
-1.5383e-21 6.78268e-07 3.28493e-06
2.51769e-20 -6.56606e-07 8.14095e-06
-0.000125907 -1.25223e-06 1.03188e-05
0.000125907 -1.25223e-06 1.03188e-05
-2.11632e-22 6.63306e-08 4.17468e-06
2.92978e-20 -1.80121e-06 8.78585e-06
-0.000126035 -2.75033e-06 1.1164e-05
0.000126035 -2.75033e-06 1.1164e-05
4.7834e-22 -1.45261e-07 4.29486e-06
3.2276e-20 -3.40386e-06 9.37014e-06
-0.00012612 -5.25283e-06 1.27438e-05
0.00012612 -5.25283e-06 1.27438e-05
2.16477e-22 -5.39278e-07 3.38559e-06
3.11519e-20 -7.53143e-06 1.66756e-05
