# vtk DataFile Version 2.0
CELL
ASCII

DATASET UNSTRUCTURED_GRID
POINTS 501 double
0.000000000000000e+00 -5.000000000000000e-01 0.000000000000000e+00
5.000000000000000e+01 0.000000000000000e+00 0.000000000000000e+00
-5.000000000000000e+01 0.000000000000000e+00 0.000000000000000e+00
0.000000000000000e+00 0.000000000000000e+00 -1.000000000000000e+00
0.000000000000000e+00 5.000000000000000e-01 0.000000000000000e+00
5.000000000000000e+01 1.000000000000000e+00 0.000000000000000e+00
-5.000000000000000e+01 1.000000000000000e+00 0.000000000000000e+00
0.000000000000000e+00 1.000000000000000e+00 -1.000000000000000e+00
0.000000000000000e+00 1.500000000000000e+00 0.000000000000000e+00
5.000000000000000e+01 2.000000000000000e+00 0.000000000000000e+00
-5.000000000000000e+01 2.000000000000000e+00 0.000000000000000e+00
0.000000000000000e+00 2.000000000000000e+00 -1.000000000000000e+00
0.000000000000000e+00 2.500000000000000e+00 0.000000000000000e+00
5.000000000000000e+01 3.000000000000000e+00 0.000000000000000e+00
-5.000000000000000e+01 3.000000000000000e+00 0.000000000000000e+00
0.000000000000000e+00 3.000000000000000e+00 -1.000000000000000e+00
0.000000000000000e+00 3.500000000000000e+00 0.000000000000000e+00
5.000000000000000e+01 4.000000000000000e+00 0.000000000000000e+00
-5.000000000000000e+01 4.000000000000000e+00 0.000000000000000e+00
0.000000000000000e+00 4.000000000000000e+00 -1.000000000000000e+00
0.000000000000000e+00 4.500000000000000e+00 0.000000000000000e+00
5.000000000000000e+01 5.000000000000000e+00 0.000000000000000e+00
-5.000000000000000e+01 5.000000000000000e+00 0.000000000000000e+00
0.000000000000000e+00 5.000000000000000e+00 -1.000000000000000e+00
0.000000000000000e+00 5.500000000000000e+00 0.000000000000000e+00
5.000000000000000e+01 6.000000000000000e+00 0.000000000000000e+00
-5.000000000000000e+01 6.000000000000000e+00 0.000000000000000e+00
0.000000000000000e+00 6.000000000000000e+00 -1.000000000000000e+00
0.000000000000000e+00 6.500000000000000e+00 0.000000000000000e+00
5.000000000000000e+01 7.000000000000000e+00 0.000000000000000e+00
-5.000000000000000e+01 7.000000000000000e+00 0.000000000000000e+00
0.000000000000000e+00 7.000000000000000e+00 -1.000000000000000e+00
0.000000000000000e+00 7.500000000000000e+00 0.000000000000000e+00
5.000000000000000e+01 8.000000000000000e+00 0.000000000000000e+00
-5.000000000000000e+01 8.000000000000000e+00 0.000000000000000e+00
0.000000000000000e+00 8.000000000000000e+00 -1.000000000000000e+00
0.000000000000000e+00 8.500000000000000e+00 0.000000000000000e+00
5.000000000000000e+01 9.000000000000000e+00 0.000000000000000e+00
-5.000000000000000e+01 9.000000000000000e+00 0.000000000000000e+00
0.000000000000000e+00 9.000000000000000e+00 -1.000000000000000e+00
0.000000000000000e+00 9.500000000000000e+00 0.000000000000000e+00
5.000000000000000e+01 1.000000000000000e+01 0.000000000000000e+00
-5.000000000000000e+01 1.000000000000000e+01 0.000000000000000e+00
0.000000000000000e+00 1.000000000000000e+01 -1.000000000000000e+00
0.000000000000000e+00 1.050000000000000e+01 0.000000000000000e+00
5.000000000000000e+01 1.100000000000000e+01 0.000000000000000e+00
-5.000000000000000e+01 1.100000000000000e+01 0.000000000000000e+00
0.000000000000000e+00 1.100000000000000e+01 -1.000000000000000e+00
0.000000000000000e+00 1.150000000000000e+01 0.000000000000000e+00
5.000000000000000e+01 1.200000000000000e+01 0.000000000000000e+00
-5.000000000000000e+01 1.200000000000000e+01 0.000000000000000e+00
0.000000000000000e+00 1.200000000000000e+01 -1.000000000000000e+00
0.000000000000000e+00 1.250000000000000e+01 0.000000000000000e+00
5.000000000000000e+01 1.300000000000000e+01 0.000000000000000e+00
-5.000000000000000e+01 1.300000000000000e+01 0.000000000000000e+00
0.000000000000000e+00 1.300000000000000e+01 -1.000000000000000e+00
0.000000000000000e+00 1.350000000000000e+01 0.000000000000000e+00
5.000000000000000e+01 1.400000000000000e+01 0.000000000000000e+00
-5.000000000000000e+01 1.400000000000000e+01 0.000000000000000e+00
0.000000000000000e+00 1.400000000000000e+01 -1.000000000000000e+00
0.000000000000000e+00 1.450000000000000e+01 0.000000000000000e+00
5.000000000000000e+01 1.500000000000000e+01 0.000000000000000e+00
-5.000000000000000e+01 1.500000000000000e+01 0.000000000000000e+00
0.000000000000000e+00 1.500000000000000e+01 -1.000000000000000e+00
0.000000000000000e+00 1.550000000000000e+01 0.000000000000000e+00
5.000000000000000e+01 1.600000000000000e+01 0.000000000000000e+00
-5.000000000000000e+01 1.600000000000000e+01 0.000000000000000e+00
0.000000000000000e+00 1.600000000000000e+01 -1.000000000000000e+00
0.000000000000000e+00 1.650000000000000e+01 0.000000000000000e+00
5.000000000000000e+01 1.700000000000000e+01 0.000000000000000e+00
-5.000000000000000e+01 1.700000000000000e+01 0.000000000000000e+00
0.000000000000000e+00 1.700000000000000e+01 -1.000000000000000e+00
0.000000000000000e+00 1.750000000000000e+01 0.000000000000000e+00
5.000000000000000e+01 1.800000000000000e+01 0.000000000000000e+00
-5.000000000000000e+01 1.800000000000000e+01 0.000000000000000e+00
0.000000000000000e+00 1.800000000000000e+01 -1.000000000000000e+00
0.000000000000000e+00 1.850000000000000e+01 0.000000000000000e+00
5.000000000000000e+01 1.900000000000000e+01 0.000000000000000e+00
-5.000000000000000e+01 1.900000000000000e+01 0.000000000000000e+00
0.000000000000000e+00 1.900000000000000e+01 -1.000000000000000e+00
0.000000000000000e+00 1.950000000000000e+01 0.000000000000000e+00
5.000000000000000e+01 2.000000000000000e+01 0.000000000000000e+00
-5.000000000000000e+01 2.000000000000000e+01 0.000000000000000e+00
0.000000000000000e+00 2.000000000000000e+01 -1.000000000000000e+00
0.000000000000000e+00 2.050000000000000e+01 0.000000000000000e+00
5.000000000000000e+01 2.100000000000000e+01 0.000000000000000e+00
-5.000000000000000e+01 2.100000000000000e+01 0.000000000000000e+00
0.000000000000000e+00 2.100000000000000e+01 -1.000000000000000e+00
0.000000000000000e+00 2.150000000000000e+01 0.000000000000000e+00
5.000000000000000e+01 2.200000000000000e+01 0.000000000000000e+00
-5.000000000000000e+01 2.200000000000000e+01 0.000000000000000e+00
0.000000000000000e+00 2.200000000000000e+01 -1.000000000000000e+00
0.000000000000000e+00 2.250000000000000e+01 0.000000000000000e+00
5.000000000000000e+01 2.300000000000000e+01 0.000000000000000e+00
-5.000000000000000e+01 2.300000000000000e+01 0.000000000000000e+00
0.000000000000000e+00 2.300000000000000e+01 -1.000000000000000e+00
0.000000000000000e+00 2.350000000000000e+01 0.000000000000000e+00
5.000000000000000e+01 2.400000000000000e+01 0.000000000000000e+00
-5.000000000000000e+01 2.400000000000000e+01 0.000000000000000e+00
0.000000000000000e+00 2.400000000000000e+01 -1.000000000000000e+00
0.000000000000000e+00 2.450000000000000e+01 0.000000000000000e+00
5.000000000000000e+01 2.500000000000000e+01 0.000000000000000e+00
-5.000000000000000e+01 2.500000000000000e+01 0.000000000000000e+00
0.000000000000000e+00 2.500000000000000e+01 -1.000000000000000e+00
0.000000000000000e+00 2.550000000000000e+01 0.000000000000000e+00
5.000000000000000e+01 2.600000000000000e+01 0.000000000000000e+00
-5.000000000000000e+01 2.600000000000000e+01 0.000000000000000e+00
0.000000000000000e+00 2.600000000000000e+01 -1.000000000000000e+00
0.000000000000000e+00 2.650000000000000e+01 0.000000000000000e+00
5.000000000000000e+01 2.700000000000000e+01 0.000000000000000e+00
-5.000000000000000e+01 2.700000000000000e+01 0.000000000000000e+00
0.000000000000000e+00 2.700000000000000e+01 -1.000000000000000e+00
0.000000000000000e+00 2.750000000000000e+01 0.000000000000000e+00
5.000000000000000e+01 2.800000000000000e+01 0.000000000000000e+00
-5.000000000000000e+01 2.800000000000000e+01 0.000000000000000e+00
0.000000000000000e+00 2.800000000000000e+01 -1.000000000000000e+00
0.000000000000000e+00 2.850000000000000e+01 0.000000000000000e+00
5.000000000000000e+01 2.900000000000000e+01 0.000000000000000e+00
-5.000000000000000e+01 2.900000000000000e+01 0.000000000000000e+00
0.000000000000000e+00 2.900000000000000e+01 -1.000000000000000e+00
0.000000000000000e+00 2.950000000000000e+01 0.000000000000000e+00
5.000000000000000e+01 3.000000000000000e+01 0.000000000000000e+00
-5.000000000000000e+01 3.000000000000000e+01 0.000000000000000e+00
0.000000000000000e+00 3.000000000000000e+01 -1.000000000000000e+00
0.000000000000000e+00 3.050000000000000e+01 0.000000000000000e+00
5.000000000000000e+01 3.100000000000000e+01 0.000000000000000e+00
-5.000000000000000e+01 3.100000000000000e+01 0.000000000000000e+00
0.000000000000000e+00 3.100000000000000e+01 -1.000000000000000e+00
0.000000000000000e+00 3.150000000000000e+01 0.000000000000000e+00
5.000000000000000e+01 3.200000000000000e+01 0.000000000000000e+00
-5.000000000000000e+01 3.200000000000000e+01 0.000000000000000e+00
0.000000000000000e+00 3.200000000000000e+01 -1.000000000000000e+00
0.000000000000000e+00 3.250000000000000e+01 0.000000000000000e+00
5.000000000000000e+01 3.300000000000000e+01 0.000000000000000e+00
-5.000000000000000e+01 3.300000000000000e+01 0.000000000000000e+00
0.000000000000000e+00 3.300000000000000e+01 -1.000000000000000e+00
0.000000000000000e+00 3.350000000000000e+01 0.000000000000000e+00
5.000000000000000e+01 3.400000000000000e+01 0.000000000000000e+00
-5.000000000000000e+01 3.400000000000000e+01 0.000000000000000e+00
0.000000000000000e+00 3.400000000000000e+01 -1.000000000000000e+00
0.000000000000000e+00 3.450000000000000e+01 0.000000000000000e+00
5.000000000000000e+01 3.500000000000000e+01 0.000000000000000e+00
-5.000000000000000e+01 3.500000000000000e+01 0.000000000000000e+00
0.000000000000000e+00 3.500000000000000e+01 -1.000000000000000e+00
0.000000000000000e+00 3.550000000000000e+01 0.000000000000000e+00
5.000000000000000e+01 3.600000000000000e+01 0.000000000000000e+00
-5.000000000000000e+01 3.600000000000000e+01 0.000000000000000e+00
0.000000000000000e+00 3.600000000000000e+01 -1.000000000000000e+00
0.000000000000000e+00 3.650000000000000e+01 0.000000000000000e+00
5.000000000000000e+01 3.700000000000000e+01 0.000000000000000e+00
-5.000000000000000e+01 3.700000000000000e+01 0.000000000000000e+00
0.000000000000000e+00 3.700000000000000e+01 -1.000000000000000e+00
0.000000000000000e+00 3.750000000000000e+01 0.000000000000000e+00
5.000000000000000e+01 3.800000000000000e+01 0.000000000000000e+00
-5.000000000000000e+01 3.800000000000000e+01 0.000000000000000e+00
0.000000000000000e+00 3.800000000000000e+01 -1.000000000000000e+00
0.000000000000000e+00 3.850000000000000e+01 0.000000000000000e+00
5.000000000000000e+01 3.900000000000000e+01 0.000000000000000e+00
-5.000000000000000e+01 3.900000000000000e+01 0.000000000000000e+00
0.000000000000000e+00 3.900000000000000e+01 -1.000000000000000e+00
0.000000000000000e+00 3.950000000000000e+01 0.000000000000000e+00
5.000000000000000e+01 4.000000000000000e+01 0.000000000000000e+00
-5.000000000000000e+01 4.000000000000000e+01 0.000000000000000e+00
0.000000000000000e+00 4.000000000000000e+01 -1.000000000000000e+00
0.000000000000000e+00 4.050000000000000e+01 0.000000000000000e+00
5.000000000000000e+01 4.100000000000000e+01 0.000000000000000e+00
-5.000000000000000e+01 4.100000000000000e+01 0.000000000000000e+00
0.000000000000000e+00 4.100000000000000e+01 -1.000000000000000e+00
0.000000000000000e+00 4.150000000000000e+01 0.000000000000000e+00
5.000000000000000e+01 4.200000000000000e+01 0.000000000000000e+00
-5.000000000000000e+01 4.200000000000000e+01 0.000000000000000e+00
0.000000000000000e+00 4.200000000000000e+01 -1.000000000000000e+00
0.000000000000000e+00 4.250000000000000e+01 0.000000000000000e+00
5.000000000000000e+01 4.300000000000000e+01 0.000000000000000e+00
-5.000000000000000e+01 4.300000000000000e+01 0.000000000000000e+00
0.000000000000000e+00 4.300000000000000e+01 -1.000000000000000e+00
0.000000000000000e+00 4.350000000000000e+01 0.000000000000000e+00
5.000000000000000e+01 4.400000000000000e+01 0.000000000000000e+00
-5.000000000000000e+01 4.400000000000000e+01 0.000000000000000e+00
0.000000000000000e+00 4.400000000000000e+01 -1.000000000000000e+00
0.000000000000000e+00 4.450000000000000e+01 0.000000000000000e+00
5.000000000000000e+01 4.500000000000000e+01 0.000000000000000e+00
-5.000000000000000e+01 4.500000000000000e+01 0.000000000000000e+00
0.000000000000000e+00 4.500000000000000e+01 -1.000000000000000e+00
0.000000000000000e+00 4.550000000000000e+01 0.000000000000000e+00
5.000000000000000e+01 4.600000000000000e+01 0.000000000000000e+00
-5.000000000000000e+01 4.600000000000000e+01 0.000000000000000e+00
0.000000000000000e+00 4.600000000000000e+01 -1.000000000000000e+00
0.000000000000000e+00 4.650000000000000e+01 0.000000000000000e+00
5.000000000000000e+01 4.700000000000000e+01 0.000000000000000e+00
-5.000000000000000e+01 4.700000000000000e+01 0.000000000000000e+00
0.000000000000000e+00 4.700000000000000e+01 -1.000000000000000e+00
0.000000000000000e+00 4.750000000000000e+01 0.000000000000000e+00
5.000000000000000e+01 4.800000000000000e+01 0.000000000000000e+00
-5.000000000000000e+01 4.800000000000000e+01 0.000000000000000e+00
0.000000000000000e+00 4.800000000000000e+01 -1.000000000000000e+00
0.000000000000000e+00 4.850000000000000e+01 0.000000000000000e+00
5.000000000000000e+01 4.900000000000000e+01 0.000000000000000e+00
-5.000000000000000e+01 4.900000000000000e+01 0.000000000000000e+00
0.000000000000000e+00 4.900000000000000e+01 -1.000000000000000e+00
0.000000000000000e+00 4.950000000000000e+01 0.000000000000000e+00
5.000000000000000e+01 5.000000000000000e+01 0.000000000000000e+00
-5.000000000000000e+01 5.000000000000000e+01 0.000000000000000e+00
0.000000000000000e+00 5.000000000000000e+01 -1.000000000000000e+00
0.000000000000000e+00 5.050000000000000e+01 0.000000000000000e+00
5.000000000000000e+01 5.100000000000000e+01 0.000000000000000e+00
-5.000000000000000e+01 5.100000000000000e+01 0.000000000000000e+00
0.000000000000000e+00 5.100000000000000e+01 -1.000000000000000e+00
0.000000000000000e+00 5.150000000000000e+01 0.000000000000000e+00
5.000000000000000e+01 5.200000000000000e+01 0.000000000000000e+00
-5.000000000000000e+01 5.200000000000000e+01 0.000000000000000e+00
0.000000000000000e+00 5.200000000000000e+01 -1.000000000000000e+00
0.000000000000000e+00 5.250000000000000e+01 0.000000000000000e+00
5.000000000000000e+01 5.300000000000000e+01 0.000000000000000e+00
-5.000000000000000e+01 5.300000000000000e+01 0.000000000000000e+00
0.000000000000000e+00 5.300000000000000e+01 -1.000000000000000e+00
0.000000000000000e+00 5.350000000000000e+01 0.000000000000000e+00
5.000000000000000e+01 5.400000000000000e+01 0.000000000000000e+00
-5.000000000000000e+01 5.400000000000000e+01 0.000000000000000e+00
0.000000000000000e+00 5.400000000000000e+01 -1.000000000000000e+00
0.000000000000000e+00 5.450000000000000e+01 0.000000000000000e+00
5.000000000000000e+01 5.500000000000000e+01 0.000000000000000e+00
-5.000000000000000e+01 5.500000000000000e+01 0.000000000000000e+00
0.000000000000000e+00 5.500000000000000e+01 -1.000000000000000e+00
0.000000000000000e+00 5.550000000000000e+01 0.000000000000000e+00
5.000000000000000e+01 5.600000000000000e+01 0.000000000000000e+00
-5.000000000000000e+01 5.600000000000000e+01 0.000000000000000e+00
0.000000000000000e+00 5.600000000000000e+01 -1.000000000000000e+00
0.000000000000000e+00 5.650000000000000e+01 0.000000000000000e+00
5.000000000000000e+01 5.700000000000000e+01 0.000000000000000e+00
-5.000000000000000e+01 5.700000000000000e+01 0.000000000000000e+00
0.000000000000000e+00 5.700000000000000e+01 -1.000000000000000e+00
0.000000000000000e+00 5.750000000000000e+01 0.000000000000000e+00
5.000000000000000e+01 5.800000000000000e+01 0.000000000000000e+00
-5.000000000000000e+01 5.800000000000000e+01 0.000000000000000e+00
0.000000000000000e+00 5.800000000000000e+01 -1.000000000000000e+00
0.000000000000000e+00 5.850000000000000e+01 0.000000000000000e+00
5.000000000000000e+01 5.900000000000000e+01 0.000000000000000e+00
-5.000000000000000e+01 5.900000000000000e+01 0.000000000000000e+00
0.000000000000000e+00 5.900000000000000e+01 -1.000000000000000e+00
0.000000000000000e+00 5.950000000000000e+01 0.000000000000000e+00
5.000000000000000e+01 6.000000000000000e+01 0.000000000000000e+00
-5.000000000000000e+01 6.000000000000000e+01 0.000000000000000e+00
0.000000000000000e+00 6.000000000000000e+01 -1.000000000000000e+00
0.000000000000000e+00 6.050000000000000e+01 0.000000000000000e+00
5.000000000000000e+01 6.100000000000000e+01 0.000000000000000e+00
-5.000000000000000e+01 6.100000000000000e+01 0.000000000000000e+00
0.000000000000000e+00 6.100000000000000e+01 -1.000000000000000e+00
0.000000000000000e+00 6.150000000000000e+01 0.000000000000000e+00
5.000000000000000e+01 6.200000000000000e+01 0.000000000000000e+00
-5.000000000000000e+01 6.200000000000000e+01 0.000000000000000e+00
0.000000000000000e+00 6.200000000000000e+01 -1.000000000000000e+00
0.000000000000000e+00 6.250000000000000e+01 0.000000000000000e+00
5.000000000000000e+01 6.300000000000000e+01 0.000000000000000e+00
-5.000000000000000e+01 6.300000000000000e+01 0.000000000000000e+00
0.000000000000000e+00 6.300000000000000e+01 -1.000000000000000e+00
0.000000000000000e+00 6.350000000000000e+01 0.000000000000000e+00
5.000000000000000e+01 6.400000000000000e+01 0.000000000000000e+00
-5.000000000000000e+01 6.400000000000000e+01 0.000000000000000e+00
0.000000000000000e+00 6.400000000000000e+01 -1.000000000000000e+00
0.000000000000000e+00 6.450000000000000e+01 0.000000000000000e+00
5.000000000000000e+01 6.500000000000000e+01 0.000000000000000e+00
-5.000000000000000e+01 6.500000000000000e+01 0.000000000000000e+00
0.000000000000000e+00 6.500000000000000e+01 -1.000000000000000e+00
0.000000000000000e+00 6.550000000000000e+01 0.000000000000000e+00
5.000000000000000e+01 6.600000000000000e+01 0.000000000000000e+00
-5.000000000000000e+01 6.600000000000000e+01 0.000000000000000e+00
0.000000000000000e+00 6.600000000000000e+01 -1.000000000000000e+00
0.000000000000000e+00 6.650000000000000e+01 0.000000000000000e+00
5.000000000000000e+01 6.700000000000000e+01 0.000000000000000e+00
-5.000000000000000e+01 6.700000000000000e+01 0.000000000000000e+00
0.000000000000000e+00 6.700000000000000e+01 -1.000000000000000e+00
0.000000000000000e+00 6.750000000000000e+01 0.000000000000000e+00
5.000000000000000e+01 6.800000000000000e+01 0.000000000000000e+00
-5.000000000000000e+01 6.800000000000000e+01 0.000000000000000e+00
0.000000000000000e+00 6.800000000000000e+01 -1.000000000000000e+00
0.000000000000000e+00 6.850000000000000e+01 0.000000000000000e+00
5.000000000000000e+01 6.900000000000000e+01 0.000000000000000e+00
-5.000000000000000e+01 6.900000000000000e+01 0.000000000000000e+00
0.000000000000000e+00 6.900000000000000e+01 -1.000000000000000e+00
0.000000000000000e+00 6.950000000000000e+01 0.000000000000000e+00
5.000000000000000e+01 7.000000000000000e+01 0.000000000000000e+00
-5.000000000000000e+01 7.000000000000000e+01 0.000000000000000e+00
0.000000000000000e+00 7.000000000000000e+01 -1.000000000000000e+00
0.000000000000000e+00 7.050000000000000e+01 0.000000000000000e+00
5.000000000000000e+01 7.100000000000000e+01 0.000000000000000e+00
-5.000000000000000e+01 7.100000000000000e+01 0.000000000000000e+00
0.000000000000000e+00 7.100000000000000e+01 -1.000000000000000e+00
0.000000000000000e+00 7.150000000000000e+01 0.000000000000000e+00
5.000000000000000e+01 7.200000000000000e+01 0.000000000000000e+00
-5.000000000000000e+01 7.200000000000000e+01 0.000000000000000e+00
0.000000000000000e+00 7.200000000000000e+01 -1.000000000000000e+00
0.000000000000000e+00 7.250000000000000e+01 0.000000000000000e+00
5.000000000000000e+01 7.300000000000000e+01 0.000000000000000e+00
-5.000000000000000e+01 7.300000000000000e+01 0.000000000000000e+00
0.000000000000000e+00 7.300000000000000e+01 -1.000000000000000e+00
0.000000000000000e+00 7.350000000000000e+01 0.000000000000000e+00
5.000000000000000e+01 7.400000000000000e+01 0.000000000000000e+00
-5.000000000000000e+01 7.400000000000000e+01 0.000000000000000e+00
0.000000000000000e+00 7.400000000000000e+01 -1.000000000000000e+00
0.000000000000000e+00 7.450000000000000e+01 0.000000000000000e+00
5.000000000000000e+01 7.500000000000000e+01 0.000000000000000e+00
-5.000000000000000e+01 7.500000000000000e+01 0.000000000000000e+00
0.000000000000000e+00 7.500000000000000e+01 -1.000000000000000e+00
0.000000000000000e+00 7.550000000000000e+01 0.000000000000000e+00
5.000000000000000e+01 7.600000000000000e+01 0.000000000000000e+00
-5.000000000000000e+01 7.600000000000000e+01 0.000000000000000e+00
0.000000000000000e+00 7.600000000000000e+01 -1.000000000000000e+00
0.000000000000000e+00 7.650000000000000e+01 0.000000000000000e+00
5.000000000000000e+01 7.700000000000000e+01 0.000000000000000e+00
-5.000000000000000e+01 7.700000000000000e+01 0.000000000000000e+00
0.000000000000000e+00 7.700000000000000e+01 -1.000000000000000e+00
0.000000000000000e+00 7.750000000000000e+01 0.000000000000000e+00
5.000000000000000e+01 7.800000000000000e+01 0.000000000000000e+00
-5.000000000000000e+01 7.800000000000000e+01 0.000000000000000e+00
0.000000000000000e+00 7.800000000000000e+01 -1.000000000000000e+00
0.000000000000000e+00 7.850000000000000e+01 0.000000000000000e+00
5.000000000000000e+01 7.900000000000000e+01 0.000000000000000e+00
-5.000000000000000e+01 7.900000000000000e+01 0.000000000000000e+00
0.000000000000000e+00 7.900000000000000e+01 -1.000000000000000e+00
0.000000000000000e+00 7.950000000000000e+01 0.000000000000000e+00
5.000000000000000e+01 8.000000000000000e+01 0.000000000000000e+00
-5.000000000000000e+01 8.000000000000000e+01 0.000000000000000e+00
0.000000000000000e+00 8.000000000000000e+01 -1.000000000000000e+00
0.000000000000000e+00 8.050000000000000e+01 0.000000000000000e+00
5.000000000000000e+01 8.100000000000000e+01 0.000000000000000e+00
-5.000000000000000e+01 8.100000000000000e+01 0.000000000000000e+00
0.000000000000000e+00 8.100000000000000e+01 -1.000000000000000e+00
0.000000000000000e+00 8.150000000000000e+01 0.000000000000000e+00
5.000000000000000e+01 8.200000000000000e+01 0.000000000000000e+00
-5.000000000000000e+01 8.200000000000000e+01 0.000000000000000e+00
0.000000000000000e+00 8.200000000000000e+01 -1.000000000000000e+00
0.000000000000000e+00 8.250000000000000e+01 0.000000000000000e+00
5.000000000000000e+01 8.300000000000000e+01 0.000000000000000e+00
-5.000000000000000e+01 8.300000000000000e+01 0.000000000000000e+00
0.000000000000000e+00 8.300000000000000e+01 -1.000000000000000e+00
0.000000000000000e+00 8.350000000000000e+01 0.000000000000000e+00
5.000000000000000e+01 8.400000000000000e+01 0.000000000000000e+00
-5.000000000000000e+01 8.400000000000000e+01 0.000000000000000e+00
0.000000000000000e+00 8.400000000000000e+01 -1.000000000000000e+00
0.000000000000000e+00 8.450000000000000e+01 0.000000000000000e+00
5.000000000000000e+01 8.500000000000000e+01 0.000000000000000e+00
-5.000000000000000e+01 8.500000000000000e+01 0.000000000000000e+00
0.000000000000000e+00 8.500000000000000e+01 -1.000000000000000e+00
0.000000000000000e+00 8.550000000000000e+01 0.000000000000000e+00
5.000000000000000e+01 8.600000000000000e+01 0.000000000000000e+00
-5.000000000000000e+01 8.600000000000000e+01 0.000000000000000e+00
0.000000000000000e+00 8.600000000000000e+01 -1.000000000000000e+00
0.000000000000000e+00 8.650000000000000e+01 0.000000000000000e+00
5.000000000000000e+01 8.700000000000000e+01 0.000000000000000e+00
-5.000000000000000e+01 8.700000000000000e+01 0.000000000000000e+00
0.000000000000000e+00 8.700000000000000e+01 -1.000000000000000e+00
0.000000000000000e+00 8.750000000000000e+01 0.000000000000000e+00
5.000000000000000e+01 8.800000000000000e+01 0.000000000000000e+00
-5.000000000000000e+01 8.800000000000000e+01 0.000000000000000e+00
0.000000000000000e+00 8.800000000000000e+01 -1.000000000000000e+00
0.000000000000000e+00 8.850000000000000e+01 0.000000000000000e+00
5.000000000000000e+01 8.900000000000000e+01 0.000000000000000e+00
-5.000000000000000e+01 8.900000000000000e+01 0.000000000000000e+00
0.000000000000000e+00 8.900000000000000e+01 -1.000000000000000e+00
0.000000000000000e+00 8.950000000000000e+01 0.000000000000000e+00
5.000000000000000e+01 9.000000000000000e+01 0.000000000000000e+00
-5.000000000000000e+01 9.000000000000000e+01 0.000000000000000e+00
0.000000000000000e+00 9.000000000000000e+01 -1.000000000000000e+00
0.000000000000000e+00 9.050000000000000e+01 0.000000000000000e+00
5.000000000000000e+01 9.100000000000000e+01 0.000000000000000e+00
-5.000000000000000e+01 9.100000000000000e+01 0.000000000000000e+00
0.000000000000000e+00 9.100000000000000e+01 -1.000000000000000e+00
0.000000000000000e+00 9.150000000000000e+01 0.000000000000000e+00
5.000000000000000e+01 9.200000000000000e+01 0.000000000000000e+00
-5.000000000000000e+01 9.200000000000000e+01 0.000000000000000e+00
0.000000000000000e+00 9.200000000000000e+01 -1.000000000000000e+00
0.000000000000000e+00 9.250000000000000e+01 0.000000000000000e+00
5.000000000000000e+01 9.300000000000000e+01 0.000000000000000e+00
-5.000000000000000e+01 9.300000000000000e+01 0.000000000000000e+00
0.000000000000000e+00 9.300000000000000e+01 -1.000000000000000e+00
0.000000000000000e+00 9.350000000000000e+01 0.000000000000000e+00
5.000000000000000e+01 9.400000000000000e+01 0.000000000000000e+00
-5.000000000000000e+01 9.400000000000000e+01 0.000000000000000e+00
0.000000000000000e+00 9.400000000000000e+01 -1.000000000000000e+00
0.000000000000000e+00 9.450000000000000e+01 0.000000000000000e+00
5.000000000000000e+01 9.500000000000000e+01 0.000000000000000e+00
-5.000000000000000e+01 9.500000000000000e+01 0.000000000000000e+00
0.000000000000000e+00 9.500000000000000e+01 -1.000000000000000e+00
0.000000000000000e+00 9.550000000000000e+01 0.000000000000000e+00
5.000000000000000e+01 9.600000000000000e+01 0.000000000000000e+00
-5.000000000000000e+01 9.600000000000000e+01 0.000000000000000e+00
0.000000000000000e+00 9.600000000000000e+01 -1.000000000000000e+00
0.000000000000000e+00 9.650000000000000e+01 0.000000000000000e+00
5.000000000000000e+01 9.700000000000000e+01 0.000000000000000e+00
-5.000000000000000e+01 9.700000000000000e+01 0.000000000000000e+00
0.000000000000000e+00 9.700000000000000e+01 -1.000000000000000e+00
0.000000000000000e+00 9.750000000000000e+01 0.000000000000000e+00
5.000000000000000e+01 9.800000000000000e+01 0.000000000000000e+00
-5.000000000000000e+01 9.800000000000000e+01 0.000000000000000e+00
0.000000000000000e+00 9.800000000000000e+01 -1.000000000000000e+00
0.000000000000000e+00 9.850000000000000e+01 0.000000000000000e+00
5.000000000000000e+01 9.900000000000000e+01 0.000000000000000e+00
-5.000000000000000e+01 9.900000000000000e+01 0.000000000000000e+00
0.000000000000000e+00 9.900000000000000e+01 -1.000000000000000e+00
0.000000000000000e+00 9.950000000000000e+01 0.000000000000000e+00
0.000000000000000e+00 0.000000000000000e+00 0.000000000000000e+00
0.000000000000000e+00 1.000000000000000e+00 0.000000000000000e+00
0.000000000000000e+00 2.000000000000000e+00 0.000000000000000e+00
0.000000000000000e+00 3.000000000000000e+00 0.000000000000000e+00
0.000000000000000e+00 4.000000000000000e+00 0.000000000000000e+00
0.000000000000000e+00 5.000000000000000e+00 0.000000000000000e+00
0.000000000000000e+00 6.000000000000000e+00 0.000000000000000e+00
0.000000000000000e+00 7.000000000000000e+00 0.000000000000000e+00
0.000000000000000e+00 8.000000000000000e+00 0.000000000000000e+00
0.000000000000000e+00 9.000000000000000e+00 0.000000000000000e+00
0.000000000000000e+00 1.000000000000000e+01 0.000000000000000e+00
0.000000000000000e+00 1.100000000000000e+01 0.000000000000000e+00
0.000000000000000e+00 1.200000000000000e+01 0.000000000000000e+00
0.000000000000000e+00 1.300000000000000e+01 0.000000000000000e+00
0.000000000000000e+00 1.400000000000000e+01 0.000000000000000e+00
0.000000000000000e+00 1.500000000000000e+01 0.000000000000000e+00
0.000000000000000e+00 1.600000000000000e+01 0.000000000000000e+00
0.000000000000000e+00 1.700000000000000e+01 0.000000000000000e+00
0.000000000000000e+00 1.800000000000000e+01 0.000000000000000e+00
0.000000000000000e+00 1.900000000000000e+01 0.000000000000000e+00
0.000000000000000e+00 2.000000000000000e+01 0.000000000000000e+00
0.000000000000000e+00 2.100000000000000e+01 0.000000000000000e+00
0.000000000000000e+00 2.200000000000000e+01 0.000000000000000e+00
0.000000000000000e+00 2.300000000000000e+01 0.000000000000000e+00
0.000000000000000e+00 2.400000000000000e+01 0.000000000000000e+00
0.000000000000000e+00 2.500000000000000e+01 0.000000000000000e+00
0.000000000000000e+00 2.600000000000000e+01 0.000000000000000e+00
0.000000000000000e+00 2.700000000000000e+01 0.000000000000000e+00
0.000000000000000e+00 2.800000000000000e+01 0.000000000000000e+00
0.000000000000000e+00 2.900000000000000e+01 0.000000000000000e+00
0.000000000000000e+00 3.000000000000000e+01 0.000000000000000e+00
0.000000000000000e+00 3.100000000000000e+01 0.000000000000000e+00
0.000000000000000e+00 3.200000000000000e+01 0.000000000000000e+00
0.000000000000000e+00 3.300000000000000e+01 0.000000000000000e+00
0.000000000000000e+00 3.400000000000000e+01 0.000000000000000e+00
0.000000000000000e+00 3.500000000000000e+01 0.000000000000000e+00
0.000000000000000e+00 3.600000000000000e+01 0.000000000000000e+00
0.000000000000000e+00 3.700000000000000e+01 0.000000000000000e+00
0.000000000000000e+00 3.800000000000000e+01 0.000000000000000e+00
0.000000000000000e+00 3.900000000000000e+01 0.000000000000000e+00
0.000000000000000e+00 4.000000000000000e+01 0.000000000000000e+00
0.000000000000000e+00 4.100000000000000e+01 0.000000000000000e+00
0.000000000000000e+00 4.200000000000000e+01 0.000000000000000e+00
0.000000000000000e+00 4.300000000000000e+01 0.000000000000000e+00
0.000000000000000e+00 4.400000000000000e+01 0.000000000000000e+00
0.000000000000000e+00 4.500000000000000e+01 0.000000000000000e+00
0.000000000000000e+00 4.600000000000000e+01 0.000000000000000e+00
0.000000000000000e+00 4.700000000000000e+01 0.000000000000000e+00
0.000000000000000e+00 4.800000000000000e+01 0.000000000000000e+00
0.000000000000000e+00 4.900000000000000e+01 0.000000000000000e+00
0.000000000000000e+00 5.000000000000000e+01 0.000000000000000e+00
0.000000000000000e+00 5.100000000000000e+01 0.000000000000000e+00
0.000000000000000e+00 5.200000000000000e+01 0.000000000000000e+00
0.000000000000000e+00 5.300000000000000e+01 0.000000000000000e+00
0.000000000000000e+00 5.400000000000000e+01 0.000000000000000e+00
0.000000000000000e+00 5.500000000000000e+01 0.000000000000000e+00
0.000000000000000e+00 5.600000000000000e+01 0.000000000000000e+00
0.000000000000000e+00 5.700000000000000e+01 0.000000000000000e+00
0.000000000000000e+00 5.800000000000000e+01 0.000000000000000e+00
0.000000000000000e+00 5.900000000000000e+01 0.000000000000000e+00
0.000000000000000e+00 6.000000000000000e+01 0.000000000000000e+00
0.000000000000000e+00 6.100000000000000e+01 0.000000000000000e+00
0.000000000000000e+00 6.200000000000000e+01 0.000000000000000e+00
0.000000000000000e+00 6.300000000000000e+01 0.000000000000000e+00
0.000000000000000e+00 6.400000000000000e+01 0.000000000000000e+00
0.000000000000000e+00 6.500000000000000e+01 0.000000000000000e+00
0.000000000000000e+00 6.600000000000000e+01 0.000000000000000e+00
0.000000000000000e+00 6.700000000000000e+01 0.000000000000000e+00
0.000000000000000e+00 6.800000000000000e+01 0.000000000000000e+00
0.000000000000000e+00 6.900000000000000e+01 0.000000000000000e+00
0.000000000000000e+00 7.000000000000000e+01 0.000000000000000e+00
0.000000000000000e+00 7.100000000000000e+01 0.000000000000000e+00
0.000000000000000e+00 7.200000000000000e+01 0.000000000000000e+00
0.000000000000000e+00 7.300000000000000e+01 0.000000000000000e+00
0.000000000000000e+00 7.400000000000000e+01 0.000000000000000e+00
0.000000000000000e+00 7.500000000000000e+01 0.000000000000000e+00
0.000000000000000e+00 7.600000000000000e+01 0.000000000000000e+00
0.000000000000000e+00 7.700000000000000e+01 0.000000000000000e+00
0.000000000000000e+00 7.800000000000000e+01 0.000000000000000e+00
0.000000000000000e+00 7.900000000000000e+01 0.000000000000000e+00
0.000000000000000e+00 8.000000000000000e+01 0.000000000000000e+00
0.000000000000000e+00 8.100000000000000e+01 0.000000000000000e+00
0.000000000000000e+00 8.200000000000000e+01 0.000000000000000e+00
0.000000000000000e+00 8.300000000000000e+01 0.000000000000000e+00
0.000000000000000e+00 8.400000000000000e+01 0.000000000000000e+00
0.000000000000000e+00 8.500000000000000e+01 0.000000000000000e+00
0.000000000000000e+00 8.600000000000000e+01 0.000000000000000e+00
0.000000000000000e+00 8.700000000000000e+01 0.000000000000000e+00
0.000000000000000e+00 8.800000000000000e+01 0.000000000000000e+00
0.000000000000000e+00 8.900000000000000e+01 0.000000000000000e+00
0.000000000000000e+00 9.000000000000000e+01 0.000000000000000e+00
0.000000000000000e+00 9.100000000000000e+01 0.000000000000000e+00
0.000000000000000e+00 9.200000000000000e+01 0.000000000000000e+00
0.000000000000000e+00 9.300000000000000e+01 0.000000000000000e+00
0.000000000000000e+00 9.400000000000000e+01 0.000000000000000e+00
0.000000000000000e+00 9.500000000000000e+01 0.000000000000000e+00
0.000000000000000e+00 9.600000000000000e+01 0.000000000000000e+00
0.000000000000000e+00 9.700000000000000e+01 0.000000000000000e+00
0.000000000000000e+00 9.800000000000000e+01 0.000000000000000e+00
0.000000000000000e+00 9.900000000000000e+01 0.000000000000000e+00
CELLS 796 3980
4 394 396 395 398
4 395 396 398 399
4 401 0 3 1
4 401 0 3 2
4 402 4 7 5
4 402 4 7 6
4 403 8 11 9
4 403 8 11 10
4 404 12 15 13
4 404 12 15 14
4 405 16 19 17
4 405 16 19 18
4 406 20 23 21
4 406 20 23 22
4 407 24 27 25
4 407 24 27 26
4 408 28 31 29
4 408 28 31 30
4 409 32 35 33
4 409 32 35 34
4 410 36 39 37
4 410 36 39 38
4 411 40 43 41
4 411 40 43 42
4 412 44 47 45
4 412 44 47 46
4 413 48 51 49
4 413 48 51 50
4 414 52 55 53
4 414 52 55 54
4 415 56 59 57
4 415 56 59 58
4 416 60 63 61
4 416 60 63 62
4 417 64 67 65
4 417 64 67 66
4 418 68 71 69
4 418 68 71 70
4 419 72 75 73
4 419 72 75 74
4 420 76 79 77
4 420 76 79 78
4 421 80 83 81
4 421 80 83 82
4 422 84 87 85
4 422 84 87 86
4 423 88 91 89
4 423 88 91 90
4 424 92 95 93
4 424 92 95 94
4 425 96 99 97
4 425 96 99 98
4 426 100 103 101
4 426 100 103 102
4 427 104 107 105
4 427 104 107 106
4 428 108 111 109
4 428 108 111 110
4 429 112 115 113
4 429 112 115 114
4 430 116 119 117
4 430 116 119 118
4 431 120 123 121
4 431 120 123 122
4 432 124 127 125
4 432 124 127 126
4 433 128 131 129
4 433 128 131 130
4 434 132 135 133
4 434 132 135 134
4 435 136 139 137
4 435 136 139 138
4 436 140 143 141
4 436 140 143 142
4 437 144 147 145
4 437 144 147 146
4 438 148 151 149
4 438 148 151 150
4 439 152 155 153
4 439 152 155 154
4 440 156 159 157
4 440 156 159 158
4 441 160 163 161
4 441 160 163 162
4 442 164 167 165
4 442 164 167 166
4 443 168 171 169
4 443 168 171 170
4 444 172 175 173
4 444 172 175 174
4 445 176 179 177
4 445 176 179 178
4 446 180 183 181
4 446 180 183 182
4 447 184 187 185
4 447 184 187 186
4 448 188 191 189
4 448 188 191 190
4 449 192 195 193
4 449 192 195 194
4 450 196 199 197
4 450 196 199 198
4 451 200 203 201
4 451 200 203 202
4 452 204 207 205
4 452 204 207 206
4 453 208 211 209
4 453 208 211 210
4 454 212 215 213
4 454 212 215 214
4 455 216 219 217
4 455 216 219 218
4 456 220 223 221
4 456 220 223 222
4 457 224 227 225
4 457 224 227 226
4 458 228 231 229
4 458 228 231 230
4 459 232 235 233
4 459 232 235 234
4 460 236 239 237
4 460 236 239 238
4 461 240 243 241
4 461 240 243 242
4 462 244 247 245
4 462 244 247 246
4 463 248 251 249
4 463 248 251 250
4 464 252 255 253
4 464 252 255 254
4 465 256 259 257
4 465 256 259 258
4 466 260 263 261
4 466 260 263 262
4 467 264 267 265
4 467 264 267 266
4 468 268 271 269
4 468 268 271 270
4 469 272 275 273
4 469 272 275 274
4 470 276 279 277
4 470 276 279 278
4 471 280 283 281
4 471 280 283 282
4 472 284 287 285
4 472 284 287 286
4 473 288 291 289
4 473 288 291 290
4 474 292 295 293
4 474 292 295 294
4 475 296 299 297
4 475 296 299 298
4 476 300 303 301
4 476 300 303 302
4 477 304 307 305
4 477 304 307 306
4 478 308 311 309
4 478 308 311 310
4 479 312 315 313
4 479 312 315 314
4 480 316 319 317
4 480 316 319 318
4 481 320 323 321
4 481 320 323 322
4 482 324 327 325
4 482 324 327 326
4 483 328 331 329
4 483 328 331 330
4 484 332 335 333
4 484 332 335 334
4 485 336 339 337
4 485 336 339 338
4 486 340 343 341
4 486 340 343 342
4 487 344 347 345
4 487 344 347 346
4 488 348 351 349
4 488 348 351 350
4 489 352 355 353
4 489 352 355 354
4 490 356 359 357
4 490 356 359 358
4 491 360 363 361
4 491 360 363 362
4 492 364 367 365
4 492 364 367 366
4 493 368 371 369
4 493 368 371 370
4 494 372 375 373
4 494 372 375 374
4 495 376 379 377
4 495 376 379 378
4 496 380 383 381
4 496 380 383 382
4 497 384 387 385
4 497 384 387 386
4 498 388 391 389
4 498 388 391 390
4 499 392 395 393
4 499 392 395 394
4 1 4 3 5
4 3 4 5 7
4 2 4 3 6
4 3 4 6 7
4 5 8 7 9
4 7 8 9 11
4 6 8 7 10
4 7 8 10 11
4 9 12 11 13
4 11 12 13 15
4 10 12 11 14
4 11 12 14 15
4 13 16 15 17
4 15 16 17 19
4 14 16 15 18
4 15 16 18 19
4 17 20 19 21
4 19 20 21 23
4 18 20 19 22
4 19 20 22 23
4 21 24 23 25
4 23 24 25 27
4 22 24 23 26
4 23 24 26 27
4 25 28 27 29
4 27 28 29 31
4 26 28 27 30
4 27 28 30 31
4 29 32 31 33
4 31 32 33 35
4 30 32 31 34
4 31 32 34 35
4 33 36 35 37
4 35 36 37 39
4 34 36 35 38
4 35 36 38 39
4 37 40 39 41
4 39 40 41 43
4 38 40 39 42
4 39 40 42 43
4 41 44 43 45
4 43 44 45 47
4 42 44 43 46
4 43 44 46 47
4 45 48 47 49
4 47 48 49 51
4 46 48 47 50
4 47 48 50 51
4 49 52 51 53
4 51 52 53 55
4 50 52 51 54
4 51 52 54 55
4 53 56 55 57
4 55 56 57 59
4 54 56 55 58
4 55 56 58 59
4 57 60 59 61
4 59 60 61 63
4 58 60 59 62
4 59 60 62 63
4 61 64 63 65
4 63 64 65 67
4 62 64 63 66
4 63 64 66 67
4 65 68 67 69
4 67 68 69 71
4 66 68 67 70
4 67 68 70 71
4 69 72 71 73
4 71 72 73 75
4 70 72 71 74
4 71 72 74 75
4 73 76 75 77
4 75 76 77 79
4 74 76 75 78
4 75 76 78 79
4 77 80 79 81
4 79 80 81 83
4 78 80 79 82
4 79 80 82 83
4 81 84 83 85
4 83 84 85 87
4 82 84 83 86
4 83 84 86 87
4 85 88 87 89
4 87 88 89 91
4 86 88 87 90
4 87 88 90 91
4 89 92 91 93
4 91 92 93 95
4 90 92 91 94
4 91 92 94 95
4 93 96 95 97
4 95 96 97 99
4 94 96 95 98
4 95 96 98 99
4 97 100 99 101
4 99 100 101 103
4 98 100 99 102
4 99 100 102 103
4 101 104 103 105
4 103 104 105 107
4 102 104 103 106
4 103 104 106 107
4 105 108 107 109
4 107 108 109 111
4 106 108 107 110
4 107 108 110 111
4 109 112 111 113
4 111 112 113 115
4 110 112 111 114
4 111 112 114 115
4 113 116 115 117
4 115 116 117 119
4 114 116 115 118
4 115 116 118 119
4 117 120 119 121
4 119 120 121 123
4 118 120 119 122
4 119 120 122 123
4 121 124 123 125
4 123 124 125 127
4 122 124 123 126
4 123 124 126 127
4 125 128 127 129
4 127 128 129 131
4 126 128 127 130
4 127 128 130 131
4 129 132 131 133
4 131 132 133 135
4 130 132 131 134
4 131 132 134 135
4 133 136 135 137
4 135 136 137 139
4 134 136 135 138
4 135 136 138 139
4 137 140 139 141
4 139 140 141 143
4 138 140 139 142
4 139 140 142 143
4 141 144 143 145
4 143 144 145 147
4 142 144 143 146
4 143 144 146 147
4 145 148 147 149
4 147 148 149 151
4 146 148 147 150
4 147 148 150 151
4 149 152 151 153
4 151 152 153 155
4 150 152 151 154
4 151 152 154 155
4 153 156 155 157
4 155 156 157 159
4 154 156 155 158
4 155 156 158 159
4 157 160 159 161
4 159 160 161 163
4 158 160 159 162
4 159 160 162 163
4 161 164 163 165
4 163 164 165 167
4 162 164 163 166
4 163 164 166 167
4 165 168 167 169
4 167 168 169 171
4 166 168 167 170
4 167 168 170 171
4 169 172 171 173
4 171 172 173 175
4 170 172 171 174
4 171 172 174 175
4 173 176 175 177
4 175 176 177 179
4 174 176 175 178
4 175 176 178 179
4 177 180 179 181
4 179 180 181 183
4 178 180 179 182
4 179 180 182 183
4 181 184 183 185
4 183 184 185 187
4 182 184 183 186
4 183 184 186 187
4 185 188 187 189
4 187 188 189 191
4 186 188 187 190
4 187 188 190 191
4 189 192 191 193
4 191 192 193 195
4 190 192 191 194
4 191 192 194 195
4 193 196 195 197
4 195 196 197 199
4 194 196 195 198
4 195 196 198 199
4 197 200 199 201
4 199 200 201 203
4 198 200 199 202
4 199 200 202 203
4 201 204 203 205
4 203 204 205 207
4 202 204 203 206
4 203 204 206 207
4 205 208 207 209
4 207 208 209 211
4 206 208 207 210
4 207 208 210 211
4 209 212 211 213
4 211 212 213 215
4 210 212 211 214
4 211 212 214 215
4 213 216 215 217
4 215 216 217 219
4 214 216 215 218
4 215 216 218 219
4 217 220 219 221
4 219 220 221 223
4 218 220 219 222
4 219 220 222 223
4 221 224 223 225
4 223 224 225 227
4 222 224 223 226
4 223 224 226 227
4 225 228 227 229
4 227 228 229 231
4 226 228 227 230
4 227 228 230 231
4 229 232 231 233
4 231 232 233 235
4 230 232 231 234
4 231 232 234 235
4 233 236 235 237
4 235 236 237 239
4 234 236 235 238
4 235 236 238 239
4 237 240 239 241
4 239 240 241 243
4 238 240 239 242
4 239 240 242 243
4 241 244 243 245
4 243 244 245 247
4 242 244 243 246
4 243 244 246 247
4 245 248 247 249
4 247 248 249 251
4 246 248 247 250
4 247 248 250 251
4 249 252 251 253
4 251 252 253 255
4 250 252 251 254
4 251 252 254 255
4 253 256 255 257
4 255 256 257 259
4 254 256 255 258
4 255 256 258 259
4 257 260 259 261
4 259 260 261 263
4 258 260 259 262
4 259 260 262 263
4 261 264 263 265
4 263 264 265 267
4 262 264 263 266
4 263 264 266 267
4 265 268 267 269
4 267 268 269 271
4 266 268 267 270
4 267 268 270 271
4 269 272 271 273
4 271 272 273 275
4 270 272 271 274
4 271 272 274 275
4 273 276 275 277
4 275 276 277 279
4 274 276 275 278
4 275 276 278 279
4 277 280 279 281
4 279 280 281 283
4 278 280 279 282
4 279 280 282 283
4 281 284 283 285
4 283 284 285 287
4 282 284 283 286
4 283 284 286 287
4 285 288 287 289
4 287 288 289 291
4 286 288 287 290
4 287 288 290 291
4 289 292 291 293
4 291 292 293 295
4 290 292 291 294
4 291 292 294 295
4 293 296 295 297
4 295 296 297 299
4 294 296 295 298
4 295 296 298 299
4 297 300 299 301
4 299 300 301 303
4 298 300 299 302
4 299 300 302 303
4 301 304 303 305
4 303 304 305 307
4 302 304 303 306
4 303 304 306 307
4 305 308 307 309
4 307 308 309 311
4 306 308 307 310
4 307 308 310 311
4 309 312 311 313
4 311 312 313 315
4 310 312 311 314
4 311 312 314 315
4 313 316 315 317
4 315 316 317 319
4 314 316 315 318
4 315 316 318 319
4 317 320 319 321
4 319 320 321 323
4 318 320 319 322
4 319 320 322 323
4 321 324 323 325
4 323 324 325 327
4 322 324 323 326
4 323 324 326 327
4 325 328 327 329
4 327 328 329 331
4 326 328 327 330
4 327 328 330 331
4 329 332 331 333
4 331 332 333 335
4 330 332 331 334
4 331 332 334 335
4 333 336 335 337
4 335 336 337 339
4 334 336 335 338
4 335 336 338 339
4 337 340 339 341
4 339 340 341 343
4 338 340 339 342
4 339 340 342 343
4 341 344 343 345
4 343 344 345 347
4 342 344 343 346
4 343 344 346 347
4 345 348 347 349
4 347 348 349 351
4 346 348 347 350
4 347 348 350 351
4 349 352 351 353
4 351 352 353 355
4 350 352 351 354
4 351 352 354 355
4 353 356 355 357
4 355 356 357 359
4 354 356 355 358
4 355 356 358 359
4 357 360 359 361
4 359 360 361 363
4 358 360 359 362
4 359 360 362 363
4 361 364 363 365
4 363 364 365 367
4 362 364 363 366
4 363 364 366 367
4 365 368 367 369
4 367 368 369 371
4 366 368 367 370
4 367 368 370 371
4 369 372 371 373
4 371 372 373 375
4 370 372 371 374
4 371 372 374 375
4 373 376 375 377
4 375 376 377 379
4 374 376 375 378
4 375 376 378 379
4 377 380 379 381
4 379 380 381 383
4 378 380 379 382
4 379 380 382 383
4 381 384 383 385
4 383 384 385 387
4 382 384 383 386
4 383 384 386 387
4 385 388 387 389
4 387 388 389 391
4 386 388 387 390
4 387 388 390 391
4 389 392 391 393
4 391 392 393 395
4 390 392 391 394
4 391 392 394 395
4 393 396 395 397
4 395 396 397 399
4 401 4 3 1
4 401 4 3 2
4 402 8 7 5
4 402 8 7 6
4 403 12 11 9
4 403 12 11 10
4 404 16 15 13
4 404 16 15 14
4 405 20 19 17
4 405 20 19 18
4 406 24 23 21
4 406 24 23 22
4 407 28 27 25
4 407 28 27 26
4 408 32 31 29
4 408 32 31 30
4 409 36 35 33
4 409 36 35 34
4 410 40 39 37
4 410 40 39 38
4 411 44 43 41
4 411 44 43 42
4 412 48 47 45
4 412 48 47 46
4 413 52 51 49
4 413 52 51 50
4 414 56 55 53
4 414 56 55 54
4 415 60 59 57
4 415 60 59 58
4 416 64 63 61
4 416 64 63 62
4 417 68 67 65
4 417 68 67 66
4 418 72 71 69
4 418 72 71 70
4 419 76 75 73
4 419 76 75 74
4 420 80 79 77
4 420 80 79 78
4 421 84 83 81
4 421 84 83 82
4 422 88 87 85
4 422 88 87 86
4 423 92 91 89
4 423 92 91 90
4 424 96 95 93
4 424 96 95 94
4 425 100 99 97
4 425 100 99 98
4 426 104 103 101
4 426 104 103 102
4 427 108 107 105
4 427 108 107 106
4 428 112 111 109
4 428 112 111 110
4 429 116 115 113
4 429 116 115 114
4 430 120 119 117
4 430 120 119 118
4 431 124 123 121
4 431 124 123 122
4 432 128 127 125
4 432 128 127 126
4 433 132 131 129
4 433 132 131 130
4 434 136 135 133
4 434 136 135 134
4 435 140 139 137
4 435 140 139 138
4 436 144 143 141
4 436 144 143 142
4 437 148 147 145
4 437 148 147 146
4 438 152 151 149
4 438 152 151 150
4 439 156 155 153
4 439 156 155 154
4 440 160 159 157
4 440 160 159 158
4 441 164 163 161
4 441 164 163 162
4 442 168 167 165
4 442 168 167 166
4 443 172 171 169
4 443 172 171 170
4 444 176 175 173
4 444 176 175 174
4 445 180 179 177
4 445 180 179 178
4 446 184 183 181
4 446 184 183 182
4 447 188 187 185
4 447 188 187 186
4 448 192 191 189
4 448 192 191 190
4 449 196 195 193
4 449 196 195 194
4 450 200 199 197
4 450 200 199 198
4 451 204 203 201
4 451 204 203 202
4 452 208 207 205
4 452 208 207 206
4 453 212 211 209
4 453 212 211 210
4 454 216 215 213
4 454 216 215 214
4 455 220 219 217
4 455 220 219 218
4 456 224 223 221
4 456 224 223 222
4 457 228 227 225
4 457 228 227 226
4 458 232 231 229
4 458 232 231 230
4 459 236 235 233
4 459 236 235 234
4 460 240 239 237
4 460 240 239 238
4 461 244 243 241
4 461 244 243 242
4 462 248 247 245
4 462 248 247 246
4 463 252 251 249
4 463 252 251 250
4 464 256 255 253
4 464 256 255 254
4 465 260 259 257
4 465 260 259 258
4 466 264 263 261
4 466 264 263 262
4 467 268 267 265
4 467 268 267 266
4 468 272 271 269
4 468 272 271 270
4 469 276 275 273
4 469 276 275 274
4 470 280 279 277
4 470 280 279 278
4 471 284 283 281
4 471 284 283 282
4 472 288 287 285
4 472 288 287 286
4 473 292 291 289
4 473 292 291 290
4 474 296 295 293
4 474 296 295 294
4 475 300 299 297
4 475 300 299 298
4 476 304 303 301
4 476 304 303 302
4 477 308 307 305
4 477 308 307 306
4 478 312 311 309
4 478 312 311 310
4 479 316 315 313
4 479 316 315 314
4 480 320 319 317
4 480 320 319 318
4 481 324 323 321
4 481 324 323 322
4 482 328 327 325
4 482 328 327 326
4 483 332 331 329
4 483 332 331 330
4 484 336 335 333
4 484 336 335 334
4 485 340 339 337
4 485 340 339 338
4 486 344 343 341
4 486 344 343 342
4 487 348 347 345
4 487 348 347 346
4 488 352 351 349
4 488 352 351 350
4 489 356 355 353
4 489 356 355 354
4 490 360 359 357
4 490 360 359 358
4 491 364 363 361
4 491 364 363 362
4 492 368 367 365
4 492 368 367 366
4 493 372 371 369
4 493 372 371 370
4 494 376 375 373
4 494 376 375 374
4 495 380 379 377
4 495 380 379 378
4 496 384 383 381
4 496 384 383 382
4 497 388 387 385
4 497 388 387 386
4 498 392 391 389
4 498 392 391 390
4 499 396 395 393
4 499 396 395 394
4 500 400 399 397
4 500 400 399 398
4 500 396 399 397
4 500 396 399 398
CELL_TYPES 796
10
10
10
10
10
10
10
10
10
10
10
10
10
10
10
10
10
10
10
10
10
10
10
10
10
10
10
10
10
10
10
10
10
10
10
10
10
10
10
10
10
10
10
10
10
10
10
10
10
10
10
10
10
10
10
10
10
10
10
10
10
10
10
10
10
10
10
10
10
10
10
10
10
10
10
10
10
10
10
10
10
10
10
10
10
10
10
10
10
10
10
10
10
10
10
10
10
10
10
10
10
10
10
10
10
10
10
10
10
10
10
10
10
10
10
10
10
10
10
10
10
10
10
10
10
10
10
10
10
10
10
10
10
10
10
10
10
10
10
10
10
10
10
10
10
10
10
10
10
10
10
10
10
10
10
10
10
10
10
10
10
10
10
10
10
10
10
10
10
10
10
10
10
10
10
10
10
10
10
10
10
10
10
10
10
10
10
10
10
10
10
10
10
10
10
10
10
10
10
10
10
10
10
10
10
10
10
10
10
10
10
10
10
10
10
10
10
10
10
10
10
10
10
10
10
10
10
10
10
10
10
10
10
10
10
10
10
10
10
10
10
10
10
10
10
10
10
10
10
10
10
10
10
10
10
10
10
10
10
10
10
10
10
10
10
10
10
10
10
10
10
10
10
10
10
10
10
10
10
10
10
10
10
10
10
10
10
10
10
10
10
10
10
10
10
10
10
10
10
10
10
10
10
10
10
10
10
10
10
10
10
10
10
10
10
10
10
10
10
10
10
10
10
10
10
10
10
10
10
10
10
10
10
10
10
10
10
10
10
10
10
10
10
10
10
10
10
10
10
10
10
10
10
10
10
10
10
10
10
10
10
10
10
10
10
10
10
10
10
10
10
10
10
10
10
10
10
10
10
10
10
10
10
10
10
10
10
10
10
10
10
10
10
10
10
10
10
10
10
10
10
10
10
10
10
10
10
10
10
10
10
10
10
10
10
10
10
10
10
10
10
10
10
10
10
10
10
10
10
10
10
10
10
10
10
10
10
10
10
10
10
10
10
10
10
10
10
10
10
10
10
10
10
10
10
10
10
10
10
10
10
10
10
10
10
10
10
10
10
10
10
10
10
10
10
10
10
10
10
10
10
10
10
10
10
10
10
10
10
10
10
10
10
10
10
10
10
10
10
10
10
10
10
10
10
10
10
10
10
10
10
10
10
10
10
10
10
10
10
10
10
10
10
10
10
10
10
10
10
10
10
10
10
10
10
10
10
10
10
10
10
10
10
10
10
10
10
10
10
10
10
10
10
10
10
10
10
10
10
10
10
10
10
10
10
10
10
10
10
10
10
10
10
10
10
10
10
10
10
10
10
10
10
10
10
10
10
10
10
10
10
10
10
10
10
10
10
10
10
10
10
10
10
10
10
10
10
10
10
10
10
10
10
10
10
10
10
10
10
10
10
10
10
10
10
10
10
10
10
10
10
10
10
10
10
10
10
10
10
10
10
10
10
10
10
10
10
10
10
10
10
10
10
10
10
10
10
10
10
10
10
10
10
10
10
10
10
10
10
10
10
10
10
10
10
10
10
10
10
10
10
10
10
10
10
10
10
10
10
10
10
10
10
10
10
10
10
10
10
10
10
10
10
10
10
10
10
10
10
10
10
10
10
10
10
10
10
10
10
10
10
10
10
10
10
10
10
10
10
10
10
10
10
10
10
10
10
10
10
10
10
10
10
10
10
10
10
10
10
10
10
10
10
10
10
10
10
10
10
10
10
10
10
10
10
10
10
10
10
10
10
10
10
10
10
10
10
10
10
10
10
10
10
10
10
10
10
10
10
10
10
10
10
10
10
10
CELL_DATA 796
SCALARS origin_ele_id INT
LOOKUP_TABLE my_table
594
595
0
0
2
2
4
4
6
6
8
8
10
10
12
12
14
14
16
16
18
18
20
20
22
22
24
24
26
26
28
28
30
30
32
32
34
34
36
36
38
38
40
40
42
42
44
44
46
46
48
48
50
50
52
52
54
54
56
56
58
58
60
60
62
62
64
64
66
66
68
68
70
70
72
72
74
74
76
76
78
78
80
80
82
82
84
84
86
86
88
88
90
90
92
92
94
94
96
96
98
98
100
100
102
102
104
104
106
106
108
108
110
110
112
112
114
114
116
116
118
118
120
120
122
122
124
124
126
126
128
128
130
130
132
132
134
134
136
136
138
138
140
140
142
142
144
144
146
146
148
148
150
150
152
152
154
154
156
156
158
158
160
160
162
162
164
164
166
166
168
168
170
170
172
172
174
174
176
176
178
178
180
180
182
182
184
184
186
186
188
188
190
190
192
192
194
194
196
196
200
201
202
203
204
205
206
207
208
209
210
211
212
213
214
215
216
217
218
219
220
221
222
223
224
225
226
227
228
229
230
231
232
233
234
235
236
237
238
239
240
241
242
243
244
245
246
247
248
249
250
251
252
253
254
255
256
257
258
259
260
261
262
263
264
265
266
267
268
269
270
271
272
273
274
275
276
277
278
279
280
281
282
283
284
285
286
287
288
289
290
291
292
293
294
295
296
297
298
299
300
301
302
303
304
305
306
307
308
309
310
311
312
313
314
315
316
317
318
319
320
321
322
323
324
325
326
327
328
329
330
331
332
333
334
335
336
337
338
339
340
341
342
343
344
345
346
347
348
349
350
351
352
353
354
355
356
357
358
359
360
361
362
363
364
365
366
367
368
369
370
371
372
373
374
375
376
377
378
379
380
381
382
383
384
385
386
387
388
389
390
391
392
393
394
395
396
397
398
399
400
401
402
403
404
405
406
407
408
409
410
411
412
413
414
415
416
417
418
419
420
421
422
423
424
425
426
427
428
429
430
431
432
433
434
435
436
437
438
439
440
441
442
443
444
445
446
447
448
449
450
451
452
453
454
455
456
457
458
459
460
461
462
463
464
465
466
467
468
469
470
471
472
473
474
475
476
477
478
479
480
481
482
483
484
485
486
487
488
489
490
491
492
493
494
495
496
497
498
499
500
501
502
503
504
505
506
507
508
509
510
511
512
513
514
515
516
517
518
519
520
521
522
523
524
525
526
527
528
529
530
531
532
533
534
535
536
537
538
539
540
541
542
543
544
545
546
547
548
549
550
551
552
553
554
555
556
557
558
559
560
561
562
563
564
565
566
567
568
569
570
571
572
573
574
575
576
577
578
579
580
581
582
583
584
585
586
587
588
589
590
591
592
593
1
1
3
3
5
5
7
7
9
9
11
11
13
13
15
15
17
17
19
19
21
21
23
23
25
25
27
27
29
29
31
31
33
33
35
35
37
37
39
39
41
41
43
43
45
45
47
47
49
49
51
51
53
53
55
55
57
57
59
59
61
61
63
63
65
65
67
67
69
69
71
71
73
73
75
75
77
77
79
79
81
81
83
83
85
85
87
87
89
89
91
91
93
93
95
95
97
97
99
99
101
101
103
103
105
105
107
107
109
109
111
111
113
113
115
115
117
117
119
119
121
121
123
123
125
125
127
127
129
129
131
131
133
133
135
135
137
137
139
139
141
141
143
143
145
145
147
147
149
149
151
151
153
153
155
155
157
157
159
159
161
161
163
163
165
165
167
167
169
169
171
171
173
173
175
175
177
177
179
179
181
181
183
183
185
185
187
187
189
189
191
191
193
193
195
195
197
197
199
199
198
198
SCALARS partition INT
LOOKUP_TABLE my_table
-1
-1
0
0
1
1
2
2
3
3
4
4
5
5
6
6
7
7
8
8
9
9
10
10
11
11
12
12
13
13
14
14
15
15
16
16
17
17
18
18
19
19
20
20
21
21
22
22
23
23
24
24
25
25
26
26
27
27
28
28
29
29
30
30
31
31
32
32
33
33
34
34
35
35
36
36
37
37
38
38
39
39
40
40
41
41
42
42
43
43
44
44
45
45
46
46
47
47
48
48
49
49
50
50
51
51
52
52
53
53
54
54
55
55
56
56
57
57
58
58
59
59
60
60
61
61
62
62
63
63
64
64
65
65
66
66
67
67
68
68
69
69
70
70
71
71
72
72
73
73
74
74
75
75
76
76
77
77
78
78
79
79
80
80
81
81
82
82
83
83
84
84
85
85
86
86
87
87
88
88
89
89
90
90
91
91
92
92
93
93
94
94
95
95
96
96
97
97
98
98
-1
-1
-1
-1
-1
-1
-1
-1
-1
-1
-1
-1
-1
-1
-1
-1
-1
-1
-1
-1
-1
-1
-1
-1
-1
-1
-1
-1
-1
-1
-1
-1
-1
-1
-1
-1
-1
-1
-1
-1
-1
-1
-1
-1
-1
-1
-1
-1
-1
-1
-1
-1
-1
-1
-1
-1
-1
-1
-1
-1
-1
-1
-1
-1
-1
-1
-1
-1
-1
-1
-1
-1
-1
-1
-1
-1
-1
-1
-1
-1
-1
-1
-1
-1
-1
-1
-1
-1
-1
-1
-1
-1
-1
-1
-1
-1
-1
-1
-1
-1
-1
-1
-1
-1
-1
-1
-1
-1
-1
-1
-1
-1
-1
-1
-1
-1
-1
-1
-1
-1
-1
-1
-1
-1
-1
-1
-1
-1
-1
-1
-1
-1
-1
-1
-1
-1
-1
-1
-1
-1
-1
-1
-1
-1
-1
-1
-1
-1
-1
-1
-1
-1
-1
-1
-1
-1
-1
-1
-1
-1
-1
-1
-1
-1
-1
-1
-1
-1
-1
-1
-1
-1
-1
-1
-1
-1
-1
-1
-1
-1
-1
-1
-1
-1
-1
-1
-1
-1
-1
-1
-1
-1
-1
-1
-1
-1
-1
-1
-1
-1
-1
-1
-1
-1
-1
-1
-1
-1
-1
-1
-1
-1
-1
-1
-1
-1
-1
-1
-1
-1
-1
-1
-1
-1
-1
-1
-1
-1
-1
-1
-1
-1
-1
-1
-1
-1
-1
-1
-1
-1
-1
-1
-1
-1
-1
-1
-1
-1
-1
-1
-1
-1
-1
-1
-1
-1
-1
-1
-1
-1
-1
-1
-1
-1
-1
-1
-1
-1
-1
-1
-1
-1
-1
-1
-1
-1
-1
-1
-1
-1
-1
-1
-1
-1
-1
-1
-1
-1
-1
-1
-1
-1
-1
-1
-1
-1
-1
-1
-1
-1
-1
-1
-1
-1
-1
-1
-1
-1
-1
-1
-1
-1
-1
-1
-1
-1
-1
-1
-1
-1
-1
-1
-1
-1
-1
-1
-1
-1
-1
-1
-1
-1
-1
-1
-1
-1
-1
-1
-1
-1
-1
-1
-1
-1
-1
-1
-1
-1
-1
-1
-1
-1
-1
-1
-1
-1
-1
-1
-1
-1
-1
-1
-1
-1
-1
-1
-1
-1
-1
-1
-1
-1
-1
-1
-1
-1
-1
-1
-1
-1
-1
-1
-1
-1
-1
-1
-1
-1
-1
-1
-1
-1
-1
-1
0
0
1
1
2
2
3
3
4
4
5
5
6
6
7
7
8
8
9
9
10
10
11
11
12
12
13
13
14
14
15
15
16
16
17
17
18
18
19
19
20
20
21
21
22
22
23
23
24
24
25
25
26
26
27
27
28
28
29
29
30
30
31
31
32
32
33
33
34
34
35
35
36
36
37
37
38
38
39
39
40
40
41
41
42
42
43
43
44
44
45
45
46
46
47
47
48
48
49
49
50
50
51
51
52
52
53
53
54
54
55
55
56
56
57
57
58
58
59
59
60
60
61
61
62
62
63
63
64
64
65
65
66
66
67
67
68
68
69
69
70
70
71
71
72
72
73
73
74
74
75
75
76
76
77
77
78
78
79
79
80
80
81
81
82
82
83
83
84
84
85
85
86
86
87
87
88
88
89
89
90
90
91
91
92
92
93
93
94
94
95
95
96
96
97
97
98
98
99
99
99
99
