# vtk DataFile Version 2.0
TET
ASCII

DATASET UNSTRUCTURED_GRID
POINTS 401 float
0 -0.5 0
50 0 0
-50 0 0
0 0 -1
0 0.5 0
50 1 0
-50 1 0
0 1 -1
0 1.5 0
50 2 0
-50 2 0
0 2 -1
0 2.5 0
50 3 0
-50 3 0
0 3 -1
0 3.5 0
50 4 0
-50 4 0
0 4 -1
0 4.5 0
50 5 0
-50 5 0
0 5 -1
0 5.5 0
50 6 0
-50 6 0
0 6 -1
0 6.5 0
50 7 0
-50 7 0
0 7 -1
0 7.5 0
50 8 0
-50 8 0
0 8 -1
0 8.5 0
50 9 0
-50 9 0
0 9 -1
0 9.5 0
50 10 0
-50 10 0
0 10 -1
0 10.5 0
50 11 0
-50 11 0
0 11 -1
0 11.5 0
50 12 0
-50 12 0
0 12 -1
0 12.5 0
50 13 0
-50 13 0
0 13 -1
0 13.5 0
50 14 0
-50 14 0
0 14 -1
0 14.5 0
50 15 0
-50 15 0
0 15 -1
0 15.5 0
50 16 0
-50 16 0
0 16 -1
0 16.5 0
50 17 0
-50 17 0
0 17 -1
0 17.5 0
50 18 0
-50 18 0
0 18 -1
0 18.5 0
50 19 0
-50 19 0
0 19 -1
0 19.5 0
50 20 0
-50 20 0
0 20 -1
0 20.5 0
50 21 0
-50 21 0
0 21 -1
0 21.5 0
50 22 0
-50 22 0
0 22 -1
0 22.5 0
50 23 0
-50 23 0
0 23 -1
0 23.5 0
50 24 0
-50 24 0
0 24 -1
0 24.5 0
50 25 0
-50 25 0
0 25 -1
0 25.5 0
50 26 0
-50 26 0
0 26 -1
0 26.5 0
50 27 0
-50 27 0
0 27 -1
0 27.5 0
50 28 0
-50 28 0
0 28 -1
0 28.5 0
50 29 0
-50 29 0
0 29 -1
0 29.5 0
50 30 0
-50 30 0
0 30 -1
0 30.5 0
50 31 0
-50 31 0
0 31 -1
0 31.5 0
50 32 0
-50 32 0
0 32 -1
0 32.5 0
50 33 0
-50 33 0
0 33 -1
0 33.5 0
50 34 0
-50 34 0
0 34 -1
0 34.5 0
50 35 0
-50 35 0
0 35 -1
0 35.5 0
50 36 0
-50 36 0
0 36 -1
0 36.5 0
50 37 0
-50 37 0
0 37 -1
0 37.5 0
50 38 0
-50 38 0
0 38 -1
0 38.5 0
50 39 0
-50 39 0
0 39 -1
0 39.5 0
50 40 0
-50 40 0
0 40 -1
0 40.5 0
50 41 0
-50 41 0
0 41 -1
0 41.5 0
50 42 0
-50 42 0
0 42 -1
0 42.5 0
50 43 0
-50 43 0
0 43 -1
0 43.5 0
50 44 0
-50 44 0
0 44 -1
0 44.5 0
50 45 0
-50 45 0
0 45 -1
0 45.5 0
50 46 0
-50 46 0
0 46 -1
0 46.5 0
50 47 0
-50 47 0
0 47 -1
0 47.5 0
50 48 0
-50 48 0
0 48 -1
0 48.5 0
50 49 0
-50 49 0
0 49 -1
0 49.5 0
50 50 0
-50 50 0
0 50 -1
0 50.5 0
50 51 0
-50 51 0
0 51 -1
0 51.5 0
50 52 0
-50 52 0
0 52 -1
0 52.5 0
50 53 0
-50 53 0
0 53 -1
0 53.5 0
50 54 0
-50 54 0
0 54 -1
0 54.5 0
50 55 0
-50 55 0
0 55 -1
0 55.5 0
50 56 0
-50 56 0
0 56 -1
0 56.5 0
50 57 0
-50 57 0
0 57 -1
0 57.5 0
50 58 0
-50 58 0
0 58 -1
0 58.5 0
50 59 0
-50 59 0
0 59 -1
0 59.5 0
50 60 0
-50 60 0
0 60 -1
0 60.5 0
50 61 0
-50 61 0
0 61 -1
0 61.5 0
50 62 0
-50 62 0
0 62 -1
0 62.5 0
50 63 0
-50 63 0
0 63 -1
0 63.5 0
50 64 0
-50 64 0
0 64 -1
0 64.5 0
50 65 0
-50 65 0
0 65 -1
0 65.5 0
50 66 0
-50 66 0
0 66 -1
0 66.5 0
50 67 0
-50 67 0
0 67 -1
0 67.5 0
50 68 0
-50 68 0
0 68 -1
0 68.5 0
50 69 0
-50 69 0
0 69 -1
0 69.5 0
50 70 0
-50 70 0
0 70 -1
0 70.5 0
50 71 0
-50 71 0
0 71 -1
0 71.5 0
50 72 0
-50 72 0
0 72 -1
0 72.5 0
50 73 0
-50 73 0
0 73 -1
0 73.5 0
50 74 0
-50 74 0
0 74 -1
0 74.5 0
50 75 0
-50 75 0
0 75 -1
0 75.5 0
50 76 0
-50 76 0
0 76 -1
0 76.5 0
50 77 0
-50 77 0
0 77 -1
0 77.5 0
50 78 0
-50 78 0
0 78 -1
0 78.5 0
50 79 0
-50 79 0
0 79 -1
0 79.5 0
50 80 0
-50 80 0
0 80 -1
0 80.5 0
50 81 0
-50 81 0
0 81 -1
0 81.5 0
50 82 0
-50 82 0
0 82 -1
0 82.5 0
50 83 0
-50 83 0
0 83 -1
0 83.5 0
50 84 0
-50 84 0
0 84 -1
0 84.5 0
50 85 0
-50 85 0
0 85 -1
0 85.5 0
50 86 0
-50 86 0
0 86 -1
0 86.5 0
50 87 0
-50 87 0
0 87 -1
0 87.5 0
50 88 0
-50 88 0
0 88 -1
0 88.5 0
50 89 0
-50 89 0
0 89 -1
0 89.5 0
50 90 0
-50 90 0
0 90 -1
0 90.5 0
50 91 0
-50 91 0
0 91 -1
0 91.5 0
50 92 0
-50 92 0
0 92 -1
0 92.5 0
50 93 0
-50 93 0
0 93 -1
0 93.5 0
50 94 0
-50 94 0
0 94 -1
0 94.5 0
50 95 0
-50 95 0
0 95 -1
0 95.5 0
50 96 0
-50 96 0
0 96 -1
0 96.5 0
50 97 0
-50 97 0
0 97 -1
0 97.5 0
50 98 0
-50 98 0
0 98 -1
0 98.5 0
50 99 0
-50 99 0
0 99 -1
0 99.5 0
CELLS 596 2980
4 0 1 2 3 
4 4 1 2 3 
4 4 5 6 7 
4 8 5 6 7 
4 8 9 10 11 
4 12 9 10 11 
4 12 13 14 15 
4 16 13 14 15 
4 16 17 18 19 
4 20 17 18 19 
4 20 21 22 23 
4 24 21 22 23 
4 24 25 26 27 
4 28 25 26 27 
4 28 29 30 31 
4 32 29 30 31 
4 32 33 34 35 
4 36 33 34 35 
4 36 37 38 39 
4 40 37 38 39 
4 40 41 42 43 
4 44 41 42 43 
4 44 45 46 47 
4 48 45 46 47 
4 48 49 50 51 
4 52 49 50 51 
4 52 53 54 55 
4 56 53 54 55 
4 56 57 58 59 
4 60 57 58 59 
4 60 61 62 63 
4 64 61 62 63 
4 64 65 66 67 
4 68 65 66 67 
4 68 69 70 71 
4 72 69 70 71 
4 72 73 74 75 
4 76 73 74 75 
4 76 77 78 79 
4 80 77 78 79 
4 80 81 82 83 
4 84 81 82 83 
4 84 85 86 87 
4 88 85 86 87 
4 88 89 90 91 
4 92 89 90 91 
4 92 93 94 95 
4 96 93 94 95 
4 96 97 98 99 
4 100 97 98 99 
4 100 101 102 103 
4 104 101 102 103 
4 104 105 106 107 
4 108 105 106 107 
4 108 109 110 111 
4 112 109 110 111 
4 112 113 114 115 
4 116 113 114 115 
4 116 117 118 119 
4 120 117 118 119 
4 120 121 122 123 
4 124 121 122 123 
4 124 125 126 127 
4 128 125 126 127 
4 128 129 130 131 
4 132 129 130 131 
4 132 133 134 135 
4 136 133 134 135 
4 136 137 138 139 
4 140 137 138 139 
4 140 141 142 143 
4 144 141 142 143 
4 144 145 146 147 
4 148 145 146 147 
4 148 149 150 151 
4 152 149 150 151 
4 152 153 154 155 
4 156 153 154 155 
4 156 157 158 159 
4 160 157 158 159 
4 160 161 162 163 
4 164 161 162 163 
4 164 165 166 167 
4 168 165 166 167 
4 168 169 170 171 
4 172 169 170 171 
4 172 173 174 175 
4 176 173 174 175 
4 176 177 178 179 
4 180 177 178 179 
4 180 181 182 183 
4 184 181 182 183 
4 184 185 186 187 
4 188 185 186 187 
4 188 189 190 191 
4 192 189 190 191 
4 192 193 194 195 
4 196 193 194 195 
4 196 197 198 199 
4 200 197 198 199 
4 200 201 202 203 
4 204 201 202 203 
4 204 205 206 207 
4 208 205 206 207 
4 208 209 210 211 
4 212 209 210 211 
4 212 213 214 215 
4 216 213 214 215 
4 216 217 218 219 
4 220 217 218 219 
4 220 221 222 223 
4 224 221 222 223 
4 224 225 226 227 
4 228 225 226 227 
4 228 229 230 231 
4 232 229 230 231 
4 232 233 234 235 
4 236 233 234 235 
4 236 237 238 239 
4 240 237 238 239 
4 240 241 242 243 
4 244 241 242 243 
4 244 245 246 247 
4 248 245 246 247 
4 248 249 250 251 
4 252 249 250 251 
4 252 253 254 255 
4 256 253 254 255 
4 256 257 258 259 
4 260 257 258 259 
4 260 261 262 263 
4 264 261 262 263 
4 264 265 266 267 
4 268 265 266 267 
4 268 269 270 271 
4 272 269 270 271 
4 272 273 274 275 
4 276 273 274 275 
4 276 277 278 279 
4 280 277 278 279 
4 280 281 282 283 
4 284 281 282 283 
4 284 285 286 287 
4 288 285 286 287 
4 288 289 290 291 
4 292 289 290 291 
4 292 293 294 295 
4 296 293 294 295 
4 296 297 298 299 
4 300 297 298 299 
4 300 301 302 303 
4 304 301 302 303 
4 304 305 306 307 
4 308 305 306 307 
4 308 309 310 311 
4 312 309 310 311 
4 312 313 314 315 
4 316 313 314 315 
4 316 317 318 319 
4 320 317 318 319 
4 320 321 322 323 
4 324 321 322 323 
4 324 325 326 327 
4 328 325 326 327 
4 328 329 330 331 
4 332 329 330 331 
4 332 333 334 335 
4 336 333 334 335 
4 336 337 338 339 
4 340 337 338 339 
4 340 341 342 343 
4 344 341 342 343 
4 344 345 346 347 
4 348 345 346 347 
4 348 349 350 351 
4 352 349 350 351 
4 352 353 354 355 
4 356 353 354 355 
4 356 357 358 359 
4 360 357 358 359 
4 360 361 362 363 
4 364 361 362 363 
4 364 365 366 367 
4 368 365 366 367 
4 368 369 370 371 
4 372 369 370 371 
4 372 373 374 375 
4 376 373 374 375 
4 376 377 378 379 
4 380 377 378 379 
4 380 381 382 383 
4 384 381 382 383 
4 384 385 386 387 
4 388 385 386 387 
4 388 389 390 391 
4 392 389 390 391 
4 392 393 394 395 
4 396 393 394 395 
4 396 397 398 399 
4 400 397 398 399 
4 1 4 3 5 
4 3 4 5 7 
4 2 4 3 6 
4 3 4 6 7 
4 5 8 7 9 
4 7 8 9 11 
4 6 8 7 10 
4 7 8 10 11 
4 9 12 11 13 
4 11 12 13 15 
4 10 12 11 14 
4 11 12 14 15 
4 13 16 15 17 
4 15 16 17 19 
4 14 16 15 18 
4 15 16 18 19 
4 17 20 19 21 
4 19 20 21 23 
4 18 20 19 22 
4 19 20 22 23 
4 21 24 23 25 
4 23 24 25 27 
4 22 24 23 26 
4 23 24 26 27 
4 25 28 27 29 
4 27 28 29 31 
4 26 28 27 30 
4 27 28 30 31 
4 29 32 31 33 
4 31 32 33 35 
4 30 32 31 34 
4 31 32 34 35 
4 33 36 35 37 
4 35 36 37 39 
4 34 36 35 38 
4 35 36 38 39 
4 37 40 39 41 
4 39 40 41 43 
4 38 40 39 42 
4 39 40 42 43 
4 41 44 43 45 
4 43 44 45 47 
4 42 44 43 46 
4 43 44 46 47 
4 45 48 47 49 
4 47 48 49 51 
4 46 48 47 50 
4 47 48 50 51 
4 49 52 51 53 
4 51 52 53 55 
4 50 52 51 54 
4 51 52 54 55 
4 53 56 55 57 
4 55 56 57 59 
4 54 56 55 58 
4 55 56 58 59 
4 57 60 59 61 
4 59 60 61 63 
4 58 60 59 62 
4 59 60 62 63 
4 61 64 63 65 
4 63 64 65 67 
4 62 64 63 66 
4 63 64 66 67 
4 65 68 67 69 
4 67 68 69 71 
4 66 68 67 70 
4 67 68 70 71 
4 69 72 71 73 
4 71 72 73 75 
4 70 72 71 74 
4 71 72 74 75 
4 73 76 75 77 
4 75 76 77 79 
4 74 76 75 78 
4 75 76 78 79 
4 77 80 79 81 
4 79 80 81 83 
4 78 80 79 82 
4 79 80 82 83 
4 81 84 83 85 
4 83 84 85 87 
4 82 84 83 86 
4 83 84 86 87 
4 85 88 87 89 
4 87 88 89 91 
4 86 88 87 90 
4 87 88 90 91 
4 89 92 91 93 
4 91 92 93 95 
4 90 92 91 94 
4 91 92 94 95 
4 93 96 95 97 
4 95 96 97 99 
4 94 96 95 98 
4 95 96 98 99 
4 97 100 99 101 
4 99 100 101 103 
4 98 100 99 102 
4 99 100 102 103 
4 101 104 103 105 
4 103 104 105 107 
4 102 104 103 106 
4 103 104 106 107 
4 105 108 107 109 
4 107 108 109 111 
4 106 108 107 110 
4 107 108 110 111 
4 109 112 111 113 
4 111 112 113 115 
4 110 112 111 114 
4 111 112 114 115 
4 113 116 115 117 
4 115 116 117 119 
4 114 116 115 118 
4 115 116 118 119 
4 117 120 119 121 
4 119 120 121 123 
4 118 120 119 122 
4 119 120 122 123 
4 121 124 123 125 
4 123 124 125 127 
4 122 124 123 126 
4 123 124 126 127 
4 125 128 127 129 
4 127 128 129 131 
4 126 128 127 130 
4 127 128 130 131 
4 129 132 131 133 
4 131 132 133 135 
4 130 132 131 134 
4 131 132 134 135 
4 133 136 135 137 
4 135 136 137 139 
4 134 136 135 138 
4 135 136 138 139 
4 137 140 139 141 
4 139 140 141 143 
4 138 140 139 142 
4 139 140 142 143 
4 141 144 143 145 
4 143 144 145 147 
4 142 144 143 146 
4 143 144 146 147 
4 145 148 147 149 
4 147 148 149 151 
4 146 148 147 150 
4 147 148 150 151 
4 149 152 151 153 
4 151 152 153 155 
4 150 152 151 154 
4 151 152 154 155 
4 153 156 155 157 
4 155 156 157 159 
4 154 156 155 158 
4 155 156 158 159 
4 157 160 159 161 
4 159 160 161 163 
4 158 160 159 162 
4 159 160 162 163 
4 161 164 163 165 
4 163 164 165 167 
4 162 164 163 166 
4 163 164 166 167 
4 165 168 167 169 
4 167 168 169 171 
4 166 168 167 170 
4 167 168 170 171 
4 169 172 171 173 
4 171 172 173 175 
4 170 172 171 174 
4 171 172 174 175 
4 173 176 175 177 
4 175 176 177 179 
4 174 176 175 178 
4 175 176 178 179 
4 177 180 179 181 
4 179 180 181 183 
4 178 180 179 182 
4 179 180 182 183 
4 181 184 183 185 
4 183 184 185 187 
4 182 184 183 186 
4 183 184 186 187 
4 185 188 187 189 
4 187 188 189 191 
4 186 188 187 190 
4 187 188 190 191 
4 189 192 191 193 
4 191 192 193 195 
4 190 192 191 194 
4 191 192 194 195 
4 193 196 195 197 
4 195 196 197 199 
4 194 196 195 198 
4 195 196 198 199 
4 197 200 199 201 
4 199 200 201 203 
4 198 200 199 202 
4 199 200 202 203 
4 201 204 203 205 
4 203 204 205 207 
4 202 204 203 206 
4 203 204 206 207 
4 205 208 207 209 
4 207 208 209 211 
4 206 208 207 210 
4 207 208 210 211 
4 209 212 211 213 
4 211 212 213 215 
4 210 212 211 214 
4 211 212 214 215 
4 213 216 215 217 
4 215 216 217 219 
4 214 216 215 218 
4 215 216 218 219 
4 217 220 219 221 
4 219 220 221 223 
4 218 220 219 222 
4 219 220 222 223 
4 221 224 223 225 
4 223 224 225 227 
4 222 224 223 226 
4 223 224 226 227 
4 225 228 227 229 
4 227 228 229 231 
4 226 228 227 230 
4 227 228 230 231 
4 229 232 231 233 
4 231 232 233 235 
4 230 232 231 234 
4 231 232 234 235 
4 233 236 235 237 
4 235 236 237 239 
4 234 236 235 238 
4 235 236 238 239 
4 237 240 239 241 
4 239 240 241 243 
4 238 240 239 242 
4 239 240 242 243 
4 241 244 243 245 
4 243 244 245 247 
4 242 244 243 246 
4 243 244 246 247 
4 245 248 247 249 
4 247 248 249 251 
4 246 248 247 250 
4 247 248 250 251 
4 249 252 251 253 
4 251 252 253 255 
4 250 252 251 254 
4 251 252 254 255 
4 253 256 255 257 
4 255 256 257 259 
4 254 256 255 258 
4 255 256 258 259 
4 257 260 259 261 
4 259 260 261 263 
4 258 260 259 262 
4 259 260 262 263 
4 261 264 263 265 
4 263 264 265 267 
4 262 264 263 266 
4 263 264 266 267 
4 265 268 267 269 
4 267 268 269 271 
4 266 268 267 270 
4 267 268 270 271 
4 269 272 271 273 
4 271 272 273 275 
4 270 272 271 274 
4 271 272 274 275 
4 273 276 275 277 
4 275 276 277 279 
4 274 276 275 278 
4 275 276 278 279 
4 277 280 279 281 
4 279 280 281 283 
4 278 280 279 282 
4 279 280 282 283 
4 281 284 283 285 
4 283 284 285 287 
4 282 284 283 286 
4 283 284 286 287 
4 285 288 287 289 
4 287 288 289 291 
4 286 288 287 290 
4 287 288 290 291 
4 289 292 291 293 
4 291 292 293 295 
4 290 292 291 294 
4 291 292 294 295 
4 293 296 295 297 
4 295 296 297 299 
4 294 296 295 298 
4 295 296 298 299 
4 297 300 299 301 
4 299 300 301 303 
4 298 300 299 302 
4 299 300 302 303 
4 301 304 303 305 
4 303 304 305 307 
4 302 304 303 306 
4 303 304 306 307 
4 305 308 307 309 
4 307 308 309 311 
4 306 308 307 310 
4 307 308 310 311 
4 309 312 311 313 
4 311 312 313 315 
4 310 312 311 314 
4 311 312 314 315 
4 313 316 315 317 
4 315 316 317 319 
4 314 316 315 318 
4 315 316 318 319 
4 317 320 319 321 
4 319 320 321 323 
4 318 320 319 322 
4 319 320 322 323 
4 321 324 323 325 
4 323 324 325 327 
4 322 324 323 326 
4 323 324 326 327 
4 325 328 327 329 
4 327 328 329 331 
4 326 328 327 330 
4 327 328 330 331 
4 329 332 331 333 
4 331 332 333 335 
4 330 332 331 334 
4 331 332 334 335 
4 333 336 335 337 
4 335 336 337 339 
4 334 336 335 338 
4 335 336 338 339 
4 337 340 339 341 
4 339 340 341 343 
4 338 340 339 342 
4 339 340 342 343 
4 341 344 343 345 
4 343 344 345 347 
4 342 344 343 346 
4 343 344 346 347 
4 345 348 347 349 
4 347 348 349 351 
4 346 348 347 350 
4 347 348 350 351 
4 349 352 351 353 
4 351 352 353 355 
4 350 352 351 354 
4 351 352 354 355 
4 353 356 355 357 
4 355 356 357 359 
4 354 356 355 358 
4 355 356 358 359 
4 357 360 359 361 
4 359 360 361 363 
4 358 360 359 362 
4 359 360 362 363 
4 361 364 363 365 
4 363 364 365 367 
4 362 364 363 366 
4 363 364 366 367 
4 365 368 367 369 
4 367 368 369 371 
4 366 368 367 370 
4 367 368 370 371 
4 369 372 371 373 
4 371 372 373 375 
4 370 372 371 374 
4 371 372 374 375 
4 373 376 375 377 
4 375 376 377 379 
4 374 376 375 378 
4 375 376 378 379 
4 377 380 379 381 
4 379 380 381 383 
4 378 380 379 382 
4 379 380 382 383 
4 381 384 383 385 
4 383 384 385 387 
4 382 384 383 386 
4 383 384 386 387 
4 385 388 387 389 
4 387 388 389 391 
4 386 388 387 390 
4 387 388 390 391 
4 389 392 391 393 
4 391 392 393 395 
4 390 392 391 394 
4 391 392 394 395 
4 393 396 395 397 
4 395 396 397 399 
4 394 396 395 398 
4 395 396 398 399 
CELL_TYPES 596
10
10
10
10
10
10
10
10
10
10
10
10
10
10
10
10
10
10
10
10
10
10
10
10
10
10
10
10
10
10
10
10
10
10
10
10
10
10
10
10
10
10
10
10
10
10
10
10
10
10
10
10
10
10
10
10
10
10
10
10
10
10
10
10
10
10
10
10
10
10
10
10
10
10
10
10
10
10
10
10
10
10
10
10
10
10
10
10
10
10
10
10
10
10
10
10
10
10
10
10
10
10
10
10
10
10
10
10
10
10
10
10
10
10
10
10
10
10
10
10
10
10
10
10
10
10
10
10
10
10
10
10
10
10
10
10
10
10
10
10
10
10
10
10
10
10
10
10
10
10
10
10
10
10
10
10
10
10
10
10
10
10
10
10
10
10
10
10
10
10
10
10
10
10
10
10
10
10
10
10
10
10
10
10
10
10
10
10
10
10
10
10
10
10
10
10
10
10
10
10
10
10
10
10
10
10
10
10
10
10
10
10
10
10
10
10
10
10
10
10
10
10
10
10
10
10
10
10
10
10
10
10
10
10
10
10
10
10
10
10
10
10
10
10
10
10
10
10
10
10
10
10
10
10
10
10
10
10
10
10
10
10
10
10
10
10
10
10
10
10
10
10
10
10
10
10
10
10
10
10
10
10
10
10
10
10
10
10
10
10
10
10
10
10
10
10
10
10
10
10
10
10
10
10
10
10
10
10
10
10
10
10
10
10
10
10
10
10
10
10
10
10
10
10
10
10
10
10
10
10
10
10
10
10
10
10
10
10
10
10
10
10
10
10
10
10
10
10
10
10
10
10
10
10
10
10
10
10
10
10
10
10
10
10
10
10
10
10
10
10
10
10
10
10
10
10
10
10
10
10
10
10
10
10
10
10
10
10
10
10
10
10
10
10
10
10
10
10
10
10
10
10
10
10
10
10
10
10
10
10
10
10
10
10
10
10
10
10
10
10
10
10
10
10
10
10
10
10
10
10
10
10
10
10
10
10
10
10
10
10
10
10
10
10
10
10
10
10
10
10
10
10
10
10
10
10
10
10
10
10
10
10
10
10
10
10
10
10
10
10
10
10
10
10
10
10
10
10
10
10
10
10
10
10
10
10
10
10
10
10
10
10
10
10
10
10
10
10
10
10
10
10
10
10
10
10
10
10
10
10
10
10
10
10
10
10
10
10
10
10
10
10
10
10
10
10
10
10
10
10
10
10
10
10
10
10
10
10
10
10
10
10
10
10
10
10
10
10
10
10
10
10
10
10
10
10
10
10
10
10
10
10
10
10
10
10
10
10
10
10
10
10
10
10
10
10
10
10
10
10
10
10
10
10
10
10
10
10
10
10
10
10
10
10
10
10
CELL_DATA 596
TENSORS6 Cauchy_stress float
5.01821e+08 5.0206e+08 5.02497e+08 -88506.1 734303 -43819.4 
5.00855e+08 5.00611e+08 5.01531e+08 88468.6 -611613 -43819.4 
5.01894e+08 5.0215e+08 5.02589e+08 -90443.6 752065 -44914.2 
5.00872e+08 5.00618e+08 5.01568e+08 90012.1 -628891 -44914.2 
5.01951e+08 5.02217e+08 5.02665e+08 -92156.4 773209 -46102.9 
5.00896e+08 5.00634e+08 5.01609e+08 92436.6 -645454 -46102.9 
5.01997e+08 5.0227e+08 5.02728e+08 -94476.1 792574 -47248.7 
5.00926e+08 5.00663e+08 5.01657e+08 95555.3 -663340 -47248.7 
5.02025e+08 5.02299e+08 5.02767e+08 -97185.2 809448 -48199.3 
5.00922e+08 5.00645e+08 5.01665e+08 96674.4 -669950 -48199.3 
5.02078e+08 5.02364e+08 5.02836e+08 -98525.4 823232 -49269.9 
5.00937e+08 5.00652e+08 5.01695e+08 98686.5 -683539 -49269.9 
5.02124e+08 5.02417e+08 5.02897e+08 -100507 839866 -50334.9 
5.00959e+08 5.00669e+08 5.01731e+08 100952 -697529 -50334.9 
5.02161e+08 5.02458e+08 5.02948e+08 -102640 855700 -51343.2 
5.00986e+08 5.00696e+08 5.01773e+08 103736 -712852 -51343.2 
5.02182e+08 5.02481e+08 5.02979e+08 -105044 869678 -52172 
5.00984e+08 5.00683e+08 5.0178e+08 104693 -718404 -52172 
5.02226e+08 5.02534e+08 5.03036e+08 -106198 881054 -53108.7 
5.00998e+08 5.00691e+08 5.01807e+08 106454 -730059 -53108.7 
5.02264e+08 5.02577e+08 5.03086e+08 -107928 895031 -54040.2 
5.01017e+08 5.00707e+08 5.01839e+08 108439 -742066 -54040.2 
5.02295e+08 5.02611e+08 5.03128e+08 -109792 908391 -54921 
5.01041e+08 5.00731e+08 5.01875e+08 110879 -755214 -54921 
5.02312e+08 5.02629e+08 5.03154e+08 -111894 920188 -55642.9 
5.0104e+08 5.00721e+08 5.01882e+08 111708 -759945 -55642.9 
5.02349e+08 5.02674e+08 5.03202e+08 -112891 929820 -56459.5 
5.01052e+08 5.00728e+08 5.01905e+08 113243 -769957 -56459.5 
5.02381e+08 5.02711e+08 5.03245e+08 -114396 941738 -57271.2 
5.01069e+08 5.00742e+08 5.01933e+08 114974 -780285 -57271.2 
5.02407e+08 5.02739e+08 5.03281e+08 -116017 953144 -58038.1 
5.0109e+08 5.00764e+08 5.01964e+08 117098 -791563 -58038.1 
5.02421e+08 5.02753e+08 5.03302e+08 -117843 963175 -58666.5 
5.01089e+08 5.00755e+08 5.0197e+08 117824 -795618 -58666.5 
5.02454e+08 5.02792e+08 5.03344e+08 -118711 971423 -59376.3 
5.011e+08 5.00761e+08 5.0199e+08 119160 -804227 -59376.3 
5.02481e+08 5.02824e+08 5.03381e+08 -120016 981652 -60081.3 
5.01114e+08 5.00774e+08 5.02014e+08 120663 -813124 -60081.3 
5.02503e+08 5.02848e+08 5.03411e+08 -121421 991442 -60747.4 
5.01133e+08 5.00793e+08 5.02041e+08 122498 -822800 -60747.4 
5.02515e+08 5.02859e+08 5.03429e+08 -122998 999997 -61294.8 
5.01131e+08 5.00784e+08 5.02046e+08 123144 -826283 -61294.8 
5.02543e+08 5.02893e+08 5.03465e+08 -123759 1.0071e+06 -61910.2 
5.0114e+08 5.0079e+08 5.02063e+08 124305 -833694 -61910.2 
5.02566e+08 5.0292e+08 5.03497e+08 -124889 1.01591e+06 -62520.9 
5.01153e+08 5.00801e+08 5.02084e+08 125606 -841369 -62520.9 
5.02585e+08 5.02941e+08 5.03523e+08 -126101 1.02433e+06 -63098.3 
5.0117e+08 5.00818e+08 5.02108e+08 127180 -849675 -63098.3 
5.02595e+08 5.0295e+08 5.03538e+08 -127455 1.03164e+06 -63576.1 
5.01168e+08 5.0081e+08 5.02111e+08 127767 -852669 -63576.1 
5.02619e+08 5.0298e+08 5.03569e+08 -128131 1.03777e+06 -64108.9 
5.01176e+08 5.00815e+08 5.02126e+08 128776 -859056 -64108.9 
5.0264e+08 5.03004e+08 5.03597e+08 -129108 1.04537e+06 -64636.9 
5.01187e+08 5.00824e+08 5.02144e+08 129897 -865686 -64636.9 
5.02656e+08 5.03021e+08 5.03619e+08 -130151 1.05264e+06 -65136.7 
5.01201e+08 5.0084e+08 5.02165e+08 131234 -872821 -65136.7 
5.02664e+08 5.03029e+08 5.03632e+08 -131304 1.05888e+06 -65555.5 
5.012e+08 5.00833e+08 5.02168e+08 131782 -875398 -65555.5 
5.02685e+08 5.03055e+08 5.03659e+08 -131914 1.06418e+06 -66016.2 
5.01206e+08 5.00836e+08 5.0218e+08 132660 -880910 -66016.2 
5.02703e+08 5.03075e+08 5.03683e+08 -132760 1.07076e+06 -66471.9 
5.01216e+08 5.00845e+08 5.02196e+08 133623 -886647 -66471.9 
5.02717e+08 5.0309e+08 5.03702e+08 -133655 1.07704e+06 -66904.5 
5.01229e+08 5.00858e+08 5.02214e+08 134745 -892781 -66904.5 
5.02723e+08 5.03096e+08 5.03712e+08 -134629 1.08237e+06 -67273.7 
5.01227e+08 5.00852e+08 5.02216e+08 135271 -895002 -67273.7 
5.02742e+08 5.03119e+08 5.03737e+08 -135190 1.08697e+06 -67671.9 
5.01232e+08 5.00855e+08 5.02227e+08 136036 -899765 -67671.9 
5.02757e+08 5.03137e+08 5.03757e+08 -135923 1.09267e+06 -68064.9 
5.01241e+08 5.00862e+08 5.02241e+08 136861 -904741 -68064.9 
5.02769e+08 5.0315e+08 5.03774e+08 -136688 1.09811e+06 -68439.2 
5.01252e+08 5.00875e+08 5.02257e+08 137788 -910019 -68439.2 
5.02774e+08 5.03154e+08 5.03782e+08 -137501 1.10267e+06 -68767.5 
5.0125e+08 5.00868e+08 5.02258e+08 138308 -911937 -68767.5 
5.02791e+08 5.03175e+08 5.03803e+08 -138031 1.10667e+06 -69111.9 
5.01255e+08 5.00871e+08 5.02268e+08 138978 -916062 -69111.9 
5.02805e+08 5.03191e+08 5.03822e+08 -138667 1.11162e+06 -69450.5 
5.01263e+08 5.00878e+08 5.0228e+08 139681 -920386 -69450.5 
5.02815e+08 5.03202e+08 5.03836e+08 -139319 1.11634e+06 -69775 
5.01273e+08 5.00889e+08 5.02294e+08 140433 -924933 -69775 
5.02819e+08 5.03205e+08 5.03843e+08 -139989 1.12023e+06 -70070 
5.01271e+08 5.00883e+08 5.02295e+08 140960 -926596 -70070 
5.02834e+08 5.03223e+08 5.03861e+08 -140500 1.12372e+06 -70368.3 
5.01275e+08 5.00885e+08 5.02303e+08 141550 -930176 -70368.3 
5.02845e+08 5.03237e+08 5.03877e+08 -141055 1.12804e+06 -70660.3 
5.01281e+08 5.00891e+08 5.02313e+08 142147 -933946 -70660.3 
5.02854e+08 5.03247e+08 5.0389e+08 -141609 1.13215e+06 -70942.2 
5.01291e+08 5.00901e+08 5.02326e+08 142739 -937866 -70942.2 
5.02857e+08 5.03248e+08 5.03895e+08 -142152 1.13547e+06 -71210.8 
5.01288e+08 5.00895e+08 5.02326e+08 143286 -939318 -71210.8 
5.02871e+08 5.03265e+08 5.03912e+08 -142657 1.13853e+06 -71470 
5.01292e+08 5.00897e+08 5.02333e+08 143810 -942434 -71470 
5.02881e+08 5.03277e+08 5.03926e+08 -143144 1.14231e+06 -71722.2 
5.01298e+08 5.00902e+08 5.02342e+08 144316 -945731 -71722.2 
5.02889e+08 5.03285e+08 5.03937e+08 -143614 1.14589e+06 -71968.3 
5.01306e+08 5.00912e+08 5.02354e+08 144763 -949115 -71968.3 
5.02891e+08 5.03287e+08 5.03941e+08 -144043 1.14874e+06 -72216.7 
5.01304e+08 5.00906e+08 5.02354e+08 145341 -950393 -72216.7 
5.02903e+08 5.03301e+08 5.03956e+08 -144554 1.15144e+06 -72443.3 
5.01307e+08 5.00908e+08 5.0236e+08 145811 -953115 -72443.3 
5.02912e+08 5.03312e+08 5.03968e+08 -144985 1.15475e+06 -72661.9 
5.01312e+08 5.00912e+08 5.02368e+08 146238 -956010 -72661.9 
5.02919e+08 5.0332e+08 5.03977e+08 -145383 1.15789e+06 -72878.3 
5.0132e+08 5.00921e+08 5.02378e+08 146555 -958933 -72878.3 
5.0292e+08 5.0332e+08 5.03981e+08 -145711 1.16033e+06 -73112.3 
5.01317e+08 5.00916e+08 5.02378e+08 147174 -960075 -73112.3 
5.02931e+08 5.03333e+08 5.03994e+08 -146238 1.16273e+06 -73312 
5.0132e+08 5.00917e+08 5.02383e+08 147602 -962462 -73312 
5.02939e+08 5.03343e+08 5.04005e+08 -146625 1.16565e+06 -73503.1 
5.01324e+08 5.00921e+08 5.0239e+08 147962 -965015 -73503.1 
5.02945e+08 5.03349e+08 5.04013e+08 -146964 1.16842e+06 -73695.5 
5.01331e+08 5.00929e+08 5.024e+08 148160 -967540 -73695.5 
5.02946e+08 5.03349e+08 5.04016e+08 -147204 1.17051e+06 -73920.4 
5.01329e+08 5.00924e+08 5.02399e+08 148830 -968580 -73920.4 
5.02956e+08 5.03362e+08 5.04028e+08 -147757 1.17265e+06 -74099.1 
5.01331e+08 5.00925e+08 5.02403e+08 149227 -970684 -74099.1 
5.02963e+08 5.0337e+08 5.04038e+08 -148110 1.17525e+06 -74268.2 
5.01336e+08 5.00929e+08 5.0241e+08 149532 -972946 -74268.2 
5.02968e+08 5.03376e+08 5.04045e+08 -148401 1.1777e+06 -74442.2 
5.01342e+08 5.00936e+08 5.02418e+08 149626 -975127 -74442.2 
5.02969e+08 5.03375e+08 5.04047e+08 -148564 1.1795e+06 -74663.5 
5.0134e+08 5.00932e+08 5.02418e+08 150355 -976096 -74663.5 
5.02978e+08 5.03386e+08 5.04058e+08 -149153 1.18144e+06 -74826.5 
5.01342e+08 5.00932e+08 5.02421e+08 150733 -977962 -74826.5 
5.02984e+08 5.03394e+08 5.04066e+08 -149484 1.18376e+06 -74979.4 
5.01345e+08 5.00936e+08 5.02427e+08 150994 -979976 -74979.4 
5.02989e+08 5.03399e+08 5.04073e+08 -149738 1.18594e+06 -75140.9 
5.01351e+08 5.00943e+08 5.02435e+08 150996 -981855 -75140.9 
5.02989e+08 5.03398e+08 5.04074e+08 -149838 1.18749e+06 -75363.9 
5.01349e+08 5.00938e+08 5.02434e+08 151795 -982788 -75363.9 
5.02997e+08 5.03409e+08 5.04084e+08 -150472 1.18927e+06 -75517.4 
5.01351e+08 5.00939e+08 5.02438e+08 152163 -984451 -75517.4 
5.03003e+08 5.03416e+08 5.04092e+08 -150794 1.19135e+06 -75660.3 
5.01354e+08 5.00942e+08 5.02443e+08 152394 -986255 -75660.3 
5.03007e+08 5.0342e+08 5.04098e+08 -151023 1.19331e+06 -75815.4 
5.0136e+08 5.00948e+08 5.0245e+08 152319 -987864 -75815.4 
5.03007e+08 5.03419e+08 5.04099e+08 -151074 1.19464e+06 -76046.2 
5.01358e+08 5.00944e+08 5.02449e+08 153196 -988795 -76046.2 
5.03015e+08 5.03429e+08 5.04108e+08 -151765 1.19631e+06 -76196.8 
5.01359e+08 5.00944e+08 5.02452e+08 153569 -990287 -76196.8 
5.03021e+08 5.03435e+08 5.04115e+08 -152090 1.19819e+06 -76336.6 
5.01362e+08 5.00947e+08 5.02457e+08 153783 -991911 -76336.6 
5.03024e+08 5.03439e+08 5.04121e+08 -152311 1.19995e+06 -76492.6 
5.01367e+08 5.00954e+08 5.02464e+08 153649 -993274 -76492.6 
5.03024e+08 5.03437e+08 5.04121e+08 -152328 1.20111e+06 -76738.3 
5.01365e+08 5.0095e+08 5.02463e+08 154616 -994238 -76738.3 
5.03031e+08 5.03447e+08 5.0413e+08 -153089 1.20269e+06 -76894 
5.01366e+08 5.0095e+08 5.02465e+08 155009 -995585 -76894 
5.03036e+08 5.03453e+08 5.04137e+08 -153434 1.2044e+06 -77039.3 
5.01369e+08 5.00953e+08 5.0247e+08 155225 -997054 -77039.3 
5.03039e+08 5.03456e+08 5.04141e+08 -153664 1.20601e+06 -77205.2 
5.01374e+08 5.00958e+08 5.02476e+08 155051 -998183 -77205.2 
5.03039e+08 5.03454e+08 5.04142e+08 -153670 1.207e+06 -77474.5 
5.01372e+08 5.00955e+08 5.02475e+08 156123 -999220 -77474.5 
5.03046e+08 5.03463e+08 5.0415e+08 -154517 1.20853e+06 -77645.5 
5.01373e+08 5.00955e+08 5.02477e+08 156555 -1.00044e+06 -77645.5 
5.03051e+08 5.03469e+08 5.04156e+08 -154903 1.2101e+06 -77807.2 
5.01376e+08 5.00957e+08 5.02481e+08 156794 -1.00177e+06 -77807.2 
5.03054e+08 5.03472e+08 5.0416e+08 -155165 1.21156e+06 -77994.5 
5.01381e+08 5.00963e+08 5.02487e+08 156609 -1.00267e+06 -77994.5 
5.03053e+08 5.0347e+08 5.0416e+08 -155186 1.21241e+06 -78299 
5.01379e+08 5.00959e+08 5.02487e+08 157803 -1.00383e+06 -78299 
5.03059e+08 5.03478e+08 5.04168e+08 -156141 1.21392e+06 -78498.7 
5.0138e+08 5.00959e+08 5.02489e+08 158300 -1.00494e+06 -78498.7 
5.03064e+08 5.03484e+08 5.04174e+08 -156596 1.21536e+06 -78691.4 
5.01382e+08 5.00962e+08 5.02492e+08 158593 -1.00615e+06 -78691.4 
5.03067e+08 5.03487e+08 5.04177e+08 -156922 1.21669e+06 -78915.6 
5.01387e+08 5.00967e+08 5.02498e+08 158433 -1.00681e+06 -78915.6 
5.03066e+08 5.03484e+08 5.04178e+08 -156995 1.2174e+06 -79271 
5.01386e+08 5.00964e+08 5.02498e+08 159774 -1.00813e+06 -79271 
5.03072e+08 5.03492e+08 5.04185e+08 -158088 1.21892e+06 -79517.5 
5.01386e+08 5.00964e+08 5.02499e+08 160372 -1.00914e+06 -79517.5 
5.03076e+08 5.03497e+08 5.0419e+08 -158650 1.22023e+06 -79761.3 
5.01389e+08 5.00966e+08 5.02503e+08 160758 -1.01023e+06 -79761.3 
5.03079e+08 5.035e+08 5.04193e+08 -159084 1.22142e+06 -80043.8 
5.01393e+08 5.00971e+08 5.02508e+08 160674 -1.01063e+06 -80043.8 
5.03078e+08 5.03497e+08 5.04194e+08 -159260 1.22198e+06 -80471.8 
5.01392e+08 5.00969e+08 5.02508e+08 162196 -1.01218e+06 -80471.8 
5.03083e+08 5.03505e+08 5.042e+08 -160532 1.22351e+06 -80790.7 
5.01393e+08 5.00969e+08 5.02509e+08 162943 -1.0131e+06 -80790.7 
5.03087e+08 5.03509e+08 5.04205e+08 -161255 1.22468e+06 -81113.3 
5.01395e+08 5.00971e+08 5.02513e+08 163481 -1.01407e+06 -81113.3 
5.03089e+08 5.03511e+08 5.04208e+08 -161857 1.2257e+06 -81484.1 
5.01399e+08 5.00976e+08 5.02518e+08 163543 -1.01419e+06 -81484.1 
5.03088e+08 5.03508e+08 5.04207e+08 -162208 1.22604e+06 -82015.2 
5.01399e+08 5.00975e+08 5.02518e+08 165295 -1.01601e+06 -82015.2 
5.03093e+08 5.03515e+08 5.04213e+08 -163718 1.22756e+06 -82442 
5.014e+08 5.00975e+08 5.0252e+08 166260 -1.01684e+06 -82442 
5.03096e+08 5.03518e+08 5.04217e+08 -164677 1.22851e+06 -82882.7 
5.01402e+08 5.00977e+08 5.02523e+08 167029 -1.0177e+06 -82882.7 
5.03097e+08 5.03519e+08 5.04218e+08 -165533 1.22926e+06 -83383.8 
5.01407e+08 5.00983e+08 5.02528e+08 167334 -1.01752e+06 -83383.8 
5.03094e+08 5.03514e+08 5.04217e+08 -166157 1.22922e+06 -84061 
5.01407e+08 5.00983e+08 5.0253e+08 169398 -1.01963e+06 -84061 
5.03099e+08 5.03519e+08 5.04221e+08 -167996 1.23059e+06 -84643.4 
5.01408e+08 5.00984e+08 5.02531e+08 170714 -1.02041e+06 -84643.4 
5.031e+08 5.0352e+08 5.04223e+08 -169319 1.23112e+06 -85246.5 
5.01412e+08 5.00988e+08 5.02535e+08 172012 -1.02138e+06 -85246.5 
5.03098e+08 5.03517e+08 5.04222e+08 -170654 1.23138e+06 -85886.5 
5.01411e+08 5.00986e+08 5.02534e+08 170890 -1.02032e+06 -85886.5 
4.99991e+08 5e+08 4.99989e+08 1831.86 6026.93 6930.04 
4.99998e+08 5.00001e+08 5.00005e+08 1380.88 -1903.79 7263.5 
4.99997e+08 5e+08 4.99991e+08 -3806.88 7006.27 -5113.37 
5.00009e+08 5.00009e+08 5.00013e+08 -1167.5 -1903.79 -6541.68 
4.9999e+08 4.99999e+08 4.99988e+08 1780.59 5416.31 6851.45 
4.99997e+08 5.00001e+08 5.00004e+08 1440.83 -2173.46 7124.51 
4.99997e+08 5e+08 4.9999e+08 -3924.85 6405.34 -5596.41 
5.00008e+08 5.00008e+08 5.00011e+08 -1209.09 -2173.46 -7058.18 
4.9999e+08 4.99999e+08 4.99988e+08 1872.36 5267.33 7025.95 
4.99997e+08 5e+08 5.00003e+08 1480.81 -1634.42 7316.12 
4.99997e+08 4.99999e+08 4.99991e+08 -3911.84 6284.74 -5776.42 
5.00008e+08 5.00007e+08 5.0001e+08 -1230.54 -1634.42 -7212.37 
4.9999e+08 4.99998e+08 4.99987e+08 2117.48 4286.08 7495.15 
4.99991e+08 4.99994e+08 4.99994e+08 1499.57 -0.0179796 7872.69 
4.99996e+08 4.99999e+08 4.99989e+08 -3747.42 5327.52 -5623.27 
5.00002e+08 5.00001e+08 5.00001e+08 -1230.3 -0.0179796 -6951.33 
4.9999e+08 4.99997e+08 4.99989e+08 1823.4 4975.64 7387.32 
4.99997e+08 5e+08 5.00003e+08 1567 -1317.48 7598.99 
4.99997e+08 4.99998e+08 4.99991e+08 -3674.45 6019.83 -6186.86 
5.00008e+08 5.00008e+08 5.00011e+08 -1278.72 -1317.48 -7469.13 
4.9999e+08 4.99997e+08 4.99989e+08 1831.03 4612.75 7489.37 
4.99997e+08 5e+08 5.00003e+08 1614.02 -1678.75 7680.68 
4.99997e+08 4.99998e+08 4.99991e+08 -3651.51 5682.26 -6433.49 
5.00009e+08 5.00008e+08 5.00011e+08 -1306.63 -1678.75 -7689.89 
4.9999e+08 4.99997e+08 4.99989e+08 1920.29 4443.9 7673.13 
4.99996e+08 4.99999e+08 5.00002e+08 1645.17 -1314.99 7887.49 
4.99997e+08 4.99998e+08 4.99992e+08 -3607.55 5541.82 -6548.28 
5.00008e+08 5.00007e+08 5.0001e+08 -1318.53 -1314.99 -7770.95 
4.9999e+08 4.99997e+08 4.99988e+08 2136.26 3524.28 8096.18 
4.99991e+08 4.99994e+08 4.99994e+08 1659.72 -0.0150367 8390.12 
4.99997e+08 4.99998e+08 4.99991e+08 -3444.81 4643.92 -6394.14 
5.00003e+08 5.00002e+08 5.00002e+08 -1313.42 -0.0150367 -7516.87 
4.9999e+08 4.99997e+08 4.9999e+08 1875.14 4145.51 7988.31 
4.99996e+08 4.99999e+08 5.00002e+08 1715.36 -1132.43 8137.47 
4.99998e+08 4.99998e+08 4.99993e+08 -3379.78 5267.07 -6888.03 
5.00009e+08 5.00008e+08 5.0001e+08 -1349.39 -1132.43 -7973.88 
4.9999e+08 4.99997e+08 4.9999e+08 1882.15 3828.35 8071.21 
4.99996e+08 4.99999e+08 5.00002e+08 1754.57 -1451.62 8204.21 
4.99998e+08 4.99998e+08 4.99993e+08 -3356.27 4972.13 -7099.24 
5.00009e+08 5.00008e+08 5.0001e+08 -1368.86 -1451.62 -8163.72 
4.99991e+08 4.99997e+08 4.9999e+08 1961.9 3679.33 8227.59 
4.99995e+08 4.99999e+08 5.00001e+08 1780.75 -1142.6 8382.57 
4.99998e+08 4.99998e+08 4.99993e+08 -3314.39 4848.08 -7194.37 
5.00009e+08 5.00007e+08 5.0001e+08 -1375.19 -1142.6 -8230.13 
4.9999e+08 4.99997e+08 4.9999e+08 2154.35 2894.98 8594.99 
4.99991e+08 4.99994e+08 4.99994e+08 1792.84 -0.0133024 8822.17 
4.99998e+08 4.99998e+08 4.99992e+08 -3168.92 4082.74 -7052.51 
5.00004e+08 5.00003e+08 5.00003e+08 -1367.07 -0.0133024 -8001.63 
4.99991e+08 4.99997e+08 4.99991e+08 1929.2 3414 8494.3 
4.99995e+08 4.99998e+08 5.00001e+08 1841.57 -1004.6 8596.62 
4.99999e+08 4.99998e+08 4.99994e+08 -3112.87 4603.3 -7482.37 
5.00009e+08 5.00007e+08 5.0001e+08 -1395.59 -1004.6 -8401.3 
4.99991e+08 4.99997e+08 4.99991e+08 1938.09 3135.64 8562.62 
4.99995e+08 4.99998e+08 5.00001e+08 1876.12 -1289.9 8652.28 
4.99999e+08 4.99998e+08 4.99994e+08 -3091.21 4344.32 -7663.97 
5.00009e+08 5.00008e+08 5.0001e+08 -1409.89 -1289.9 -8565.27 
4.99991e+08 4.99997e+08 4.99991e+08 2011.02 3009.69 8695.24 
4.99995e+08 4.99998e+08 5e+08 1899.39 -1017.2 8805.69 
4.99999e+08 4.99999e+08 4.99994e+08 -3054.02 4240.17 -7744.07 
5.00009e+08 5.00007e+08 5.00009e+08 -1412.79 -1017.2 -8621.44 
4.99991e+08 4.99997e+08 4.99991e+08 2182.82 2363.01 9009.93 
4.99991e+08 4.99994e+08 4.99994e+08 1910.02 -0.0120406 9185.44 
4.99999e+08 4.99999e+08 4.99994e+08 -2928.21 3610.1 -7617.68 
5.00005e+08 5.00003e+08 5.00003e+08 -1402.76 -0.0120406 -8421.66 
4.99991e+08 4.99997e+08 4.99992e+08 1991.87 2780.5 8920.76 
4.99995e+08 4.99998e+08 5e+08 1953.92 -905.696 8989.49 
5e+08 4.99999e+08 4.99995e+08 -2879.18 4029 -7988.63 
5.00009e+08 5.00007e+08 5.00009e+08 -1426 -905.696 -8767.13 
4.99991e+08 4.99997e+08 4.99992e+08 2002.96 2535.27 8977.85 
4.99995e+08 4.99998e+08 5e+08 1985.2 -1162.74 9036.78 
5e+08 4.99999e+08 4.99995e+08 -2859.68 3800.62 -8144.73 
5.00009e+08 5.00007e+08 5.00009e+08 -1436.57 -1162.74 -8908.63 
4.99992e+08 4.99997e+08 4.99992e+08 2069.92 2431.18 9089.78 
4.99994e+08 4.99997e+08 4.99999e+08 2006.43 -917.519 9168.07 
5e+08 4.99999e+08 4.99995e+08 -2827.72 3715.43 -8213.05 
5.00009e+08 5.00007e+08 5.00009e+08 -1437.01 -917.519 -8957.41 
4.99991e+08 4.99997e+08 4.99992e+08 2222.24 1909.17 9355.12 
4.99991e+08 4.99994e+08 4.99994e+08 2016.04 -0.0110361 9491.3 
5e+08 4.99999e+08 4.99995e+08 -2721.65 3207.9 -8104.27 
5.00006e+08 5.00004e+08 5.00004e+08 -1425.56 -0.0110361 -8787.84 
4.99992e+08 4.99997e+08 4.99993e+08 2062.62 2235.6 9280.45 
4.99994e+08 4.99997e+08 4.99999e+08 2056.19 -824.641 9326.1 
5.00001e+08 4.99999e+08 4.99996e+08 -2677.04 3535.85 -8420.81 
5.00009e+08 5.00007e+08 5.00009e+08 -1444.66 -824.641 -9081.9 
4.99992e+08 4.99997e+08 4.99993e+08 2075.72 2018.77 9328.93 
4.99994e+08 4.99997e+08 4.99999e+08 2084.91 -1057.79 9367.13 
5.00001e+08 4.99999e+08 4.99996e+08 -2659.38 3333.58 -8554.62 
5.00009e+08 5.00007e+08 5.00009e+08 -1452.29 -1057.79 -9203.56 
4.99992e+08 4.99997e+08 4.99993e+08 2137.04 1934.15 9422.72 
4.99994e+08 4.99997e+08 4.99998e+08 2104.56 -834.852 9478.71 
5.00001e+08 4.99999e+08 4.99996e+08 -2632.53 3265.24 -8613.67 
5.00009e+08 5.00007e+08 5.00008e+08 -1450.77 -834.852 -9247.01 
4.99992e+08 4.99997e+08 4.99993e+08 2270.59 1520.77 9641.92 
4.99991e+08 4.99994e+08 4.99994e+08 2113.37 -0.0102017 9748.49 
5.00001e+08 4.99999e+08 4.99996e+08 -2545.6 2864.45 -8524.08 
5.00006e+08 5.00004e+08 5.00004e+08 -1438.2 -0.0102017 -9108.49 
4.99992e+08 4.99997e+08 4.99993e+08 2139.53 1768.23 9583.94 
4.99994e+08 4.99997e+08 4.99998e+08 2150.45 -756.508 9614.7 
5.00001e+08 4.99999e+08 4.99997e+08 -2502.94 3113.75 -8790.12 
5.00009e+08 5.00007e+08 5.00008e+08 -1453.88 -756.508 -9353.62 
4.99992e+08 4.99997e+08 4.99993e+08 2154.4 1575.78 9625.89 
4.99994e+08 4.99997e+08 4.99998e+08 2177.07 -969.322 9651.19 
5.00002e+08 5e+08 4.99997e+08 -2486.68 2933.79 -8904.28 
5.00009e+08 5.00007e+08 5.00009e+08 -1459.07 -969.322 -9457.58 
4.99992e+08 4.99997e+08 4.99994e+08 2210.36 1508.12 9703.68 
4.99993e+08 4.99996e+08 4.99998e+08 2195.42 -765.038 9745.1 
5.00002e+08 5e+08 4.99997e+08 -2464.65 2880.06 -8956.08 
5.00009e+08 5.00007e+08 5.00008e+08 -1455.93 -765.038 -9497.36 
4.99992e+08 4.99997e+08 4.99993e+08 2325.75 1188.22 9879.53 
4.99991e+08 4.99994e+08 4.99994e+08 2203.6 -0.00949665 9964.23 
5.00002e+08 5e+08 4.99997e+08 -2396.14 2571.1 -8886.92 
5.00007e+08 5.00005e+08 5.00005e+08 -1442.41 -0.00949665 -9390.39 
4.99992e+08 4.99997e+08 4.99994e+08 2220.84 1367.87 9839.93 
4.99993e+08 4.99996e+08 4.99998e+08 2238.09 -698.643 9862.23 
5.00002e+08 5e+08 4.99998e+08 -2353.29 2753.08 -9105.81 
5.00009e+08 5.00007e+08 5.00008e+08 -1455.2 -698.643 -9588.78 
4.99992e+08 4.99997e+08 4.99994e+08 2237.35 1196.33 9877.07 
4.99993e+08 4.99996e+08 4.99998e+08 2262.96 -894.11 9895.64 
5.00002e+08 5e+08 4.99998e+08 -2338.03 2592.22 -9202.52 
5.00009e+08 5.00007e+08 5.00008e+08 -1458.32 -894.11 -9676.84 
4.99992e+08 4.99998e+08 4.99994e+08 2288.25 1143.36 9940.62 
4.99993e+08 4.99996e+08 4.99997e+08 2280.24 -705.649 9973.65 
5.00002e+08 5e+08 4.99998e+08 -2320.54 2551.03 -9248.75 
5.00009e+08 5.00007e+08 5.00008e+08 -1453.79 -705.649 -9714.32 
4.99992e+08 4.99998e+08 4.99994e+08 2386.13 903.716 10075.5 
4.99991e+08 4.99994e+08 4.99994e+08 2287.9 -0.00889726 10144.6 
5.00002e+08 5e+08 4.99998e+08 -2269.8 2320.88 -9200.95 
5.00007e+08 5.00005e+08 5.00005e+08 -1439.46 -0.00889726 -9639.22 
4.99993e+08 4.99997e+08 4.99994e+08 2305.41 1025.14 10055.6 
4.99993e+08 4.99996e+08 4.99997e+08 2320.22 -649.317 10074.6 
5.00003e+08 5e+08 4.99998e+08 -2224.99 2445.29 -9375.59 
5.00009e+08 5.00007e+08 5.00008e+08 -1449.78 -649.317 -9792.81 
4.99993e+08 4.99998e+08 4.99994e+08 2323.54 871.554 10089.3 
4.99993e+08 4.99996e+08 4.99997e+08 2343.61 -829.971 10106.2 
5.00003e+08 5e+08 4.99998e+08 -2210.41 2300.76 -9456.7 
5.00009e+08 5.00007e+08 5.00008e+08 -1451.12 -829.971 -9866.52 
4.99993e+08 4.99998e+08 4.99995e+08 2369.78 831.273 10140.1 
4.99993e+08 4.99996e+08 4.99997e+08 2360.01 -654.993 10169.8 
5.00003e+08 5e+08 4.99998e+08 -2197.28 2270.33 -9498.75 
5.00009e+08 5.00007e+08 5.00008e+08 -1445.39 -654.993 -9902.83 
4.99993e+08 4.99998e+08 4.99995e+08 2450.81 660.736 10236.2 
4.99991e+08 4.99994e+08 4.99994e+08 2367.24 -0.0083872 10294.7 
5.00003e+08 5e+08 4.99998e+08 -2163.76 2108.05 -9473.03 
5.00008e+08 5.00005e+08 5.00005e+08 -1430.36 -0.0083872 -9859.85 
4.99993e+08 4.99998e+08 4.99995e+08 2392.7 731.899 10236.9 
4.99993e+08 4.99996e+08 4.99997e+08 2397.74 -607.232 10257 
5.00003e+08 5e+08 4.99999e+08 -2115.59 2182.99 -9605.89 
5.00009e+08 5.00007e+08 5.00008e+08 -1438.55 -607.232 -9970.34 
4.99993e+08 4.99998e+08 4.99995e+08 2412.57 593.712 10268.3 
4.99993e+08 4.99996e+08 4.99997e+08 2419.9 -775.227 10287.8 
5.00003e+08 5e+08 4.99999e+08 -2101.49 2052.42 -9672.94 
5.00009e+08 5.00007e+08 5.00008e+08 -1438.35 -775.227 -10031 
4.99993e+08 4.99998e+08 4.99995e+08 2454.57 564.409 10307.6 
4.99992e+08 4.99995e+08 4.99996e+08 2435.57 -611.757 10338.3 
5.00003e+08 5e+08 4.99999e+08 -2092.61 2031.23 -9711.94 
5.00009e+08 5.00007e+08 5.00007e+08 -1431.57 -611.757 -10067.1 
4.99993e+08 4.99998e+08 4.99995e+08 2519.47 453.765 10366.5 
4.99991e+08 4.99994e+08 4.99994e+08 2442.46 -0.00795418 10419.1 
5.00003e+08 5e+08 4.99999e+08 -2075.91 1927.76 -9708.83 
5.00008e+08 5.00005e+08 5.00005e+08 -1415.91 -0.00795418 -10056.4 
4.99993e+08 4.99998e+08 4.99995e+08 2482.76 481.113 10388.7 
4.99992e+08 4.99995e+08 4.99996e+08 2471.43 -571.334 10413.7 
5.00004e+08 5e+08 4.99999e+08 -2023.31 1959.8 -9802.02 
5.00009e+08 5.00007e+08 5.00007e+08 -1422.26 -571.334 -10125.3 
4.99993e+08 4.99998e+08 4.99995e+08 2504.56 356.129 10418.8 
4.99992e+08 4.99995e+08 4.99996e+08 2492.59 -728.505 10444.6 
5.00004e+08 5e+08 4.99999e+08 -2009.62 1841.15 -9856.29 
5.00009e+08 5.00007e+08 5.00007e+08 -1420.72 -728.505 -10174.1 
4.99993e+08 4.99998e+08 4.99995e+08 2542.82 336.349 10447.4 
4.99992e+08 4.99995e+08 4.99996e+08 2507.68 -574.851 10483.2 
5.00004e+08 5.00001e+08 4.99999e+08 -2004.99 1827.92 -9893.16 
5.00009e+08 5.00007e+08 5.00007e+08 -1413.03 -574.851 -10210.9 
4.99993e+08 4.99998e+08 4.99995e+08 2592.34 278.128 10470.7 
4.99991e+08 4.99994e+08 4.99994e+08 2514.31 -0.00758795 10521.5 
5.00004e+08 5.00001e+08 4.99999e+08 -2004.85 1775.94 -9913 
5.00008e+08 5.00005e+08 5.00005e+08 -1396.78 -0.00758795 -10232.4 
4.99993e+08 4.99998e+08 4.99996e+08 2576.13 266.74 10514.9 
4.99992e+08 4.99995e+08 4.99996e+08 2542.02 -540.739 10548.5 
5.00004e+08 5.00001e+08 5e+08 -1947.07 1770.27 -9968.32 
5.00009e+08 5.00007e+08 5.00007e+08 -1401.53 -540.739 -10261.2 
4.99993e+08 4.99998e+08 4.99995e+08 2600.14 153.06 10544.3 
4.99992e+08 4.99995e+08 4.99996e+08 2562.35 -688.643 10580.3 
5.00004e+08 5.00001e+08 5e+08 -1933.84 1661.8 -10010.9 
5.00009e+08 5.00007e+08 5.00007e+08 -1398.81 -688.643 -10299 
4.99993e+08 4.99998e+08 4.99996e+08 2635.2 141.57 10563.2 
4.99992e+08 4.99995e+08 4.99996e+08 2576.99 -543.353 10607.9 
5.00004e+08 5.00001e+08 5e+08 -1933.57 1655.43 -10046.3 
5.00009e+08 5.00007e+08 5.00007e+08 -1390.3 -543.353 -10337.1 
4.99993e+08 4.99998e+08 4.99996e+08 2670.16 129.879 10552.1 
4.99991e+08 4.99994e+08 4.99994e+08 2583.44 -0.00728011 10605.4 
5.00004e+08 5.00001e+08 5e+08 -1949.86 1649.19 -10089.3 
5.00008e+08 5.00006e+08 5.00006e+08 -1373.53 -0.00728011 -10391 
4.99993e+08 4.99998e+08 4.99996e+08 2673.8 83.5738 10618.7 
4.99992e+08 4.99995e+08 4.99996e+08 2610.12 -514.684 10664.7 
5.00004e+08 5.00001e+08 5e+08 -1886.49 1609.72 -10108.2 
5.00009e+08 5.00007e+08 5.00007e+08 -1376.88 -514.684 -10380.8 
4.99993e+08 4.99998e+08 4.99996e+08 2700.39 -20.4518 10647.9 
4.99992e+08 4.99995e+08 4.99996e+08 2629.81 -654.633 10698 
5.00004e+08 5.00001e+08 5e+08 -1873.91 1509.91 -10139.9 
5.0001e+08 5.00007e+08 5.00007e+08 -1373.11 -654.633 -10408.7 
4.99993e+08 4.99998e+08 4.99996e+08 2732.86 -24.6917 10657.7 
4.99992e+08 4.99995e+08 4.99995e+08 2644.11 -516.459 10715.5 
5.00004e+08 5.00001e+08 5e+08 -1878.23 1509.5 -10174.5 
5.00009e+08 5.00007e+08 5.00007e+08 -1363.86 -516.459 -10448.7 
4.99994e+08 4.99998e+08 4.99996e+08 2754.11 5.71064 10613.3 
4.99991e+08 4.99994e+08 4.99994e+08 2650.45 -0.00702318 10673.5 
5.00004e+08 5.00001e+08 5e+08 -1910.99 1544.68 -10240.5 
5.00009e+08 5.00006e+08 5.00006e+08 -1346.58 -0.00702318 -10534.7 
4.99993e+08 4.99998e+08 4.99996e+08 2777.22 -72.8838 10702.4 
4.99992e+08 4.99995e+08 4.99995e+08 2676.32 -492.507 10765 
5.00004e+08 5.00001e+08 5e+08 -1841.93 1474.13 -10224.4 
5.0001e+08 5.00007e+08 5.00007e+08 -1348.69 -492.507 -10486.9 
4.99993e+08 4.99998e+08 4.99996e+08 2806.84 -168.695 10731.8 
4.99992e+08 4.99995e+08 4.99995e+08 2695.51 -625.596 10800.3 
5.00004e+08 5.00001e+08 5e+08 -1830.33 1381.64 -10245.9 
5.0001e+08 5.00007e+08 5.00007e+08 -1343.99 -625.596 -10505.4 
4.99994e+08 4.99998e+08 4.99996e+08 2837.38 -166.563 10733 
4.99992e+08 4.99995e+08 4.99995e+08 2709.6 -493.465 10808.5 
5.00005e+08 5.00001e+08 5e+08 -1839.64 1386.45 -10279.9 
5.00009e+08 5.00007e+08 5.00007e+08 -1334.06 -493.465 -10547.8 
4.99994e+08 4.99998e+08 4.99996e+08 2845.89 -97.1231 10656.2 
4.99991e+08 4.99994e+08 4.99994e+08 2715.89 -0.00681132 10728.3 
5.00005e+08 5.00001e+08 5.00001e+08 -1889.06 1460.1 -10368.8 
5.00009e+08 5.00006e+08 5.00006e+08 -1316.29 -0.00681132 -10665.8 
4.99994e+08 4.99998e+08 4.99996e+08 2888.3 -206.549 10767.7 
4.99992e+08 4.99995e+08 4.99995e+08 2741.14 -473.62 10851.9 
5.00005e+08 5.00001e+08 5e+08 -1814.56 1360 -10318.7 
5.0001e+08 5.00007e+08 5.00007e+08 -1317.29 -473.62 -10581.5 
4.99994e+08 4.99998e+08 4.99996e+08 2921.49 -295.416 10797.7 
4.99992e+08 4.99995e+08 4.99995e+08 2759.98 -600.746 10889.7 
5.00005e+08 5.00001e+08 5e+08 -1804.5 1273.69 -10330.4 
5.0001e+08 5.00007e+08 5.00007e+08 -1311.74 -600.746 -10591.5 
4.99994e+08 4.99998e+08 4.99996e+08 2950.85 -287.652 10790.6 
4.99992e+08 4.99995e+08 4.99995e+08 2773.96 -473.74 10889.2 
5.00005e+08 5.00001e+08 5e+08 -1819.36 1283.08 -10364 
5.0001e+08 5.00007e+08 5.00007e+08 -1301.19 -473.74 -10636.7 
4.99994e+08 4.99998e+08 4.99997e+08 2947.67 -180.865 10682.3 
4.99991e+08 4.99994e+08 4.99994e+08 2780.27 -0.00663922 10772.1 
5.00005e+08 5.00001e+08 5.00001e+08 -1885.82 1393.63 -10475.3 
5.00009e+08 5.00006e+08 5.00006e+08 -1282.92 -0.00663922 -10786.3 
4.99994e+08 4.99998e+08 4.99996e+08 3009.45 -320.869 10815.9 
4.99992e+08 4.99995e+08 4.99995e+08 2805.07 -457.495 10927.3 
5.00005e+08 5.00001e+08 5.00001e+08 -1806.55 1264.3 -10392.2 
5.0001e+08 5.00007e+08 5.00007e+08 -1282.93 -457.495 -10666.7 
4.99994e+08 4.99998e+08 4.99996e+08 3046.85 -403.927 10846.4 
4.99992e+08 4.99995e+08 4.99995e+08 2823.69 -579.37 10967.8 
5.00005e+08 5.00001e+08 5.00001e+08 -1798.79 1183.15 -10394.4 
5.0001e+08 5.00007e+08 5.00007e+08 -1276.6 -579.37 -10668.7 
4.99994e+08 4.99998e+08 4.99997e+08 3075.87 -391.156 10831.3 
4.99992e+08 4.99995e+08 4.99995e+08 2837.67 -456.705 10959.3 
5.00005e+08 5.00001e+08 5.00001e+08 -1819.99 1196.63 -10427.6 
5.0001e+08 5.00007e+08 5.00007e+08 -1265.44 -456.705 -10717 
4.99994e+08 4.99999e+08 4.99997e+08 3062.21 -247.309 10692.2 
4.99991e+08 4.99994e+08 4.99994e+08 2844.06 -0.00650272 10806.6 
5.00005e+08 5.00001e+08 5.00001e+08 -1904.11 1343.89 -10560.5 
5.00009e+08 5.00006e+08 5.00006e+08 -1246.67 -0.00650272 -10897.8 
4.99994e+08 4.99998e+08 4.99997e+08 3143.66 -418.933 10847.3 
4.99992e+08 4.99995e+08 4.99995e+08 2868.56 -443.646 10992.9 
5.00005e+08 5.00001e+08 5.00001e+08 -1821.21 1184.34 -10445.1 
5.0001e+08 5.00007e+08 5.00007e+08 -1245.77 -443.646 -10744.2 
4.99994e+08 4.99998e+08 4.99997e+08 3186.02 -497.219 10878.3 
4.99992e+08 4.99995e+08 4.99995e+08 2887.1 -560.802 11036.5 
5.00005e+08 5.00001e+08 5.00001e+08 -1816.83 1107.43 -10437.8 
5.0001e+08 5.00007e+08 5.00007e+08 -1238.7 -560.802 -10738.9 
4.99994e+08 4.99999e+08 4.99997e+08 3215.65 -479.972 10855.3 
4.99992e+08 4.99994e+08 4.99995e+08 2901.16 -441.818 11020.3 
5.00005e+08 5.00001e+08 5.00001e+08 -1845.44 1124.6 -10470.3 
5.0001e+08 5.00007e+08 5.00007e+08 -1226.97 -441.818 -10790.6 
4.99994e+08 4.99999e+08 4.99997e+08 3192.9 -297.852 10686.1 
4.99991e+08 4.99994e+08 4.99994e+08 2907.7 -0.00639802 10833.4 
5.00005e+08 5.00001e+08 5.00001e+08 -1948.08 1309.92 -10623.7 
5.0001e+08 5.00006e+08 5.00006e+08 -1207.66 -0.00639802 -11001.8 
4.99994e+08 4.99999e+08 4.99997e+08 3294.52 -503.589 10861.7 
4.99992e+08 4.99995e+08 4.99995e+08 2932.05 -431.615 11050.1 
5.00005e+08 5.00001e+08 5.00001e+08 -1863.3 1117.74 -10476.7 
5.0001e+08 5.00007e+08 5.00007e+08 -1205.91 -431.615 -10815.7 
4.99994e+08 4.99999e+08 4.99997e+08 3342.71 -578.08 10892.9 
4.99992e+08 4.99995e+08 4.99995e+08 2950.61 -544.407 11096.8 
5.00005e+08 5.00001e+08 5.00001e+08 -1863.75 1044.23 -10459.8 
5.0001e+08 5.00007e+08 5.00007e+08 -1198.13 -544.407 -10803.5 
4.99994e+08 4.99999e+08 4.99997e+08 3374.05 -556.817 10862 
4.99992e+08 4.99994e+08 4.99994e+08 2964.87 -428.556 11073.6 
5.00005e+08 5.00001e+08 5.00001e+08 -1901.22 1064.78 -10491.1 
5.0001e+08 5.00007e+08 5.00007e+08 -1185.83 -428.556 -10858.7 
4.99995e+08 4.99999e+08 4.99997e+08 3343.86 -333.536 10663.6 
4.99992e+08 4.99994e+08 4.99994e+08 2971.61 -0.00632213 10854 
5.00006e+08 5.00001e+08 5.00001e+08 -2023.6 1291.18 -10663.3 
5.0001e+08 5.00007e+08 5.00007e+08 -1165.96 -0.00632213 -11099.4 
4.99994e+08 4.99999e+08 4.99997e+08 3466.38 -577.57 10858.4 
4.99992e+08 4.99994e+08 4.99994e+08 2995.94 -420.968 11100 
5.00006e+08 5.00001e+08 5.00001e+08 -1939.4 1062.26 -10485.2 
5.0001e+08 5.00007e+08 5.00007e+08 -1163.39 -420.968 -10882.6 
4.99994e+08 4.99999e+08 4.99997e+08 3521.39 -649.223 10889.3 
4.99992e+08 4.99994e+08 4.99994e+08 3014.64 -529.574 11149.7 
5.00006e+08 5.00001e+08 5.00001e+08 -1946.65 991.374 -10458.4 
5.0001e+08 5.00007e+08 5.00007e+08 -1154.9 -529.574 -10864.2 
4.99995e+08 4.99999e+08 4.99997e+08 3555.68 -624.36 10850.3 
4.99992e+08 4.99994e+08 4.99994e+08 3029.19 -416.413 11119.9 
5.00006e+08 5.00001e+08 5.00001e+08 -1994.89 1015.09 -10487.5 
5.0001e+08 5.00007e+08 5.00007e+08 -1142.03 -416.413 -10922.9 
4.99995e+08 4.99999e+08 4.99998e+08 3519.98 -355.113 10623.5 
4.99992e+08 4.99995e+08 4.99995e+08 3036.18 -0.0062737 10869.5 
5.00006e+08 5.00001e+08 5.00002e+08 -2138.62 1287.55 -10676.3 
5.0001e+08 5.00007e+08 5.00007e+08 -1121.54 -0.0062737 -11191.6 
4.99995e+08 4.99999e+08 4.99997e+08 3664.32 -643.646 10835.6 
4.99992e+08 4.99994e+08 4.99994e+08 3060.62 -411.323 11143.2 
5.00006e+08 5.00001e+08 5.00001e+08 -2058.46 1015.8 -10467.7 
5.0001e+08 5.00007e+08 5.00007e+08 -1118.15 -411.323 -10946.3 
4.99995e+08 4.99999e+08 4.99997e+08 3727.29 -713.46 10865.5 
4.99992e+08 4.99994e+08 4.99994e+08 3079.56 -515.755 11195.8 
5.00006e+08 5.00001e+08 5.00001e+08 -2075.09 946.759 -10430.2 
5.0001e+08 5.00007e+08 5.00007e+08 -1108.96 -515.755 -10922.3 
4.99995e+08 4.99999e+08 4.99997e+08 3765.93 -685.393 10818.3 
4.99992e+08 4.99994e+08 4.99994e+08 3094.49 -404.94 11159.8 
5.00006e+08 5.00001e+08 5.00001e+08 -2136.64 973.503 -10455.8 
5.0001e+08 5.00007e+08 5.00007e+08 -1095.48 -404.94 -10984.5 
4.99995e+08 4.99999e+08 4.99998e+08 3727.04 -363.135 10564.2 
4.99992e+08 4.99995e+08 4.99995e+08 3101.77 -0.00625263 10880.9 
5.00006e+08 5.00001e+08 5.00002e+08 -2303.88 1299.31 -10658.1 
5.00011e+08 5.00007e+08 5.00007e+08 -1074.27 -0.00625263 -11279.3 
4.99995e+08 4.99999e+08 4.99997e+08 3894.26 -704.837 10790.8 
4.99992e+08 4.99994e+08 4.99994e+08 3126.42 -402.463 11180 
5.00006e+08 5.00001e+08 5.00001e+08 -2232.4 976.203 -10419.4 
5.00011e+08 5.00007e+08 5.00007e+08 -1070.05 -402.463 -11008.3 
4.99995e+08 4.99999e+08 4.99997e+08 3966.4 -773.94 10818.8 
4.99992e+08 4.99994e+08 4.99994e+08 3145.67 -502.638 11235.1 
5.00006e+08 5.00001e+08 5.00001e+08 -2261.88 908.192 -10370.3 
5.00011e+08 5.00007e+08 5.00007e+08 -1060.08 -502.638 -10979.3 
4.99995e+08 4.99999e+08 4.99997e+08 4010.96 -743.082 10763 
4.99992e+08 4.99994e+08 4.99994e+08 3161.05 -393.901 11193.3 
5.00006e+08 5.00001e+08 5.00001e+08 -2340.06 937.906 -10390.5 
5.00011e+08 5.00007e+08 5.00007e+08 -1045.92 -393.901 -11044.9 
4.99996e+08 5e+08 4.99998e+08 3971.61 -358.147 10483 
4.99993e+08 4.99995e+08 4.99995e+08 3168.61 -0.00626382 10888.7 
5.00007e+08 5.00001e+08 5.00002e+08 -2533.63 1327.07 -10602 
5.00012e+08 5.00008e+08 5.00008e+08 -1023.85 -0.00626382 -11363.1 
4.99995e+08 4.99999e+08 4.99997e+08 4162.79 -764.74 10720.8 
4.99992e+08 4.99994e+08 4.99994e+08 3193.53 -394.717 11210.2 
5.00006e+08 5.00001e+08 5.00001e+08 -2477.01 941.091 -10333.9 
5.00011e+08 5.00007e+08 5.00007e+08 -1018.7 -394.717 -11069.9 
4.99995e+08 4.99999e+08 4.99997e+08 4245.32 -834.569 10745.6 
4.99992e+08 4.99994e+08 4.99994e+08 3213.13 -490.711 11267.1 
5.00006e+08 5.00001e+08 5.00001e+08 -2523.85 873.109 -10271.6 
5.00011e+08 5.00007e+08 5.00007e+08 -1007.83 -490.711 -11036.9 
4.99995e+08 5e+08 4.99997e+08 4297.45 -801.386 10680.7 
4.99992e+08 4.99994e+08 4.99994e+08 3228.94 -383.803 11219.8 
5.00007e+08 5.00001e+08 5.00001e+08 -2623 905.828 -10283.9 
5.00011e+08 5.00007e+08 5.00007e+08 -992.814 -383.803 -11105.5 
4.99996e+08 5e+08 4.99998e+08 4260.83 -341.147 10376.9 
4.99993e+08 4.99995e+08 4.99995e+08 3236.65 -0.00632901 10893.2 
5.00007e+08 5.00002e+08 5.00002e+08 -2846.46 1371.46 -10498.8 
5.00012e+08 5.00008e+08 5.00008e+08 -969.566 -0.00632901 -11443.2 
4.99996e+08 5e+08 4.99997e+08 4476.72 -828.157 10621.1 
4.99992e+08 4.99994e+08 4.99994e+08 3261.82 -390.137 11232.9 
5.00007e+08 5.00001e+08 5.00001e+08 -2812.67 907.394 -10202 
5.00012e+08 5.00007e+08 5.00007e+08 -963.276 -390.137 -11132.6 
4.99996e+08 5e+08 4.99997e+08 4570.63 -900.851 10641 
4.99992e+08 4.99994e+08 4.99994e+08 3281.62 -482.995 11290.3 
5.00007e+08 5.00001e+08 5.00001e+08 -2882.6 837.924 -10124.6 
5.00012e+08 5.00007e+08 5.00007e+08 -951.172 -482.995 -11096.5 
4.99996e+08 5e+08 4.99997e+08 4631.82 -865.903 10566.7 
4.99992e+08 4.99994e+08 4.99994e+08 3297.61 -377.48 11237.9 
5.00007e+08 5.00001e+08 5.00001e+08 -3008.19 873.804 -10125.3 
5.00012e+08 5.00007e+08 5.00007e+08 -934.849 -377.48 -11167.4 
4.99997e+08 5e+08 4.99999e+08 4601.43 -314.785 10241.7 
4.99994e+08 4.99996e+08 4.99996e+08 3304.94 -0.00651057 10894.2 
5.00008e+08 5.00002e+08 5.00002e+08 -3265.93 1432.16 -10335.6 
5.00013e+08 5.00009e+08 5.00009e+08 -909.685 -0.00651057 -11519.3 
4.99996e+08 5e+08 4.99997e+08 4841.64 -902.458 10486.5 
4.99992e+08 4.99995e+08 4.99994e+08 3330.05 -395.954 11245.8 
5.00007e+08 5.00001e+08 5.00001e+08 -3264.52 870.253 -10011.3 
5.00012e+08 5.00008e+08 5.00007e+08 -901.732 -395.954 -11197.4 
4.99996e+08 5e+08 4.99997e+08 4947.05 -981.88 10499.5 
4.99993e+08 4.99994e+08 4.99994e+08 3349.46 -490.168 11302.2 
5.00007e+08 5.00001e+08 5.00001e+08 -3364.44 796.327 -9915.97 
5.00012e+08 5.00008e+08 5.00007e+08 -887.567 -490.168 -11159.2 
4.99996e+08 5e+08 4.99997e+08 5018.1 -945.825 10415.2 
4.99993e+08 4.99995e+08 4.99994e+08 3364.67 -384.805 11245 
5.00007e+08 5.00001e+08 5.00001e+08 -3522.88 835.737 -9900.31 
5.00013e+08 5.00008e+08 5.00007e+08 -868.727 -384.805 -11231.2 
4.99997e+08 5e+08 4.99999e+08 4997.14 -286.663 10072.6 
4.99995e+08 4.99996e+08 4.99996e+08 3369.96 -0.00700993 10889.8 
5.00008e+08 5.00001e+08 5.00002e+08 -3819.72 1505 -10095.5 
5.00015e+08 5.0001e+08 5.0001e+08 -839.729 -0.00700993 -11589.9 
4.99996e+08 5e+08 4.99997e+08 5259.83 -1002.02 10315.6 
4.99993e+08 4.99995e+08 4.99994e+08 3393.98 -437.143 11250.5 
5.00008e+08 5.00001e+08 5.00001e+08 -3858.12 818.934 -9741.28 
5.00013e+08 5.00008e+08 5.00007e+08 -828.819 -437.143 -11258.7 
4.99996e+08 4.99999e+08 4.99997e+08 5382.3 -1102.1 10336.8 
4.99993e+08 4.99995e+08 4.99994e+08 3411.19 -552.411 11324.3 
5.00008e+08 5e+08 5.00001e+08 -3986.57 727.425 -9607.81 
5.00013e+08 5.00008e+08 5.00007e+08 -810.483 -552.411 -11198.3 
4.99996e+08 4.99999e+08 4.99997e+08 5499.3 -1168.94 10327.8 
4.99993e+08 4.99994e+08 4.99993e+08 3423.49 -453.573 11365.7 
5.00008e+08 5e+08 5.00001e+08 -4141.94 665.37 -9488.09 
5.00013e+08 5.00008e+08 5.00007e+08 -786.582 -453.573 -11166 
TENSORS6 error float
809256 987841 1.03535e+06 -66133.8 523696 -14863.6 
184506 -61093.2 522440 88870.1 -644880 -22227 
1.41733e+06 1.67029e+06 1.87304e+06 -89982.9 728495 -29786.3 
392804 135070 846997 90486.2 -652550 -29640.5 
1.46127e+06 1.7241e+06 1.92908e+06 -91777.8 749042 -30436.5 
402757 137834 869114 92805.6 -669772 -30340.6 
1.49517e+06 1.76366e+06 1.97427e+06 -94252.5 768044 -31264.5 
421846 154612 900063 95743.9 -687884 -31237.1 
1.51808e+06 1.79013e+06 2.00507e+06 -96792.6 783359 -31956.4 
412937 133926 898465 97084.7 -696286 -31811.2 
1.55906e+06 1.84249e+06 2.05517e+06 -98196.9 797095 -32486.8 
415342 128217 910185 99011.7 -709743 -32386 
1.59317e+06 1.88377e+06 2.09915e+06 -100234 813410 -33162.5 
425414 133377 930206 101214 -724079 -33084.2 
1.61968e+06 1.91409e+06 2.13512e+06 -102503 829105 -33912.1 
443169 150074 957898 103840 -739425 -33891.1 
1.63749e+06 1.9342e+06 2.15953e+06 -104755 841846 -34521.6 
436913 134602 957719 104998 -746436 -34393.4 
1.67076e+06 1.97641e+06 2.20048e+06 -105968 853250 -34982.2 
440129 131568 968792 106680 -757907 -34893.9 
1.69865e+06 2.00985e+06 2.23676e+06 -107749 867009 -35572.9 
449690 137464 986801 108607 -770159 -35504.6 
1.7203e+06 2.03429e+06 2.26646e+06 -109735 880288 -36228.6 
465741 153087 1.0113e+06 110907 -783291 -36210.9 
1.73463e+06 2.05018e+06 2.28639e+06 -111704 891054 -36760.4 
460691 140359 1.0114e+06 111911 -789243 -36648.1 
1.76278e+06 2.08585e+06 2.32111e+06 -112755 900745 -37160.5 
463774 138274 1.02119e+06 113376 -799066 -37083.4 
1.78634e+06 2.114e+06 2.35185e+06 -114306 912495 -37674.8 
472354 143913 1.03701e+06 115054 -809585 -37615.3 
1.80449e+06 2.13434e+06 2.37688e+06 -116035 923834 -38245.4 
486621 158083 1.0585e+06 117054 -820852 -38229.7 
1.81623e+06 2.14718e+06 2.3934e+06 -117748 932988 -38708.1 
482220 147088 1.05849e+06 117930 -825938 -38610.6 
1.84053e+06 2.17799e+06 2.42334e+06 -118664 941310 -39056.1 
484904 145353 1.06693e+06 119203 -834367 -38989.1 
1.86072e+06 2.20209e+06 2.44971e+06 -120011 951403 -39502.5 
492458 150465 1.08071e+06 120659 -843423 -39450.6 
1.8761e+06 2.21926e+06 2.47099e+06 -121509 961124 -39996.5 
505088 163210 1.09954e+06 122388 -853105 -39982.1 
1.88577e+06 2.22968e+06 2.48473e+06 -122992 968927 -40398.4 
501108 153482 1.09931e+06 123159 -857462 -40314.5 
1.90694e+06 2.25658e+06 2.51077e+06 -123796 976109 -40702.1 
503352 151887 1.10652e+06 124265 -864704 -40644.1 
1.92437e+06 2.27739e+06 2.53353e+06 -124963 984806 -41088.6 
509964 156445 1.11849e+06 125524 -872513 -41043.4 
1.93745e+06 2.29195e+06 2.55168e+06 -126256 993159 -41514.3 
521157 167909 1.13501e+06 127006 -880844 -41500.2 
1.94539e+06 2.30036e+06 2.5631e+06 -127534 999816 -41863.1 
517489 159190 1.13455e+06 127694 -884580 -41791.7 
1.96395e+06 2.324e+06 2.58587e+06 -128248 1.00603e+06 -42129.6 
519324 157661 1.14067e+06 128655 -890810 -42079.6 
1.97906e+06 2.34206e+06 2.60558e+06 -129258 1.01354e+06 -42463.7 
525108 161708 1.15108e+06 129740 -897556 -42424.2 
1.9902e+06 2.35442e+06 2.62109e+06 -130369 1.02073e+06 -42828.7 
535060 172056 1.16561e+06 131001 -904732 -42814.2 
1.99668e+06 2.36115e+06 2.63054e+06 -131465 1.02641e+06 -43131.4 
531642 164173 1.16495e+06 131626 -907939 -43071.5 
2.01303e+06 2.38204e+06 2.65053e+06 -132108 1.03181e+06 -43367.3 
533115 162682 1.17012e+06 132463 -913303 -43324.4 
2.02616e+06 2.39776e+06 2.66765e+06 -132982 1.0383e+06 -43655.8 
538184 166281 1.1792e+06 133394 -919141 -43621.2 
2.03567e+06 2.40825e+06 2.68091e+06 -133931 1.0445e+06 -43966.8 
547070 175668 1.19202e+06 134455 -925332 -43951.3 
2.04089e+06 2.41355e+06 2.68869e+06 -134866 1.04934e+06 -44229.9 
543862 168491 1.19118e+06 135035 -928086 -44180.5 
2.05536e+06 2.43209e+06 2.70631e+06 -135456 1.05404e+06 -44441.2 
545021 167026 1.19554e+06 135767 -932711 -44404.5 
2.06682e+06 2.44582e+06 2.72122e+06 -136214 1.05967e+06 -44690 
549477 170238 1.20347e+06 136564 -937774 -44659.6 
2.07492e+06 2.45473e+06 2.73256e+06 -137021 1.06502e+06 -44953.5 
557451 178800 1.21484e+06 137446 -943122 -44936.3 
2.07908e+06 2.4588e+06 2.73891e+06 -137813 1.06915e+06 -45182.7 
554422 172226 1.21384e+06 137996 -945492 -45143 
2.09194e+06 2.47534e+06 2.75452e+06 -138366 1.07325e+06 -45374.5 
555313 170781 1.21751e+06 138639 -949486 -45343.3 
2.10197e+06 2.48738e+06 2.76754e+06 -139023 1.07815e+06 -45589.3 
559243 173660 1.22446e+06 139320 -953887 -45562.3 
2.10888e+06 2.49494e+06 2.77725e+06 -139705 1.08277e+06 -45810.7 
566436 181516 1.23459e+06 140039 -958515 -45791.3 
2.11214e+06 2.49797e+06 2.78238e+06 -140372 1.0863e+06 -46011.3 
563563 175460 1.23346e+06 140575 -960560 -45980.5 
2.12363e+06 2.51281e+06 2.79627e+06 -140902 1.08989e+06 -46188.4 
564225 174031 1.23654e+06 141144 -964016 -46162.1 
2.13244e+06 2.5234e+06 2.8077e+06 -141474 1.09416e+06 -46374.1 
567707 176624 1.24265e+06 141724 -967853 -46349.9 
2.13833e+06 2.52981e+06 2.81601e+06 -142047 1.09816e+06 -46558.4 
574232 183875 1.25172e+06 142297 -971866 -46536.3 
2.14082e+06 2.53195e+06 2.82011e+06 -142603 1.10118e+06 -46734.9 
571496 178265 1.25048e+06 142830 -973638 -46712.4 
2.15116e+06 2.54535e+06 2.83254e+06 -143123 1.10434e+06 -46901.7 
571963 176850 1.25307e+06 143340 -976637 -46879.6 
2.15892e+06 2.55471e+06 2.8426e+06 -143624 1.10807e+06 -47062.7 
575061 179198 1.25847e+06 143832 -979992 -47040.8 
2.16395e+06 2.56014e+06 2.84973e+06 -144101 1.11155e+06 -47214.5 
581014 185929 1.26662e+06 144274 -983480 -47189.3 
2.16579e+06 2.56153e+06 2.85295e+06 -144560 1.11412e+06 -47371.2 
578403 180708 1.26531e+06 144817 -985025 -47356.3 
2.17514e+06 2.5737e+06 2.86415e+06 -145082 1.11692e+06 -47531.4 
578705 179305 1.26747e+06 145279 -987635 -47513 
2.18203e+06 2.58202e+06 2.87305e+06 -145523 1.1202e+06 -47671.9 
581475 181441 1.27226e+06 145696 -990582 -47651.8 
2.18632e+06 2.58663e+06 2.87917e+06 -145918 1.12323e+06 -47795.3 
586937 187725 1.27963e+06 146020 -993619 -47766.6 
2.18761e+06 2.58738e+06 2.88166e+06 -146293 1.12543e+06 -47936.1 
584441 182845 1.27827e+06 146583 -994981 -47928.2 
2.19613e+06 2.59851e+06 2.89181e+06 -146827 1.12793e+06 -48093.3 
584604 181451 1.28007e+06 147009 -997261 -48078.1 
2.20227e+06 2.60595e+06 2.89972e+06 -147221 1.13083e+06 -48217 
587093 183404 1.28434e+06 147363 -999860 -48198.2 
2.20594e+06 2.60986e+06 2.905e+06 -147545 1.13348e+06 -48316.1 
592132 189301 1.29104e+06 147582 -1.00251e+06 -48283.5 
2.20677e+06 2.61007e+06 2.90686e+06 -147848 1.13536e+06 -48444.6 
589748 184726 1.28966e+06 148175 -1.00373e+06 -48443.2 
2.21459e+06 2.62033e+06 2.91614e+06 -148404 1.13761e+06 -48602.2 
589794 183340 1.29116e+06 148576 -1.00573e+06 -48589.7 
2.2201e+06 2.62703e+06 2.92322e+06 -148762 1.14018e+06 -48712.8 
592041 185132 1.29498e+06 148878 -1.00803e+06 -48694.9 
2.22325e+06 2.63035e+06 2.92778e+06 -149026 1.14251e+06 -48791.4 
596713 190691 1.30111e+06 149005 -1.01035e+06 -48754.7 
2.22369e+06 2.63011e+06 2.92913e+06 -149270 1.14413e+06 -48911.3 
594442 186394 1.29972e+06 149637 -1.01146e+06 -48915.8 
2.23092e+06 2.63964e+06 2.93767e+06 -149857 1.14618e+06 -49072.8 
594389 185015 1.30097e+06 150023 -1.01323e+06 -49062.4 
2.23591e+06 2.64571e+06 2.94406e+06 -150190 1.14847e+06 -49174 
596427 186664 1.30442e+06 150286 -1.01528e+06 -49156.5 
2.23862e+06 2.64854e+06 2.94801e+06 -150408 1.15052e+06 -49236.1 
600778 191923 1.31004e+06 150333 -1.01731e+06 -49194.8 
2.23874e+06 2.64792e+06 2.94893e+06 -150604 1.15192e+06 -49351.1 
598624 187888 1.30869e+06 151014 -1.01834e+06 -49360.9 
2.24548e+06 2.65684e+06 2.95686e+06 -151233 1.15381e+06 -49519.9 
598491 186515 1.30973e+06 151398 -1.01991e+06 -49511.2 
2.25002e+06 2.66239e+06 2.96267e+06 -151553 1.15587e+06 -49615.8 
600346 188035 1.31285e+06 151634 -1.02176e+06 -49598.2 
2.25236e+06 2.66481e+06 2.9661e+06 -151736 1.15768e+06 -49665.7 
604410 193022 1.31802e+06 151615 -1.02353e+06 -49619.6 
2.25222e+06 2.66388e+06 2.96668e+06 -151898 1.15889e+06 -49780.1 
602385 189243 1.31674e+06 152356 -1.02452e+06 -49794.5 
2.25857e+06 2.6723e+06 2.97412e+06 -152580 1.16067e+06 -49960.1 
602186 187874 1.31761e+06 152749 -1.02593e+06 -49952.5 
2.26273e+06 2.67741e+06 2.97942e+06 -152900 1.16253e+06 -50055.3 
603880 189274 1.32045e+06 152973 -1.02759e+06 -50037.1 
2.26477e+06 2.67949e+06 2.98242e+06 -153065 1.16414e+06 -50098.2 
607682 194008 1.32522e+06 152906 -1.02913e+06 -50046.9 
2.26441e+06 2.67829e+06 2.98273e+06 -153208 1.1652e+06 -50216.8 
605805 190491 1.32404e+06 153718 -1.03012e+06 -50234.9 
2.27042e+06 2.6863e+06 2.98976e+06 -153956 1.16689e+06 -50412.9 
605553 189129 1.32478e+06 154137 -1.03139e+06 -50405.6 
2.27428e+06 2.69104e+06 2.99465e+06 -154294 1.16858e+06 -50512.9 
607101 190415 1.32736e+06 154365 -1.03289e+06 -50493.4 
2.27605e+06 2.69284e+06 2.99728e+06 -154458 1.17001e+06 -50555.1 
610656 194906 1.33176e+06 154271 -1.03423e+06 -50498 
2.27551e+06 2.69142e+06 2.99736e+06 -154602 1.17094e+06 -50684.1 
608954 191670 1.33074e+06 155170 -1.03525e+06 -50704.9 
2.28126e+06 2.69909e+06 3.00406e+06 -155433 1.17258e+06 -50902.1 
608665 190318 1.33137e+06 155634 -1.0364e+06 -50894.2 
2.28484e+06 2.70351e+06 3.00859e+06 -155808 1.17413e+06 -51014.1 
610078 191495 1.33373e+06 155889 -1.03776e+06 -50992.4 
2.28638e+06 2.70507e+06 3.01089e+06 -155996 1.1754e+06 -51063.9 
613395 195749 1.33777e+06 155794 -1.03889e+06 -51000.5 
2.2857e+06 2.70345e+06 3.0108e+06 -156168 1.17621e+06 -51211.3 
611909 192834 1.33697e+06 156800 -1.03998e+06 -51233.4 
2.29122e+06 2.71082e+06 3.01723e+06 -157102 1.17783e+06 -51459.1 
611598 191506 1.33753e+06 157334 -1.04103e+06 -51449.5 
2.29455e+06 2.71495e+06 3.02142e+06 -157543 1.17926e+06 -51592.8 
612891 192586 1.33968e+06 157647 -1.04227e+06 -51567.8 
2.29587e+06 2.71628e+06 3.02341e+06 -157787 1.18037e+06 -51661.2 
615981 196616 1.34338e+06 157586 -1.04319e+06 -51590.6 
2.29504e+06 2.71445e+06 3.02316e+06 -158020 1.18108e+06 -51837.8 
614768 194091 1.34287e+06 158727 -1.04439e+06 -51859.5 
2.30034e+06 2.72153e+06 3.02934e+06 -159089 1.18271e+06 -52126.4 
614467 192823 1.34339e+06 159367 -1.04535e+06 -52113.4 
2.30341e+06 2.72535e+06 3.03319e+06 -159633 1.18401e+06 -52294.9 
615670 193852 1.34537e+06 159778 -1.04647e+06 -52264.9 
2.30448e+06 2.72639e+06 3.03481e+06 -159976 1.18496e+06 -52397.1 
618568 197719 1.34875e+06 159802 -1.04718e+06 -52318.2 
2.30343e+06 2.72424e+06 3.03435e+06 -160320 1.18556e+06 -52618.2 
617721 195707 1.34865e+06 161115 -1.04852e+06 -52636.7 
2.30848e+06 2.73096e+06 3.04024e+06 -161563 1.18721e+06 -52962.6 
617503 194606 1.34921e+06 161909 -1.04939e+06 -52943.8 
2.31118e+06 2.73432e+06 3.04363e+06 -162265 1.18837e+06 -53184.3 
618713 195735 1.35111e+06 162476 -1.05039e+06 -53147.1 
2.31182e+06 2.73484e+06 3.04472e+06 -162769 1.18912e+06 -53341.6 
621558 199669 1.35429e+06 162654 -1.05085e+06 -53252.7 
2.31033e+06 2.73202e+06 3.0438e+06 -163290 1.18957e+06 -53628.4 
621240 198414 1.35476e+06 164192 -1.05238e+06 -53640.3 
2.31494e+06 2.73814e+06 3.04921e+06 -164766 1.19124e+06 -54050 
621302 197788 1.35554e+06 165210 -1.05316e+06 -54022.3 
2.31695e+06 2.74058e+06 3.05181e+06 -165699 1.19219e+06 -54350.8 
622820 199490 1.35764e+06 166013 -1.05402e+06 -54303.3 
2.31667e+06 2.73987e+06 3.05182e+06 -166451 1.19266e+06 -54592.9 
626083 204239 1.36105e+06 166442 -1.05421e+06 -54491.7 
2.31399e+06 2.73534e+06 3.04965e+06 -167244 1.19282e+06 -54976.4 
626612 204263 1.36236e+06 168290 -1.05591e+06 -54977.6 
2.31765e+06 2.7401e+06 3.05403e+06 -169050 1.1944e+06 -55510 
627484 204947 1.36386e+06 169660 -1.05657e+06 -55472.6 
2.31816e+06 2.74041e+06 3.05499e+06 -170370 1.19505e+06 -55947.3 
630212 208571 1.36706e+06 170961 -1.05742e+06 -55903.2 
2.06346e+06 2.48489e+06 2.67371e+06 -171336 1.18326e+06 -46669.3 
211622 -105066 634098 127709 -804667 -32284.9 
-594207 -588336 -892373 1684.89 -23068.2 24232.3 
-451146 -451256 -671244 1450.03 -24236.3 20583.3 
-589833 -588193 -891162 -2789.32 -22268.9 15107.3 
-441434 -444441 -664560 -403.723 -24334.7 8692.92 
-491937 -487353 -738030 1519.42 -18321 20331.4 
-436531 -436939 -648931 1447.66 -23390.5 20002.4 
-488077 -487509 -737141 -2784.42 -17530.7 11770 
-426642 -430003 -642125 -495.284 -23490.8 7791.35 
-504912 -501018 -756682 1475.6 -18994 20889.5 
-448290 -449014 -666115 1353.74 -23319.4 20482 
-500914 -501117 -755744 -2883.59 -18179.9 12081.2 
-438157 -441909 -659142 -639.594 -23422.3 7975.96 
-514123 -509829 -770747 1669.09 -20734.7 21533.5 
-459850 -459602 -684265 1435.06 -22783.7 21220.1 
-509965 -509896 -769745 -2773.15 -19900.5 12513.3 
-449425 -452298 -677094 -590.185 -22888 8471.89 
-521656 -517273 -782089 1506.43 -21216.1 21820.6 
-463523 -462888 -690076 1529.75 -24571.2 21392.7 
-517417 -517285 -781033 -2595.49 -20381.9 12450.5 
-452961 -455490 -682811 -624.665 -24676.9 8452.8 
-533939 -530009 -799957 1443.5 -21573.8 22333.1 
-473938 -473571 -705310 1514.61 -25040 21828.6 
-529577 -529963 -798857 -2651.18 -20718.3 12714.2 
-463166 -466030 -697901 -709.483 -25148.4 8633.8 
-544732 -541293 -815548 1435.85 -21986.8 22808.2 
-483850 -483833 -719702 1436.89 -24896.9 22256.1 
-540247 -541197 -814407 -2691.8 -21108.1 12981.1 
-472854 -476137 -712138 -823.175 -25007.8 8816.17 
-552349 -548477 -827271 1610.59 -23409.7 23371.8 
-493795 -493035 -735219 1509.66 -24409.7 22908.2 
-547722 -548352 -826074 -2576.39 -22513 13363.7 
-482540 -485162 -727480 -773.026 -24521.7 9264.92 
-558565 -554587 -836661 1468.56 -23719.1 23610.8 
-496800 -495756 -739937 1589.38 -25882 23049 
-553867 -554413 -835416 -2418 -22822.9 13306.1 
-485426 -487802 -732116 -797.473 -25995.2 9245.6 
-568922 -565279 -851774 1411.59 -23966.2 24056 
-505699 -504920 -752916 1572 -26238.8 23427.2 
-564117 -565052 -850490 -2467.02 -23051.3 13541.5 
-494143 -496842 -744970 -869.523 -26354.4 9407.25 
-578045 -574786 -864979 1404.58 -24276.8 24468.1 
-514186 -513739 -765206 1500.66 -26081.2 23798.2 
-573132 -574515 -863659 -2502.03 -23341.6 13778.3 
-502434 -505525 -757124 -967.509 -26199 9569.61 
-584444 -580782 -874861 1559.16 -25461 24957.9 
-522662 -521582 -778426 1562.42 -25620.9 24367.5 
-579405 -580484 -873492 -2400.07 -24509.9 14116.9 
-510683 -513214 -770191 -921.232 -25739.8 9966.13 
-589676 -585888 -882803 1437.25 -25707.8 25161.2 
-525207 -523900 -782405 1630.68 -26884.9 24486.7 
-584576 -585546 -881391 -2263.13 -24757.2 14067 
-513125 -515462 -774100 -941.046 -27004.8 9948.8 
-598534 -595022 -895737 1388.11 -25897.9 25547 
-532859 -531801 -793544 1613.93 -27180.8 24814.7 
-593339 -594634 -894290 -2306.74 -24931.1 14274.7 
-520619 -523255 -785130 -1003.06 -27302.8 10091.3 
-606344 -603158 -907041 1383.57 -26150.1 25903.6 
-540177 -539423 -804120 1550.55 -27034 25136.7 
-601054 -602730 -905563 -2338.05 -25165.4 14483.2 
-527765 -530758 -795589 -1087.21 -27157.9 10234.3 
-611764 -608225 -915422 1520.31 -27140.7 26326.1 
-547370 -546054 -815364 1602.19 -26599.2 25630.1 
-606365 -607773 -913901 -2251.57 -26142.3 14780.4 
-534762 -537256 -806698 -1045.84 -26724 10580.2 
-616213 -612531 -922209 1416.67 -27360.6 26501.9 
-549560 -548058 -818779 1661.09 -27705.4 25733.8 
-610759 -612040 -920650 -2133.95 -26362.6 14739.1 
-536862 -539199 -810053 -1063.14 -27831.1 10566.6 
-623839 -620399 -933338 1375.51 -27515 26835.4 
-556163 -554891 -828373 1646.16 -27961.3 26018.2 
-618303 -619867 -931748 -2172.35 -26502.8 14920.8 
-543327 -545938 -819552 -1116.51 -28088.7 10691.3 
-630564 -627412 -943067 1373.85 -27726.8 27143.1 
-562496 -561500 -837513 1591.27 -27831.6 26297.5 
-624946 -626845 -941450 -2200.44 -26699.2 15103.2 
-549512 -552444 -828590 -1187.92 -27960.7 10816.4 
-635170 -631715 -950188 1493.74 -28556.1 27505.1 
-568585 -567080 -847063 1633.41 -27419.4 26721.6 
-629457 -631128 -948534 -2129.64 -27516.5 15362 
-555431 -557909 -838025 -1151.94 -27549.4 11114.4 
-638966 -635355 -956012 1405.96 -28762 27659.8 
-570483 -568823 -850016 1684.18 -28397.8 26814.8 
-633205 -634734 -954326 -2028.67 -27722.5 15330.2 
-557250 -559598 -840924 -1167.89 -28528.5 11106.4 
-645556 -642163 -965620 1372.5 -28890 27947.3 
-576194 -574747 -858300 1671.63 -28623.4 27061.2 
-639724 -641507 -963907 -2061.73 -27838.2 15488 
-562841 -565440 -849125 -1213.48 -28755.7 11215 
-651367 -648233 -974018 1373.73 -29070.7 28212.2 
-581690 -580494 -866221 1625.34 -28511 27303.5 
-645465 -647547 -972281 -2086.69 -28005.6 15646.8 
-568209 -571099 -856958 -1272.94 -28644.7 11324.2 
-655283 -651892 -980071 1477.43 -29763.7 28519.8 
-586833 -585170 -874323 1658.45 -28118.5 27664.3 
-649299 -651188 -978302 -2031.2 -28688.2 15870.1 
-573207 -575676 -864961 -1242.61 -28253 11577.1 
-658527 -654970 -985079 1403.22 -29960.5 28659.3 
-588484 -586691 -876885 1701.94 -28990.1 27751.2 
-652501 -654237 -983284 -1944.34 -28884.6 15848.7 
-574787 -577149 -867475 -1257.99 -29125.3 11576.5 
-664237 -660879 -993394 1377.15 -30067.3 28906.5 
-593434 -591840 -884052 1692.06 -29191.4 27964.8 
-658150 -660117 -991575 -1971.92 -28981 15984.9 
-579633 -582226 -874571 -1296.46 -29327.9 11671 
-669271 -666147 -1.00066e+06 1381.26 -30222.4 29134 
-598216 -596851 -890935 1654.33 -29094.5 28175.1 
-663124 -665361 -998820 -1993.73 -29124.7 16122.6 
-584305 -587161 -881377 -1344.6 -29232.3 11766.1 
-672599 -669260 -1.0058e+06 1469.29 -30799.5 29392.8 
-602550 -600754 -897799 1678.8 -28719.1 28478 
-666383 -668458 -1.00394e+06 -1953.09 -29692.8 16313.1 
-588515 -590979 -888157 -1320.12 -28857.5 11976.7 
-675373 -671858 -1.01012e+06 1406.75 -30989.6 29521.9 
-603991 -602085 -900029 1715.64 -29500.3 28562.4 
-669121 -671033 -1.00823e+06 -1878.14 -29881.8 16303.3 
-589891 -592267 -890343 -1335.52 -29639.4 11985.2 
-680332 -677001 -1.01733e+06 1387.83 -31078.7 29733.9 
-608291 -606571 -906242 1708.61 -29681.2 28747.8 
-674028 -676153 -1.01542e+06 -1900.13 -29962.1 16420.2 
-594101 -596691 -896494 -1367.4 -29821.4 12067.4 
-684704 -681587 -1.02363e+06 1394.82 -31212.2 29928.8 
-612464 -610954 -912237 1679.33 -29598 28930.6 
-678349 -680718 -1.0217e+06 -1918.76 -30085.9 16539.1 
-598179 -601008 -902424 -1404.76 -29739.3 12150.3 
-687530 -684233 -1.02799e+06 1467.74 -31690.4 30143.6 
-616105 -614194 -918044 1695.43 -29237.2 29180.5 
-681118 -683352 -1.02604e+06 -1892.56 -30556.4 16699.4 
-601715 -604176 -908159 -1386.25 -29379.1 12321.3 
-689904 -686422 -1.03171e+06 1415.3 -31875.1 30266.8 
-617367 -615365 -919991 1726.14 -29941.5 29265.7 
-683458 -685523 -1.02975e+06 -1827.69 -30739.3 16702.4 
-602918 -605307 -910065 -1402.15 -30083.9 12340.5 
-694222 -690911 -1.03798e+06 1403.4 -31949.3 30448 
-621112 -619285 -925390 1722.06 -30105.1 29426.9 
-687733 -689994 -1.036e+06 -1844.05 -30806 16802.1 
-606584 -609172 -915410 -1427.89 -30248.5 12412 
-698029 -694914 -1.04346e+06 1413.36 -32064.4 30614.4 
-624765 -623131 -930628 1701.11 -30033.9 29586.1 
-691497 -693982 -1.04146e+06 -1859.55 -30913.1 16904.5 
-610155 -612962 -920592 -1454.94 -30178.2 12484.5 
-700426 -697163 -1.04716e+06 1471.73 -32457.9 30789.8 
-627813 -625804 -935529 1709.09 -29685.6 29787.5 
-693848 -696221 -1.04515e+06 -1847.47 -31299.8 17037 
-613116 -615575 -925433 -1442.49 -29830.5 12618.2 
-702459 -699002 -1.05037e+06 1428.15 -32638.4 30910.8 
-628925 -626840 -937238 1734.07 -30324.1 29876.4 
-695851 -698048 -1.04835e+06 -1791.19 -31477.8 17053.9 
-614171 -616572 -927103 -1459.28 -30469.6 12649.7 
-706230 -702933 -1.05584e+06 1423.21 -32699.9 31065.1 
-632196 -630276 -941941 1733 -30473.2 30017 
-699587 -701966 -1.0538e+06 -1801.95 -31532.9 17138.4 
-617374 -619961 -931760 -1479.27 -30619.4 12712.2 
-709554 -706438 -1.06061e+06 1436.3 -32799.5 31206.8 
-635405 -633665 -946534 1720.24 -30412.4 30156.3 
-702875 -705461 -1.05856e+06 -1814.42 -31626 17226.3 
-620512 -623301 -936304 -1496.42 -30559.5 12775.8 
-711586 -708348 -1.06374e+06 1480.69 -33119.9 31346.6 
-637945 -635852 -950660 1720.3 -30074.7 30313 
-704872 -707365 -1.06169e+06 -1816.22 -31940.5 17333.4 
-622980 -625438 -940380 -1490.09 -30222.3 12874.6 
-713329 -709891 -1.06653e+06 1445.03 -33297.4 31468.6 
-638932 -636777 -952170 1739.91 -30657 30408.3 
-706588 -708900 -1.06446e+06 -1767.36 -32114.6 17365.2 
-623912 -626324 -941852 -1508.09 -30805.2 12919.5 
-716633 -713345 -1.07131e+06 1447.08 -33348.1 31599.5 
-641800 -639801 -956281 1741.89 -30793.8 30531.5 
-709863 -712347 -1.06923e+06 -1772.65 -32160.1 17436.4 
-626719 -629307 -945922 -1522.65 -30942.6 12974.5 
-719545 -716425 -1.07548e+06 1463.5 -33434.6 31719.7 
-644630 -642800 -960323 1737.17 -30742.4 30653.9 
-712747 -715421 -1.0734e+06 -1782.26 -32241.3 17511.8 
-629489 -632263 -949923 -1530.25 -30891.9 13030.8 
-721266 -718048 -1.07814e+06 1494.53 -33691.7 31827.2 
-646735 -644569 -963784 1729.46 -30413.7 30769.5 
-714441 -717041 -1.07604e+06 -1797.81 -32493.4 17595.5 
-631534 -633992 -953343 -1530.06 -30563.7 13096.6 
-722764 -719338 -1.08057e+06 1466.1 -33867.4 31953.1 
-647621 -645404 -965132 1743.99 -30947.7 30873.4 
-715915 -718329 -1.07846e+06 -1755.5 -32664.6 17643.3 
-632365 -634788 -954653 -1549.53 -31098.4 13156.2 
-725670 -722385 -1.08476e+06 1475.24 -33909.1 32063.6 
-650144 -648077 -968737 1749.03 -31074.2 30982.2 
-718798 -721374 -1.08265e+06 -1755.51 -32702.1 17703 
-634835 -637424 -958222 -1558.94 -31225.3 13205.1 
-728231 -725103 -1.08842e+06 1495.25 -33984.7 32165.2 
-652652 -650744 -972312 1752.2 -31031.4 31090.5 
-721337 -724092 -1.08631e+06 -1762.52 -32773.6 17767.7 
-637292 -640055 -961761 -1557.28 -31183.1 13255.2 
-729689 -726483 -1.09066e+06 1513.56 -34186.4 32243.5 
-654381 -652154 -975201 1736.89 -30710.1 31168.2 
-722777 -725471 -1.08855e+06 -1791.79 -32971 17830.2 
-638974 -641432 -964617 -1563.22 -30862.4 13290 
-730981 -727560 -1.09279e+06 1491.91 -34361.6 32375.7 
-655188 -652919 -976420 1746.58 -31202.8 31282.8 
-724046 -726552 -1.09067e+06 -1755.44 -33140.6 17895 
-639725 -642157 -965798 -1584.34 -31355.6 13365.3 
-733547 -730259 -1.09648e+06 1508.31 -34396 32468.4 
-657419 -655294 -979596 1754.68 -31320.5 31379.6 
-726595 -729255 -1.09436e+06 -1750.49 -33171.6 17945 
-641908 -644498 -968941 -1588.83 -31473.8 13409.3 
-735810 -732669 -1.09971e+06 1532.22 -34462.5 32554 
-659655 -657680 -982775 1765.59 -31285.9 31476.4 
-728842 -731669 -1.09758e+06 -1755.24 -33235.2 18000.7 
-644099 -646853 -972089 -1578.18 -31439.6 13454.7 
-737044 -733845 -1.10161e+06 1538.51 -34615.2 32605.7 
-661059 -658778 -985169 1742.8 -30970.8 31519 
-730066 -732847 -1.09948e+06 -1798.32 -33384.2 18043.9 
-645467 -647925 -974457 -1590.17 -31125.1 13460.3 
-738166 -734744 -1.10348e+06 1523.4 -34791.3 32746.4 
-661808 -659494 -986292 1747.86 -31427.6 31646.2 
-731167 -733754 -1.10135e+06 -1767.61 -33553.5 18126.9 
-646157 -648600 -975540 -1613.08 -31582.4 13552.2 
-740442 -737146 -1.10675e+06 1547.31 -34819.8 32823.8 
-663791 -661616 -989103 1759.01 -31538.2 31733.5 
-733431 -736166 -1.10462e+06 -1758.11 -33579.5 18168.7 
-648097 -650690 -978322 -1612.81 -31693.4 13592.5 
-742451 -739294 -1.10961e+06 1575.49 -34879.2 32895.7 
-665796 -663763 -991947 1777.5 -31511.5 31821.1 
-735430 -738324 -1.10748e+06 -1761.07 -33636.9 18217.3 
-650063 -652810 -981139 -1593.38 -31667 13634.4 
-743498 -740299 -1.11121e+06 1570.52 -34987.7 32923.3 
-666917 -664589 -993910 1747.37 -31201.4 31831.3 
-736474 -739334 -1.10908e+06 -1818.15 -33742.2 18243.3 
-651157 -653617 -983083 -1611.31 -31357.6 13612.5 
-744479 -741049 -1.11288e+06 1561.94 -35166.3 33074.3 
-667629 -665277 -994970 1748 -31626.9 31972.8 
-737435 -740097 -1.11076e+06 -1793.05 -33912.7 18345.5 
-651808 -654259 -984100 -1636.07 -31783.7 13721.9 
-746508 -743198 -1.11578e+06 1593.65 -35190.4 33138.5 
-669401 -667183 -997471 1762.16 -31731.9 32052.7 
-739456 -742262 -1.11366e+06 -1779.57 -33935 18381 
-653539 -656137 -986574 -1631.17 -31888.9 13759.8 
-748303 -745124 -1.11833e+06 1626.53 -35244.4 33198.9 
-671212 -669129 -1.00003e+06 1788.06 -31713.2 32133.2 
-741246 -744202 -1.11621e+06 -1781.33 -33987.9 18424.3 
-655316 -658059 -989113 -1603.15 -31870.4 13799.3 
-749191 -745987 -1.11969e+06 1611.17 -35312.1 33204.7 
-672083 -669716 -1.00162e+06 1750.73 -31407 32113.9 
-742139 -745074 -1.11758e+06 -1852.74 -34052.8 18435.2 
-656168 -658630 -990683 -1626.83 -31565 13751.7 
-750060 -746617 -1.12119e+06 1609.34 -35495.1 33367.7 
-672781 -670394 -1.00264e+06 1747.11 -31804.9 32271.2 
-742988 -745721 -1.11909e+06 -1833.54 -34226.5 18557.9 
-656800 -659261 -991664 -1653.4 -31963.5 13879.4 
-751878 -748549 -1.12379e+06 1649.24 -35516.1 33420.9 
-674375 -672119 -1.00488e+06 1764.25 -31905.3 32345.8 
-744802 -747674 -1.12169e+06 -1816.83 -34246.4 18589.1 
-658355 -660958 -993877 -1643.95 -32064 13916.1 
-753491 -750285 -1.12607e+06 1687.33 -35566.5 33471.7 
-676022 -673896 -1.00721e+06 1797.37 -31895.1 32421.5 
-746414 -749430 -1.12397e+06 -1818.17 -34296.4 18629 
-659972 -662713 -996183 -1607.48 -32054 13954.6 
-754249 -751034 -1.12722e+06 1662.57 -35595.4 33458.1 
-676670 -674266 -1.00846e+06 1753.01 -31591.8 32375.2 
-747183 -750191 -1.12513e+06 -1904.38 -34322.9 18627.2 
-660608 -663073 -997418 -1636.62 -31751.5 13883.3 
-755031 -751566 -1.1286e+06 1667.94 -35784.9 33634.5 
-677375 -674959 -1.00948e+06 1745.32 -31964.9 32550.1 
-747945 -750746 -1.12653e+06 -1891.73 -34501.8 18771.9 
-661241 -663714 -998398 -1664.91 -32125.2 14030.2 
-756667 -753312 -1.13093e+06 1716.49 -35804.4 33678.9 
-678817 -676529 -1.0115e+06 1765.39 -32061.8 32621.6 
-749582 -752518 -1.12886e+06 -1872.77 -34520.6 18801 
-662646 -665256 -1.00039e+06 -1650.92 -32222.2 14067.1 
-758125 -754887 -1.13299e+06 1760.38 -35852.9 33722.4 
-680329 -678164 -1.01363e+06 1805.5 -32060.9 32694.5 
-751043 -754118 -1.13092e+06 -1874.71 -34569.4 18839.9 
-664129 -666870 -1.0025e+06 -1606.12 -32221.6 14105.9 
-758777 -755545 -1.13397e+06 1727.4 -35843.5 33691.7 
-680772 -678336 -1.01457e+06 1754.33 -31759.5 32624.3 
-751711 -754790 -1.13192e+06 -1976.37 -34557.8 18828.4 
-664565 -667034 -1.00343e+06 -1640.32 -31921 14013.3 
-759495 -756001 -1.13526e+06 1740.68 -36042.3 33883.2 
-681508 -679067 -1.01563e+06 1742.76 -32109.6 32818.3 
-752409 -755275 -1.13322e+06 -1971.32 -34744.6 18996.8 
-665223 -667708 -1.00444e+06 -1670.08 -32271.8 14180.3 
-760973 -757585 -1.13736e+06 1798.43 -36061.7 33921 
-682823 -680506 -1.01746e+06 1765.71 -32204 32889 
-753891 -756891 -1.13533e+06 -1951.4 -34763.8 19026.4 
-666499 -669118 -1.00624e+06 -1651.51 -32366.2 14219 
-762300 -759022 -1.13923e+06 1848.81 -36110.1 33959.4 
-684222 -682022 -1.01943e+06 1812.58 -32213.8 32961.7 
-755224 -758358 -1.1372e+06 -1955.26 -34813 19067.3 
-667870 -670614 -1.00819e+06 -1598.45 -32376.1 14260 
-762865 -759610 -1.14006e+06 1808.99 -36061.3 33914.5 
-684471 -682004 -1.02007e+06 1754.87 -31913.3 32871 
-755810 -758963 -1.13805e+06 -2073.25 -34762.2 19049.4 
-668116 -670591 -1.00883e+06 -1637.15 -32076.5 14148.8 
-763541 -760010 -1.1413e+06 1831.21 -36272.6 34122.5 
-685266 -682801 -1.02121e+06 1739.66 -32241.2 33085.8 
-756466 -759398 -1.13931e+06 -2077.38 -34960 19243.8 
-668825 -671325 -1.00991e+06 -1668.01 -32405.2 14336.9 
-764880 -761451 -1.14319e+06 1898.8 -36293.6 34156.5 
-686472 -684127 -1.02288e+06 1765.42 -32334 33158.5 
-757811 -760876 -1.14121e+06 -2058.17 -34981.1 19277.5 
-669989 -672620 -1.01155e+06 -1644.71 -32498 14379.5 
-766095 -762769 -1.1449e+06 1956.47 -36343.8 34192.7 
-687777 -685543 -1.02471e+06 1818.76 -32356.1 33233.7 
-759035 -762229 -1.14293e+06 -2065.67 -35032.5 19323.9 
-671265 -674014 -1.01336e+06 -1583.45 -32520.2 14424.9 
-766590 -763307 -1.14561e+06 1911.5 -36252.8 34136.9 
-687835 -685338 -1.02507e+06 1754.92 -32055.4 33126.6 
-759555 -762787 -1.14366e+06 -2201.13 -34939.3 19304.3 
-671321 -673803 -1.01371e+06 -1625.84 -32220.5 14298.7 
-767246 -763670 -1.14683e+06 1944 -36480.3 34363.3 
-688721 -686232 -1.02633e+06 1736.36 -32361 33364.4 
-760189 -763190 -1.1449e+06 -2216.63 -35152 19527.7 
-672110 -674627 -1.01491e+06 -1657.22 -32527 14509.4 
-768460 -764981 -1.14854e+06 2022.16 -36504.8 34396.8 
-689830 -687460 -1.02786e+06 1764.89 -32452.8 33442.4 
-761410 -764544 -1.14661e+06 -2200.35 -35176.5 19569.9 
-673173 -675820 -1.0164e+06 -1628.95 -32618.8 14558.7 
-769576 -766194 -1.1501e+06 2088.01 -36558.9 34434.3 
-691058 -688790 -1.02958e+06 1824.33 -32489.4 33523.6 
-762536 -765796 -1.14819e+06 -2213.71 -35232 19626.6 
-674368 -677126 -1.0181e+06 -1559.46 -32655.5 14611.3 
-770018 -766698 -1.15071e+06 2039.94 -36420.4 34371.9 
-690920 -688389 -1.02964e+06 1754.92 -32187.1 33405.5 
-763005 -766325 -1.14882e+06 -2368.13 -35091.2 19611.3 
-674226 -676718 -1.01816e+06 -1604.44 -32354.3 14474.9 
-770674 -767042 -1.15194e+06 2084.43 -36668.8 34619.1 
-691930 -689417 -1.03108e+06 1733.4 -32469 33669 
-763637 -766713 -1.15007e+06 -2397.98 -35323.1 19867.9 
-675128 -677667 -1.01952e+06 -1635.49 -32637.1 14710.1 
-771770 -768232 -1.15347e+06 2173.95 -36698.4 34656.6 
-692954 -690555 -1.03247e+06 1764.65 -32560.2 33756.4 
-764741 -767951 -1.15162e+06 -2387.51 -35352.6 19924.6 
-676098 -678764 -1.02088e+06 -1601.85 -32728.3 14769.8 
-772797 -769349 -1.15491e+06 2248.95 -36758.4 34700.1 
-694116 -691810 -1.0341e+06 1829.76 -32613.8 33848.2 
-765778 -769112 -1.15306e+06 -2409.66 -35413.8 19998.2 
-677219 -679989 -1.02248e+06 -1524.06 -32782.1 14833.8 
-773196 -769836 -1.15543e+06 2200.31 -36564.4 34637.1 
-693763 -691193 -1.03383e+06 1755.55 -32307.4 33725.9 
-766206 -769627 -1.15361e+06 -2584.9 -35217 19995.4 
-676857 -679361 -1.02221e+06 -1570.04 -32476.9 14693.7 
-773872 -770176 -1.15671e+06 2258.85 -36838.9 34908.2 
-694939 -692394 -1.03551e+06 1731.64 -32562.8 34018.6 
-766854 -770017 -1.15491e+06 -2633.02 -35473.3 20290.7 
-677908 -680472 -1.02379e+06 -1599.54 -32733.5 14956.1 
-774852 -771248 -1.15806e+06 2360.48 -36874.6 34955.7 
-695881 -693445 -1.03678e+06 1765.54 -32652.9 34121.2 
-767841 -771142 -1.15628e+06 -2632.11 -35508.3 20370.4 
-678784 -681473 -1.02502e+06 -1559.89 -32823.6 15031.5 
-775796 -772275 -1.15937e+06 2445.64 -36941.4 35011.9 
-696982 -694628 -1.03832e+06 1835.71 -32725.4 34229.6 
-768793 -772218 -1.1576e+06 -2666.8 -35575.9 20469.8 
-679833 -682618 -1.02652e+06 -1473.58 -32896.4 15112.7 
-776160 -772758 -1.15981e+06 2399.46 -36679.8 34956.3 
-696382 -693757 -1.03768e+06 1757.74 -32409.8 34112.6 
-769184 -772732 -1.15806e+06 -2865.22 -35310.6 20490.7 
-679212 -681727 -1.02587e+06 -1518.33 -32582.2 14978 
-776874 -773109 -1.16116e+06 2474.32 -36984.8 35256.1 
-697761 -695168 -1.03964e+06 1732.18 -32634.2 34439.3 
-769864 -773137 -1.15943e+06 -2936.54 -35595.4 20832.5 
-680447 -683035 -1.02773e+06 -1544.52 -32808 15271.6 
-777737 -774065 -1.16233e+06 2588.61 -37025.1 35322.2 
-698615 -696123 -1.04078e+06 1768.65 -32720.6 34564.8 
-770730 -774150 -1.16062e+06 -2949.94 -35634 20946.6 
-681218 -683928 -1.02881e+06 -1497.84 -32894.5 15370.2 
-778599 -775009 -1.16351e+06 2684.78 -37096.2 35400.3 
-699652 -697226 -1.04223e+06 1842.96 -32810.8 34698.1 
-771595 -775148 -1.16181e+06 -3001.94 -35704.8 21084.3 
-682184 -684978 -1.03022e+06 -1402.51 -32985.1 15476.6 
-778924 -775494 -1.16384e+06 2644.62 -36747.7 35363.6 
-698743 -696027 -1.04114e+06 1762.45 -32473.1 34599.2 
-771944 -775668 -1.16216e+06 -3226.35 -35351 21144.5 
-681235 -683747 -1.0291e+06 -1442.77 -32649.1 15360.1 
-779688 -775865 -1.16528e+06 2737.72 -37083.6 35699.2 
-700347 -697667 -1.04343e+06 1736.21 -32660.2 34966.6 
-772666 -776097 -1.16363e+06 -3326.56 -35664.4 21543.6 
-682670 -685265 -1.03126e+06 -1463.1 -32837.7 15691.1 
-780432 -776716 -1.16625e+06 2864.58 -37118.1 35796.2 
-701088 -698494 -1.04439e+06 1774.86 -32733.9 35125.5 
-773405 -777009 -1.16461e+06 -3359.97 -35695.4 21708.2 
-683302 -686011 -1.03215e+06 -1407.69 -32911.9 15823.6 
-781215 -777598 -1.16729e+06 2972.03 -37179.3 35909.3 
-702037 -699483 -1.04572e+06 1851.76 -32829.6 35295.3 
-774183 -777948 -1.16566e+06 -3434.91 -35754.3 21901.4 
-684152 -686928 -1.03342e+06 -1302.07 -33008.2 15967.1 
-781472 -778075 -1.16744e+06 2941.02 -36710.4 35907.2 
-700701 -697806 -1.04403e+06 1768.56 -32434.4 35230.6 
-774455 -778463 -1.16583e+06 -3689.05 -35278 22022.3 
-682747 -685198 -1.03167e+06 -1333.9 -32615 15886.2 
-782276 -778461 -1.16895e+06 3050.71 -37061.5 36290.7 
-702479 -699606 -1.04657e+06 1738.27 -32576 35647.2 
-775204 -778910 -1.16737e+06 -3824.53 -35603.7 22494.6 
-684320 -686850 -1.03407e+06 -1349.05 -32758.5 16263.6 
-782913 -779254 -1.16969e+06 3180.63 -37042 36438.1 
-703012 -700200 -1.04723e+06 1756.99 -32586.2 35847.9 
-775823 -779768 -1.16812e+06 -3891.17 -35578.2 22733.2 
-684705 -687335 -1.03463e+06 -1303.1 -32769.4 16439.4 
-839631 -835792 -1.25459e+06 3564.34 -39771.9 39011.7 
-900417 -897234 -1.34338e+06 2158.25 -41845.9 43847.7 
-832343 -836510 -1.25306e+06 -4049.61 -38235.4 24956.7 
-881787 -884398 -1.33071e+06 -1186.12 -41960.5 23962.7 
POINT_DATA 401
VECTORS displacement float
-5.28089e-11 -2.52153e-10 2.1929e-10
-0.00226254 0.00179966 0.0101241
-0.000218365 0.00152655 0.00877332
7.62728e-12 2.82977e-10 -1.35934e-10
-3.25574e-06 -5.33062e-05 5.45624e-05
-0.00224911 0.00187992 0.0103863
-0.000292814 0.00158119 0.00905013
1.04709e-11 3.99534e-11 3.89636e-11
-1.22842e-05 -6.08568e-05 4.84302e-05
-0.00223883 0.00195631 0.010637
-0.000369362 0.00163187 0.00931567
5.89308e-12 4.2352e-11 5.45615e-11
-1.16052e-05 -4.57636e-05 4.29086e-05
-0.00222715 0.00202737 0.0108657
-0.00044489 0.00167699 0.00955997
1.74914e-11 -4.92755e-11 -3.66892e-11
-3.3594e-11 -3.24831e-10 2.74275e-10
-0.00220913 0.0020994 0.0110218
-0.000515823 0.00172243 0.00973186
1.12517e-11 2.25566e-10 -1.27142e-10
-1.09218e-05 -3.68894e-05 4.20474e-05
-0.00220138 0.00215691 0.0112267
-0.000583212 0.00175331 0.00995274
3.68901e-12 6.32138e-11 1.84946e-11
-1.2703e-05 -4.70049e-05 4.26383e-05
-0.00219475 0.00221262 0.0114307
-0.000649159 0.00178227 0.0101733
4.21619e-12 4.37887e-11 4.88406e-11
-1.07698e-05 -3.68195e-05 3.79078e-05
-0.0021865 0.00226642 0.0116189
-0.00071352 0.00180912 0.0103787
1.56127e-11 -4.21253e-11 -3.21985e-11
-3.03211e-11 -2.70619e-10 2.41588e-10
-0.00217259 0.00232361 0.0117462
-0.000773496 0.00183879 0.0105236
1.01877e-11 1.97939e-10 -1.04699e-10
-9.75884e-06 -3.17081e-05 3.66393e-05
-0.00216765 0.0023698 0.011917
-0.000830533 0.00185744 0.0107121
3.36562e-12 5.65373e-11 2.21155e-11
-1.13003e-05 -4.06453e-05 3.69505e-05
-0.00216362 0.00241575 0.0120879
-0.000886363 0.00187576 0.0109011
3.80599e-12 3.99238e-11 4.83905e-11
-9.54464e-06 -3.19928e-05 3.26978e-05
-0.0021581 0.00246105 0.0122455
-0.000940836 0.00189328 0.0110776
1.3848e-11 -3.3201e-11 -2.03403e-11
-2.67393e-11 -2.3802e-10 2.07477e-10
-0.00214748 0.00250997 0.012351
-0.000991494 0.0019139 0.0112023
9.06721e-12 1.73045e-10 -8.48649e-11
-8.56158e-06 -2.81289e-05 3.14558e-05
-0.00214463 0.00255006 0.0124948
-0.0010397 0.0019257 0.0113652
3.04218e-12 5.0683e-11 2.49324e-11
-9.88129e-06 -3.61171e-05 3.16597e-05
-0.00214249 0.00259045 0.0126389
-0.00108689 0.00193773 0.011529
3.40043e-12 3.63694e-11 4.82931e-11
-8.31805e-06 -2.84816e-05 2.79093e-05
-0.00213896 0.00263066 0.0127718
-0.00113296 0.00194943 0.011682
1.20922e-11 -2.4318e-11 -8.1501e-12
-2.31697e-11 -2.13997e-10 1.76366e-10
-0.00213089 0.00267403 0.0128596
-0.00117582 0.00196386 0.0117903
7.94341e-12 1.514e-10 -6.77485e-11
-7.375e-06 -2.53595e-05 2.68538e-05
-0.00212947 0.00271013 0.0129809
-0.00121658 0.00197104 0.0119321
2.72214e-12 4.56367e-11 2.72417e-11
-8.48465e-06 -3.25567e-05 2.70103e-05
-0.0021286 0.00274672 0.0131027
-0.00125651 0.00197864 0.0120749
3.00072e-12 3.3248e-11 4.83053e-11
-7.11529e-06 -2.56905e-05 2.37191e-05
-0.00212646 0.00278331 0.0132148
-0.00129552 0.00198612 0.0122083
1.03704e-11 -1.63499e-11 2.90811e-12
-1.96693e-11 -1.94762e-10 1.49215e-10
-0.0021203 0.00282245 0.0132878
-0.00133191 0.00199579 0.012303
6.83524e-12 1.32823e-10 -5.31026e-11
-6.21285e-06 -2.30899e-05 2.28754e-05
-0.00211978 0.00285557 0.0133901
-0.00136645 0.00199944 0.0124269
2.40784e-12 4.13162e-11 2.91801e-11
-7.12123e-06 -2.96181e-05 2.30057e-05
-0.0021197 0.00288925 0.013493
-0.00140029 0.00200359 0.0125519
2.60826e-12 3.05556e-11 4.83464e-11
-5.94288e-06 -2.33758e-05 2.01152e-05
-0.00211846 0.002923 0.0135875
-0.00143342 0.00200771 0.0126688
8.68939e-12 -9.44078e-12 1.25394e-11
-1.62521e-11 -1.78752e-10 1.25882e-10
-0.0021137 0.00295872 0.0136479
-0.00146449 0.00201349 0.0127519
5.74896e-12 1.16952e-10 -4.06021e-11
-5.07801e-06 -2.11822e-05 1.94672e-05
-0.0021137 0.00298944 0.0137339
-0.00149387 0.00201426 0.0128606
2.10064e-12 3.76278e-11 3.0824e-11
-5.79232e-06 -2.7141e-05 1.95787e-05
-0.00211402 0.00302075 0.0138209
-0.00152265 0.00201556 0.0129706
2.22395e-12 2.82516e-11 4.83914e-11
-4.80088e-06 -2.1421e-05 1.70321e-05
-0.00211329 0.00305217 0.0139002
-0.00155091 0.00201688 0.0130733
7.04965e-12 -3.50811e-12 2.0819e-11
-1.2917e-11 -1.65208e-10 1.05919e-10
-0.00210954 0.00308504 0.0139499
-0.00157764 0.00201938 0.0131465
4.68598e-12 1.03403e-10 -2.99312e-11
-3.96967e-06 -1.9562e-05 1.65531e-05
-0.00210973 0.00311377 0.0140222
-0.00160277 0.00201772 0.0132424
1.80116e-12 3.44834e-11 3.22246e-11
-4.49611e-06 -2.50351e-05 1.66483e-05
-0.00211016 0.00314311 0.0140954
-0.00162739 0.00201661 0.0133394
1.84824e-12 2.62884e-11 4.84339e-11
-3.68731e-06 -1.97581e-05 1.43948e-05
-0.00210964 0.00317258 0.0141619
-0.00165165 0.00201554 0.0134301
5.44916e-12 1.58903e-12 2.79233e-11
-9.65866e-12 -1.53682e-10 8.88305e-11
-0.00210658 0.00320306 0.0142024
-0.0016749 0.00201525 0.0134949
3.6459e-12 9.18275e-11 -2.08077e-11
-2.88594e-06 -1.81809e-05 1.40576e-05
-0.00210673 0.00323013 0.0142628
-0.00169656 0.00201151 0.0135797
1.50959e-12 3.18055e-11 3.34208e-11
-3.22996e-06 -2.32392e-05 1.41373e-05
-0.00210701 0.00325782 0.0143243
-0.00171779 0.00200833 0.0136658
1.48119e-12 2.46214e-11 4.84735e-11
-2.59976e-06 -1.83398e-05 1.21326e-05
-0.00210646 0.00328568 0.0143799
-0.00173881 0.00200521 0.0137461
3.88531e-12 5.99614e-12 3.40419e-11
-6.47092e-12 -1.43857e-10 7.41532e-11
-0.00210383 0.00331413 0.0144126
-0.00175932 0.0020025 0.0138038
2.62769e-12 8.19173e-11 -1.29855e-11
-1.82488e-06 -1.70025e-05 1.19125e-05
-0.00210372 0.00333983 0.0144629
-0.00177822 0.00199697 0.0138791
1.22583e-12 2.95273e-11 3.44441e-11
-1.99133e-06 -2.17063e-05 1.19762e-05
-0.00210366 0.00336616 0.0145144
-0.00179674 0.00199198 0.0139558
1.1227e-12 2.32114e-11 4.85117e-11
-1.53602e-06 -1.71292e-05 1.01825e-05
-0.00210286 0.00339268 0.0145606
-0.0018152 0.00198708 0.0140274
2.3556e-12 9.84847e-12 3.93527e-11
-3.34822e-12 -1.35487e-10 6.14735e-11
-0.00210044 0.00341945 0.0145867
-0.00183363 0.00198227 0.0140789
1.6302e-12 7.34049e-11 -6.2507e-12
-7.84796e-07 -1.59973e-05 1.00571e-05
-0.00209988 0.00344401 0.0146285
-0.00185039 0.00197517 0.0141463
9.49628e-13 2.75914e-11 3.53212e-11
-7.78146e-07 -2.03981e-05 1.01037e-05
-0.00209929 0.00346923 0.0146714
-0.00186682 0.00196861 0.0142149
7.72561e-13 2.20247e-11 4.85506e-11
-4.94285e-07 -1.60958e-05 8.4886e-06
-0.00209805 0.00349465 0.0147097
-0.00188333 0.00196214 0.014279
8.57958e-13 1.32693e-11 4.40174e-11
-2.86369e-13 -1.28368e-10 5.04238e-11
-0.00209561 0.00352003 0.0147301
-0.00190029 0.0019555 0.0143254
6.52486e-13 6.60566e-11 -4.16058e-13
2.3548e-07 -1.51407e-05 8.43796e-06
-0.00209442 0.00354369 0.0147646
-0.00191548 0.00194701 0.0143859
6.80678e-13 2.59487e-11 3.60749e-11
4.11065e-07 -1.9282e-05 8.46532e-06
-0.00209312 0.00356801 0.0148003
-0.00193038 0.00193906 0.0144477
4.30567e-13 2.10328e-11 4.85923e-11
5.26647e-07 -1.52139e-05 7.00095e-06
-0.00209124 0.00359257 0.0148318
-0.00194551 0.00193121 0.0145053
-6.08977e-13 1.63724e-11 4.8183e-11
2.71707e-12 -1.22325e-10 4.06741e-11
-0.00208857 0.00361681 0.0148475
-0.00196156 0.00192294 0.0145474
-3.0605e-13 5.96658e-11 4.68472e-12
1.23652e-06 -1.44111e-05 7.00666e-06
-0.00208656 0.00363976 0.0148757
-0.00197574 0.00191321 0.014602
4.18665e-13 2.45569e-11 3.67252e-11
1.577e-06 -1.83297e-05 7.01177e-06
-0.00208435 0.0036634 0.0149053
-0.00198967 0.00190403 0.014658
9.65711e-14 2.02119e-11 4.86391e-11
1.5273e-06 -1.44608e-05 5.67409e-06
-0.00208162 0.0036873 0.014931
-0.00200398 0.00189495 0.0147102
-2.04572e-12 1.9266e-11 5.19871e-11
5.66244e-12 -1.17209e-10 3.1921e-11
-0.00207849 0.00371063 0.0149429
-0.00201969 0.00188521 0.0147486
-1.24554e-12 5.40465e-11 9.20251e-12
2.21817e-06 -1.37902e-05 5.7186e-06
-0.00207544 0.00373306 0.0149658
-0.00203339 0.00187438 0.0147982
1.63297e-13 2.33797e-11 3.72896e-11
2.71943e-06 -1.75167e-05 5.69716e-06
-0.00207209 0.0037562 0.0149902
-0.0020469 0.00186407 0.0148493
-2.29472e-13 1.95422e-11 4.86933e-11
2.50739e-06 -1.3817e-05 4.46532e-06
-0.00206828 0.00377962 0.0150111
-0.00206096 0.00185387 0.0148968
-3.45172e-12 2.20567e-11 5.55626e-11
8.54755e-12 -1.12891e-10 2.38764e-11
-0.00206441 0.00380225 0.0150197
-0.00207688 0.0018428 0.0149322
-2.1655e-12 4.90268e-11 1.32781e-11
3.17934e-06 -1.32613e-05 4.53116e-06
-0.00206007 0.00382433 0.0150382
-0.00209069 0.00183095 0.0149776
-8.56781e-14 2.23851e-11 3.77842e-11
3.83704e-06 -1.68209e-05 4.47729e-06
-0.00205532 0.00384715 0.0150581
-0.00210437 0.00181962 0.0150244
-5.47467e-13 1.90075e-11 4.87577e-11
3.4656e-06 -1.32647e-05 3.3331e-06
-0.00205014 0.00387028 0.0150749
-0.00211877 0.0018084 0.015068
-4.82512e-12 2.48548e-11 5.90431e-11
1.1367e-11 -1.09254e-10 1.62563e-11
-0.00204523 0.00389238 0.0150809
-0.00213553 0.00179608 0.0151008
-3.06468e-12 4.44422e-11 1.70475e-11
4.11783e-06 -1.28099e-05 3.40207e-06
-0.00203929 0.00391428 0.0150957
-0.00215006 0.00178329 0.0151427
-3.28473e-13 2.15451e-11 3.82237e-11
4.92708e-06 -1.62223e-05 3.3079e-06
-0.00203281 0.00393695 0.0151119
-0.00216456 0.00177101 0.0151859
-8.57138e-13 1.85948e-11 4.88351e-11
4.39938e-06 -1.27877e-05 2.23525e-06
-0.00202591 0.00395995 0.0151253
-0.00217996 0.00175883 0.0152261
-6.16235e-12 2.77788e-11 6.25692e-11
1.41114e-11 -1.06197e-10 8.76892e-12
-0.00201959 0.00398168 0.0151292
-0.00219824 0.00174534 0.0152569
-3.94083e-12 4.01297e-11 2.06475e-11
5.02991e-06 -1.24221e-05 2.28754e-06
-0.00201166 0.00400356 0.0151408
-0.00221421 0.00173165 0.0152957
-5.65269e-13 2.08339e-11 3.86223e-11
5.98497e-06 -1.57025e-05 2.1427e-06
-0.00200307 0.00402623 0.0151539
-0.00223027 0.00171847 0.0153358
-1.15799e-12 1.82936e-11 4.89294e-11
5.30447e-06 -1.23709e-05 1.12714e-06
-0.00199403 0.00404926 0.0151644
-0.00224746 0.00170538 0.0153731
-7.45766e-12 3.09615e-11 6.62951e-11
1.67657e-11 -1.03626e-10 1.10077e-12
-0.00198583 0.00407078 0.0151668
-0.00226804 0.00169073 0.0154025
-4.79042e-12 3.59202e-11 2.42214e-11
5.90986e-06 -1.20852e-05 1.14031e-06
-0.00197546 0.00409278 0.0151758
-0.0022863 0.00167619 0.0154386
-7.96236e-13 2.02277e-11 3.89939e-11
7.00365e-06 -1.52434e-05 9.31254e-07
-0.00196426 0.00411561 0.0151863
-0.0023048 0.00166213 0.015476
-1.44926e-12 1.80959e-11 4.90447e-11
6.17437e-06 -1.19996e-05 -4.03764e-08
-0.00195257 0.00413882 0.0151943
-0.00232469 0.00164816 0.0155109
-8.70229e-12 3.45565e-11 7.0396e-11
1.93076e-11 -1.01456e-10 -7.097e-12
-0.00194193 0.00416025 0.0151957
-0.00234855 0.00163234 0.0155391
-5.60818e-12 3.16316e-11 2.79246e-11
6.74921e-06 -1.17871e-05 -9.24353e-08
-0.00192853 0.00418253 0.0152024
-0.00237012 0.00161695 0.015573
-1.02157e-12 1.97026e-11 3.93527e-11
7.97267e-06 -1.48281e-05 -3.83183e-07
-0.00191411 0.00420567 0.0152106
-0.00239214 0.00160204 0.0156081
-1.72985e-12 1.79952e-11 4.91866e-11
6.99949e-06 -1.16596e-05 -1.3231e-06
-0.00189914 0.00422921 0.0152166
-0.00241587 0.00158719 0.0156407
-9.88343e-12 3.87449e-11 7.50773e-11
2.17045e-11 -9.9612e-11 -1.62238e-11
-0.00188538 0.00425065 0.0152174
-0.00244418 0.00157015 0.0156683
-6.38649e-12 2.70614e-11 3.19299e-11
7.53573e-06 -1.1517e-05 -1.47112e-06
-0.00186824 0.00427335 0.0152222
-0.00247035 0.0015539 0.0157001
-1.24155e-12 1.92336e-11 3.97129e-11
8.87692e-06 -1.44411e-05 -1.8657e-06
-0.00184987 0.00429694 0.0152285
-0.00249724 0.0015381 0.0157332
-1.99825e-12 1.79859e-11 4.93622e-11
7.76597e-06 -1.13383e-05 -2.78533e-06
-0.00183083 0.00432095 0.0152326
-0.00252623 0.00152233 0.0157639
-1.09828e-11 4.37424e-11 8.05831e-11
2.39098e-11 -9.80509e-11 -2.67408e-11
-0.00181311 0.00434247 0.0152332
-0.00256048 0.00150398 0.0157911
-7.1146e-12 2.19823e-11 3.64271e-11
8.25199e-06 -1.12689e-05 -3.06475e-06
-0.00179138 0.00436571 0.0152364
-0.00259285 0.0014868 0.0158211
-1.45664e-12 1.87915e-11 4.00875e-11
9.69487e-06 -1.40738e-05 -3.59028e-06
-0.00176816 0.00438987 0.0152408
-0.00262634 0.00147004 0.0158522
-2.25249e-12 1.80601e-11 4.95819e-11
8.45413e-06 -1.10292e-05 -4.50006e-06
-0.00174411 0.00441444 0.0152434
-0.0026624 0.00145326 0.0158811
-1.19747e-11 4.98009e-11 8.72055e-11
2.58581e-11 -9.68197e-11 -3.91674e-11
-0.00172141 0.00443605 0.0152441
-0.00270448 0.00143339 0.0159083
-7.77768e-12 1.61493e-11 4.16064e-11
8.87364e-06 -1.10521e-05 -4.94808e-06
-0.00169403 0.0044599 0.0152457
-0.00274513 0.00141513 0.0159366
-1.66764e-12 1.83371e-11 4.04821e-11
1.03965e-05 -1.37399e-05 -5.63516e-06
-0.00166489 0.00448464 0.0152484
-0.0027874 0.00139722 0.0159658
-2.4902e-12 1.82004e-11 4.98625e-11
9.03662e-06 -1.07465e-05 -6.54319e-06
-0.00163472 0.00450978 0.0152493
-0.00283286 0.00137919 0.0159929
-1.28243e-11 5.71947e-11 9.52844e-11
2.74599e-11 -9.62452e-11 -5.40221e-11
-0.00160582 0.00453131 0.0152505
-0.0028852 0.00135739 0.0160204
-8.35606e-12 9.34202e-12 4.75899e-11
9.36785e-06 -1.09238e-05 -7.1862e-06
-0.00157156 0.00455562 0.0152504
-0.00293678 0.00133766 0.0160469
-1.87605e-12 1.78077e-11 4.08774e-11
1.09415e-05 -1.35239e-05 -8.0614e-06
-0.00153522 0.00458074 0.0152513
-0.00299067 0.00131812 0.0160741
-2.70918e-12 1.83604e-11 5.0237e-11
9.47706e-06 -1.05694e-05 -8.9688e-06
-0.00149761 0.00460609 0.0152503
-0.00304852 0.00129822 0.0160992
-1.34875e-11 6.61529e-11 1.05181e-10
2.86003e-11 -9.74923e-11 -7.15972e-11
-0.0014611 0.00462692 0.0152519
-0.00311425 0.00127356 0.016127
-8.82606e-12 1.51931e-12 5.42073e-11
9.69359e-06 -1.10867e-05 -9.78095e-06
-0.00141853 0.00465098 0.0152497
-0.00318019 0.00125134 0.0161513
-2.08475e-12 1.70808e-11 4.11737e-11
1.128e-05 -1.37247e-05 -1.08412e-05
-0.00137356 0.00467551 0.0152482
-0.00324932 0.00122887 0.0161761
-2.90929e-12 1.8407e-11 5.07818e-11
9.73159e-06 -1.07746e-05 -1.17279e-05
-0.00132702 0.00469976 0.0152446
-0.0033234 0.00120544 0.0161986
-1.39181e-11 7.66316e-11 1.17161e-10
2.92244e-11 -1.04361e-10 -9.12186e-11
-0.00128127 0.00471794 0.0152457
-0.00340654 0.00117562 0.0162258
-9.02121e-12 -6.73848e-12 6.01916e-11
9.9515e-06 -1.224e-05 -1.24983e-05
-0.00122882 0.00473933 0.0152406
-0.00349108 0.00114811 0.0162472
-1.4757e-12 1.53174e-11 4.04186e-11
1.20931e-05 -1.54675e-05 -1.37223e-05
-0.00117342 0.0047602 0.0152356
-0.00357973 0.00111921 0.0162686
1.02121e-12 7.7554e-12 4.06017e-11
1.33858e-05 -1.27e-05 -1.7113e-05
-0.00111509 0.00478019 0.0152256
-0.00367337 0.00108851 0.0162846
-3.02163e-11 -2.25137e-11 2.21746e-11
-2.02241e-05 -2.48229e-05 3.49111e-06
